<svg width="2145" height="536" viewBox="0 0 2145 536" fill="none" xmlns="http://www.w3.org/2000/svg">
<path fill-rule="evenodd" clip-rule="evenodd" d="M448 268C448 367.411 367.411 448 268 448C168.589 448 88 367.411 88 268C88 168.589 168.589 88 268 88C367.411 88 448 168.589 448 268ZM279.034 390.711C268.344 383.029 273.25 366.832 286.254 366.832C293.936 366.832 299.443 372.339 299.443 379.975C299.443 382.983 299.351 383.353 296.991 387.657C296.574 388.397 295.047 389.786 293.612 390.758C292.558 391.473 291.933 391.897 291.245 392.149C290.24 392.516 289.101 392.516 286.3 392.516H281.533L279.034 390.711ZM226.786 382.011C228.035 384.51 229.979 386.454 232.571 387.888C234.098 388.675 235.023 388.86 237.708 388.721C240.577 388.583 241.317 388.351 243.4 386.963C247.565 384.14 249.277 379.512 248.074 374.514C247.796 373.218 247.38 372.154 247.195 372.154C247.01 372.154 246.5 371.413 246.084 370.534C245.667 369.655 245.112 368.914 244.834 368.914C244.557 368.914 243.539 368.405 242.567 367.757C237.893 364.657 231.136 366.369 227.526 371.598C225.629 374.375 225.305 379.003 226.786 382.011ZM338.688 384.047C332.162 381.595 328.645 376.967 328.229 370.21C328.09 367.526 328.229 366.091 328.876 364.333C329.339 363.037 329.895 361.972 330.08 361.972C330.265 361.972 330.45 361.648 330.45 361.232C330.45 360.399 334.199 356.697 336.003 355.771C340.4 353.503 348.36 353.92 351.877 356.604C352.941 357.391 354.654 359.103 355.672 360.399C357.338 362.389 357.708 363.268 358.171 366.23C359.42 373.866 356.412 380.16 350.118 383.075C346.833 384.649 341.511 385.065 338.688 384.047ZM248.768 362.759C249.786 366.323 251.267 368.127 254.183 369.562C257.7 371.228 261.125 371.182 264.642 369.423C269.27 367.063 271.213 362.667 270.195 356.835C269.779 354.383 269.362 353.596 267.789 351.93C262.652 346.654 255.617 346.793 250.48 352.346C248.583 354.383 247.75 359.288 248.768 362.759ZM302.081 365.397C299.397 364.425 297.546 362.759 295.741 359.844C294.26 357.345 294.121 356.882 294.121 353.411C294.121 350.356 294.353 349.246 295.232 347.533C298.379 341.378 305.552 338.648 312.031 341.193C314.854 342.304 317.029 344.201 318.788 347.163C319.852 348.968 319.991 349.755 320.037 353.179C320.037 356.928 319.945 357.298 318.417 359.844C316.566 362.852 314.761 364.425 311.892 365.443C309.439 366.276 304.488 366.276 302.081 365.397ZM209.015 354.244C208.413 358.316 210.958 362.805 214.892 364.518C215.679 364.888 217.623 365.166 219.196 365.212C222.158 365.212 224.426 364.147 226.369 361.834C231.321 355.91 227.387 346.7 219.52 345.914C214.614 345.405 209.755 349.246 209.015 354.244ZM237.43 346.562C234.468 345.127 233.311 344.063 232.386 341.98C229.007 334.205 234.977 326.384 243.168 327.911C245.667 328.374 249.138 331.382 249.833 333.65C250.666 336.427 250.527 339.851 249.509 342.211C248.259 345.081 244.696 347.163 241.086 347.163C239.698 347.117 238.078 346.886 237.43 346.562ZM269.362 330.04C268.113 335.917 270.103 340.545 274.962 342.952C279.497 345.219 283.616 344.71 287.688 341.378C289.956 339.527 291.113 336.704 291.113 333.002C291.113 329.438 289.077 324.533 287.596 324.487C287.318 324.487 286.809 324.163 286.485 323.746C284.68 321.617 278.572 321.016 275.332 322.636C272 324.348 270.056 326.754 269.362 330.04ZM204.387 341.61C201.749 340.823 199.019 336.612 199.019 333.372C199.019 331.475 200.87 328.328 202.721 327.032C206.238 324.579 210.357 324.996 213.782 328.143L215.679 329.901V333.604C215.679 337.167 215.633 337.352 214.059 339.203C211.792 341.841 208.182 342.72 204.387 341.61ZM313.975 321.108C313.558 323.237 314.067 324.857 315.641 326.384C316.751 327.541 317.307 327.726 319.436 327.726C322.351 327.726 323.554 326.893 324.434 324.255C325.313 321.525 324.295 318.563 322.166 317.684C318.603 316.157 314.576 317.869 313.975 321.108ZM227.619 324.024C220.862 321.988 219.52 312.084 225.49 308.567C230.858 305.42 237.337 308.659 238.17 314.861C238.448 316.666 238.263 317.499 237.245 319.581C236.227 321.71 235.625 322.312 233.635 323.283C231.182 324.533 229.794 324.672 227.619 324.024ZM327.21 317.961C327.21 319.72 327.442 320.229 329.247 321.988C331.098 323.885 331.422 324.024 333.689 324.024C335.957 324.024 336.281 323.885 337.854 322.219C340.77 319.165 340.77 315.833 337.808 313.148C336.235 311.76 335.679 311.529 333.643 311.529C329.895 311.529 327.21 314.213 327.21 317.961ZM202.258 321.479C202.258 321.016 201.795 320.784 200.916 320.784C199.944 320.784 199.065 320.229 197.445 318.47C195.548 316.434 195.316 315.971 195.316 313.981C195.316 311.251 196.52 308.798 198.509 307.641C200.453 306.531 204.294 306.438 206.469 307.502C209.339 308.937 210.542 313.519 208.968 317.221C208.274 318.933 205.775 320.784 204.155 320.784C203.6 320.784 203.184 321.062 203.184 321.479C203.184 321.849 202.999 322.173 202.721 322.173C202.489 322.173 202.258 321.849 202.258 321.479ZM252.887 315.37C253.581 317.082 256.635 319.72 258.625 320.368C259.32 320.553 261.078 320.692 262.559 320.599C264.781 320.414 265.614 320.136 267.418 318.702C272.463 314.814 272.463 307.225 267.465 303.198C265.382 301.532 262.281 300.931 259.042 301.532C256.913 301.949 253.535 304.633 252.841 306.531C252.1 308.613 252.1 313.565 252.887 315.37ZM344.889 314.768C342.76 313.472 341.557 311.251 341.557 308.613C341.557 306.114 341.973 305.142 343.686 303.43C348.082 299.033 355.903 302.227 355.903 308.382C355.903 310.973 354.237 314.074 352.34 314.953C350.165 315.971 346.786 315.925 344.889 314.768ZM300.647 307.641C300.647 310.094 300.785 310.372 302.59 312.038C304.303 313.657 304.765 313.843 306.848 313.843C308.93 313.843 309.393 313.657 311.059 312.13C314.114 309.261 314.16 306.021 311.198 303.06C309.625 301.532 309.254 301.347 306.987 301.347C304.719 301.347 304.303 301.532 302.544 303.152C300.693 304.911 300.6 305.096 300.647 307.641ZM318.094 304.587C317.261 304.124 316.15 302.828 315.594 301.764C312.586 295.84 318.51 289.315 324.758 291.675C327.396 292.647 329.062 295.239 329.062 298.339C329.062 301.162 327.627 303.754 325.544 304.772C323.323 305.79 319.945 305.744 318.094 304.587ZM223.269 302.736C223.685 302.736 224.148 303.06 224.287 303.43C224.657 304.309 225.212 304.309 225.536 303.476C225.675 303.152 226.369 302.736 227.11 302.597C228.961 302.18 231.275 299.82 231.923 297.645C232.941 294.313 230.812 290.102 227.526 288.852C222.76 287.047 217.484 290.657 217.53 295.701C217.576 298.802 220.77 302.736 223.269 302.736ZM363.308 303.661C363.308 303.245 362.382 302.643 361.04 302.134C357.106 300.746 354.561 296.673 355.255 292.971C355.764 290.194 357.754 287.603 359.976 286.723C363.724 285.335 368.491 286.353 370.435 288.991C371.268 290.102 371.406 290.981 371.406 294.498V298.663L369.555 300.237C368.537 301.116 367.01 301.995 366.131 302.227C365.298 302.504 364.326 303.06 363.956 303.522C363.447 304.17 363.354 304.217 363.308 303.661ZM195.779 295.748C195.779 297.506 197.167 300.19 198.695 301.255C201.61 303.291 206.331 302.134 208.136 298.895C209.663 296.118 207.904 291.12 205.127 290.379C202.628 289.685 199.481 290.102 198.232 291.259C196.844 292.554 195.779 294.498 195.779 295.748ZM285.93 300.561C284.125 300.283 281.811 297.182 281.533 294.637C281.348 293.156 281.533 292.092 282.366 290.472C283.894 287.417 284.68 287.001 288.845 287.001H292.409L294.075 288.945C296.389 291.629 296.528 295.192 294.445 298.2C292.779 300.561 290.373 301.209 285.93 300.561ZM242.521 289.407C242.521 292.369 243.168 293.897 245.205 295.655C246.824 297.09 247.102 297.182 250.666 297.182C254.692 297.182 255.155 296.997 257.237 294.313C260.801 289.731 258.672 283.067 253.072 281.17C250.295 280.244 247.334 280.846 245.39 282.605C244.696 283.252 244.001 283.761 243.816 283.761C243.307 283.761 242.521 287.047 242.521 289.407ZM147.881 293.387C145.243 292.462 141.726 289.685 139.921 287.094C138.164 284.55 138.162 284.502 138.024 279.423L138.023 279.411C137.885 274.228 138.347 271.868 139.875 270.248C140.198 269.924 140.846 269.091 141.263 268.397C142.096 267.147 142.744 266.685 146.955 264.556C150.287 262.89 155.008 262.936 158.802 264.602C160.33 265.296 161.533 266.037 161.533 266.222C161.533 266.453 161.811 266.638 162.135 266.638C162.875 266.638 164.772 268.582 164.772 269.323C164.772 269.646 164.958 269.878 165.189 269.878C165.374 269.878 166.115 271.081 166.809 272.608C168.845 277.144 168.29 283.854 165.605 286.816C165.143 287.325 164.772 287.973 164.772 288.251C164.772 289.084 160.654 292.184 158.247 293.063C155.702 294.035 150.241 294.22 147.881 293.387ZM334.754 292.045C335.772 292.416 336.466 292.925 336.466 293.387C336.466 293.989 336.651 293.896 337.392 293.11C337.947 292.554 338.688 292.092 339.15 292.092C339.567 292.092 340.446 291.675 341.094 291.166C341.742 290.657 342.482 290.24 342.76 290.24C343.963 290.24 345.398 285.335 344.981 282.604C344.38 278.393 341.511 275.94 337.16 275.894C333.504 275.894 331.329 276.959 329.848 279.55C326.979 284.733 329.108 290.24 334.754 292.045ZM300.137 287.14C297.685 286.492 295.324 282.605 295.278 279.226C295.232 272.701 302.729 268.721 308.19 272.331C312.54 275.2 313.095 281.494 309.439 285.474C308.005 287.047 307.773 287.14 304.488 287.279C302.59 287.325 300.646 287.279 300.137 287.14ZM200.87 278.347C199.25 280.985 199.805 283.854 202.397 286.214C202.999 286.723 204.063 287.001 205.405 287.001C207.117 287.001 207.719 286.723 208.968 285.474C211.421 283.021 211.653 280.615 209.663 278.069C207.488 275.339 202.582 275.478 200.87 278.347ZM221.325 283.53C218.872 282.466 217.761 278.532 218.918 275.107C219.613 273.164 222.621 271.544 224.981 271.868C228.498 272.331 230.627 274.645 230.627 277.93C230.627 282.836 226.045 285.566 221.325 283.53ZM368.445 278.948C369.37 280.429 372.054 282.466 373.859 283.114C377.099 284.271 380.107 283.715 382.884 281.401C389.594 275.848 386.447 265.065 377.793 264C373.304 263.491 368.306 267.009 367.658 271.081C367.288 273.719 367.658 277.792 368.445 278.948ZM245.297 276.82C245.297 276.588 244.834 276.357 244.233 276.357C242.613 276.357 239.836 274.182 239.05 272.331C236.875 267.147 240.068 262.011 245.436 262.011C249.694 262.011 252.702 265.019 252.702 269.323C252.702 271.729 252.609 271.96 250.434 274.089C249.185 275.385 247.796 276.357 247.195 276.357C246.686 276.357 246.223 276.588 246.223 276.82C246.223 277.097 246.038 277.282 245.76 277.282C245.529 277.282 245.297 277.097 245.297 276.82ZM341.279 267.703C342.251 269.97 344.935 272.238 347.434 272.932C352.802 274.321 357.847 271.636 359.374 266.546C361.086 260.668 357.245 254.513 351.322 253.819C347.527 253.403 343.732 255.3 341.696 258.678C340.446 260.715 340.261 265.296 341.279 267.703ZM179.859 267.425C176.759 266.222 174.074 263.538 172.593 260.252C171.251 257.198 171.39 252.57 172.917 249.7C175.648 244.517 178.887 242.573 184.811 242.573C189.393 242.573 190.596 242.944 193.049 245.026C196.751 248.219 198.417 252.153 197.954 256.642C197.075 265.343 188.097 270.665 179.859 267.425ZM307.264 256.55C306.154 260.807 308.375 265.481 312.633 267.703C314.808 268.86 318.973 268.721 321.564 267.379C325.313 265.435 327.442 260.715 326.331 256.642C325.729 254.328 323.323 251.089 321.611 250.209C319.76 249.238 313.604 249.284 312.031 250.256C310.18 251.366 307.866 254.467 307.264 256.55ZM381.819 256.966C378.163 255.485 375.386 251.135 375.34 246.924C375.34 242.944 377.238 239.427 380.616 237.159C382.328 236.002 382.93 235.909 386.725 235.909C391.306 235.863 392.463 236.326 394.962 239.056C397.785 242.157 398.803 247.155 397.323 250.719C396.49 252.709 393.481 256.457 392.695 256.457C392.371 256.457 391.491 256.781 390.797 257.151C388.992 258.077 384.411 257.984 381.819 256.966ZM205.96 247.71C207.164 249.747 210.542 252.431 212.347 252.801C217.021 253.68 220.584 252.986 223.176 250.672C229.424 245.073 227.896 234.475 220.446 231.791C215.355 229.986 210.125 231.235 207.025 235.03L205.266 237.159V241.833C205.266 245.165 205.451 246.831 205.96 247.71ZM285.143 250.348C282.366 248.867 281.302 246.785 281.487 243.499C281.719 240.352 282.737 238.779 285.467 237.437C290.326 235.03 295.741 238.64 295.741 244.332C295.741 247.664 292.687 250.857 289.216 251.228C287.688 251.366 286.67 251.181 285.143 250.348ZM350.165 241.879C351.738 244.887 352.941 245.998 355.718 246.97C358.171 247.849 361.919 247.849 364.326 246.924C366.547 246.091 369.602 243.129 370.527 240.861C371.407 238.871 371.36 234.151 370.481 232.068C369.648 230.125 367.334 227.579 365.39 226.469C364.372 225.913 362.891 225.728 359.837 225.728C355.811 225.728 355.533 225.774 353.497 227.255C348.776 230.634 347.388 236.604 350.165 241.879ZM241.82 246.325L241.534 246.269C241.121 246.187 240.676 246.099 240.345 246.044C238.772 245.674 236.458 243.499 235.532 241.417C233.913 237.899 234.792 232.161 237.291 230.032C238.726 228.782 242.289 227.302 243.863 227.302C247.935 227.302 252.1 229.986 253.072 233.225C255.525 241.324 249.971 248.081 242.289 246.415C242.154 246.39 241.993 246.359 241.82 246.325ZM262.513 244.147C263.716 245.535 264.549 246.044 266.169 246.276C268.02 246.6 270.38 246.461 272.185 245.998C272.555 245.906 273.712 244.98 274.684 243.962C276.258 242.342 276.489 241.833 276.674 239.38C276.952 235.585 276.211 233.734 273.666 231.744C271.815 230.31 271.167 230.078 269.038 230.078C266.076 230.078 264.04 230.865 262.328 232.67C260.801 234.336 260.106 236.094 260.106 238.408C260.106 240.769 260.615 241.972 262.513 244.147ZM322.721 242.62C318.834 241.602 315.548 236.696 315.548 231.929C315.548 225.219 320.084 220.823 326.979 220.823C331.052 220.823 334.337 222.766 336.744 226.561C337.855 228.366 337.947 235.169 336.836 237.251C335.957 238.825 333.504 241.278 331.931 242.111C330.543 242.805 324.711 243.129 322.721 242.62ZM160.839 230.634C162.32 233.271 164.726 235.354 167.318 236.28C171.899 237.899 178.054 236.742 181.201 233.642C184.256 230.634 185.135 228.459 185.135 224.062C185.135 219.666 184.302 217.583 181.201 214.529C176.851 210.225 168.799 209.993 163.754 213.973C162.505 214.945 161.394 216.472 160.468 218.416C159.219 221.1 159.126 221.656 159.312 224.895C159.497 227.625 159.867 228.968 160.839 230.634ZM288.799 227.163C285.236 225.913 283.986 221.1 286.3 217.583C287.365 215.963 287.735 215.778 290.002 215.454C291.761 215.269 293.103 215.362 294.26 215.824C295.741 216.38 296.065 216.796 296.805 218.879C297.962 222.396 297.268 224.849 294.677 226.515C292.594 227.857 291.298 227.996 288.799 227.163ZM193.28 216.148C194.576 218.601 196.566 220.406 199.111 221.517C200.962 222.303 204.803 222.396 206.932 221.656C215.771 218.647 217.206 205.875 209.2 201.247C206.932 199.951 206.238 199.766 203.184 199.812C198.972 199.812 196.705 200.969 194.067 204.394C192.447 206.476 192.308 206.893 192.123 210.225C191.984 213.418 192.123 214.066 193.28 216.148ZM272.139 219.064C269.871 217.953 268.76 215.408 268.992 211.937C269.316 207.633 272.139 205.273 276.628 205.643C278.849 205.828 279.405 206.106 281.024 207.772C282.69 209.392 282.968 209.947 283.107 212.122C283.431 216.657 280.423 219.851 275.841 219.851C274.684 219.851 273.018 219.48 272.139 219.064ZM352.479 209.253C354.006 211.983 357.615 215.084 359.605 215.408C362.058 215.778 367.334 215.686 368.954 215.269C371.036 214.667 374.785 211.104 376.034 208.559C376.543 207.541 377.006 205.319 377.099 203.607C377.238 201.062 377.099 200.09 376.173 198.053C373.674 192.639 369.787 190.094 364.002 190.094C359.837 190.094 356.551 191.482 354.376 194.166C351.553 197.544 351.044 198.933 351.044 203.005C351.044 206.291 351.183 206.985 352.479 209.253ZM227.156 214.76C225.351 213.742 223.037 211.104 222.621 209.623C221.464 205.597 222.852 199.303 225.027 198.701C225.49 198.609 225.86 198.377 225.86 198.192C225.86 197.406 229.331 196.295 231.784 196.295C237.245 196.341 241.132 200.321 241.132 205.921C241.132 208.975 239.975 211.382 237.384 213.603C235.486 215.223 235.301 215.269 231.691 215.269C229.609 215.269 227.573 215.038 227.156 214.76ZM248.768 211.335C249.416 212.539 250.666 213.881 251.452 214.39C252.517 215.038 253.766 215.269 255.988 215.269C260.06 215.269 262.42 213.696 263.577 210.178C265.475 204.486 262.281 199.164 256.682 198.701C251.869 198.331 248.074 201.617 247.704 206.522C247.519 208.836 247.704 209.531 248.768 211.335ZM326.053 210.734C322.814 209.438 320.361 207.032 318.603 203.468C317.538 201.2 317.399 200.506 317.584 197.683C317.77 195.092 318.14 193.935 319.389 191.852C320.269 190.417 321.611 188.844 322.351 188.289C323.138 187.733 323.832 187.178 323.971 186.947C324.526 186.206 328.367 185.188 330.635 185.188C333.504 185.188 336.975 186.299 338.132 187.548C338.549 188.011 339.197 188.427 339.567 188.427C339.891 188.427 340.354 188.798 340.492 189.261C340.678 189.677 341.279 190.649 341.835 191.343C343.177 192.963 343.871 195.369 343.871 198.424C343.871 200.691 342.853 204.532 342.112 205.088C341.927 205.227 341.233 206.06 340.585 206.939C339.891 207.865 338.086 209.207 336.466 210.086C334.106 211.289 333.042 211.567 330.728 211.521C329.154 211.521 327.072 211.197 326.053 210.734ZM293.196 200.367C291.9 203.422 292.779 206.754 295.186 208.096C300.276 210.826 305.737 204.671 302.544 199.812C301.433 198.146 298.518 197.406 295.972 198.146C294.214 198.655 293.705 199.025 293.196 200.367ZM283.153 198.331C281.441 197.452 280.469 195.416 280.469 192.963C280.515 189.214 282.783 187.039 286.717 187.039C290.65 187.039 292.918 189.214 292.964 192.963C292.964 195.462 291.946 197.452 290.188 198.377C288.475 199.257 284.773 199.257 283.153 198.331ZM188.189 186.16C189.069 189.168 191.012 191.389 194.159 192.87C197.029 194.212 199.574 194.259 202.906 193.055C206.146 191.806 208.459 189.307 209.478 185.882C210.588 181.948 209.524 177.228 206.886 174.636C204.572 172.369 202.073 171.304 198.787 171.304C193.604 171.304 189.67 174.174 188.282 178.987C187.264 182.411 187.264 182.967 188.189 186.16ZM267.789 191.112C266.261 190.232 264.781 188.289 264.271 186.438C262.698 180.884 267.65 176.302 273.62 177.83C275.517 178.339 276.119 178.755 277.229 180.514C279.451 183.8 279.081 186.854 276.165 189.955C274.638 191.574 274.453 191.667 271.63 191.667C270.01 191.667 268.251 191.389 267.789 191.112ZM217.53 177.506C217.53 182.18 220.122 185.743 224.426 187.039C227.202 187.918 230.025 187.317 232.848 185.373C235.301 183.661 236.041 182.365 236.365 179.033C236.689 175.192 235.949 172.6 233.913 170.703C231.367 168.435 230.534 168.111 226.925 168.065C223.87 168.065 223.454 168.204 221.603 169.592C218.78 171.767 217.53 174.127 217.53 177.506ZM248.768 186.947C245.158 185.651 243.03 182.596 242.983 178.616C242.983 176.256 243.168 175.793 244.834 173.711C246.5 171.536 246.824 171.351 249.231 171.073C253.165 170.564 255.571 171.073 257.191 172.832C259.227 174.96 259.644 176.025 259.644 178.94C259.644 181.995 258.903 183.568 256.635 185.327C253.998 187.409 251.499 187.918 248.768 186.947ZM312.54 165.057C314.484 169.176 317.446 171.952 321.611 173.433C322.536 173.757 324.804 174.035 326.701 174.081C329.756 174.081 330.496 173.896 333.551 172.369C335.402 171.443 337.207 170.24 337.577 169.731C337.901 169.176 338.641 168.25 339.15 167.648C340.492 166.167 341.557 162.234 341.557 158.717C341.557 152.885 339.428 148.998 334.43 145.759L331.699 144H326.655C321.009 144 320.13 144.278 316.428 147.378C311.522 151.451 309.81 159.133 312.54 165.057Z" fill="#F3C083"/>
<circle cx="268" cy="24" r="24" fill="#F3C083"/>
<circle cx="512" cy="268" r="24" transform="rotate(90 512 268)" fill="#F3C083"/>
<circle cx="95.466" cy="95.4659" r="24" transform="rotate(-45 95.466 95.4659)" fill="#F3C083"/>
<circle cx="440.534" cy="95.466" r="24" transform="rotate(45 440.534 95.466)" fill="#F3C083"/>
<circle cx="268" cy="512" r="24" fill="#F3C083"/>
<circle cx="24" cy="268" r="24" transform="rotate(90 24 268)" fill="#F3C083"/>
<circle cx="440.534" cy="440.534" r="24" transform="rotate(-45 440.534 440.534)" fill="#F3C083"/>
<circle cx="95.4659" cy="440.534" r="24" transform="rotate(45 95.4659 440.534)" fill="#F3C083"/>
<path d="M1123.01 333H1142V221.516H1184.48V203.844H1080.71V221.516H1123.01V333Z" fill="#F3C083"/>
<path d="M1319.34 245.956C1319.34 221.328 1298.66 203.844 1271.4 203.844H1217.07V333H1236.06V288.068H1265.76L1297.34 333H1319.15L1286.25 286.188C1305.8 281.112 1319.34 265.884 1319.34 245.956ZM1236.06 221.516H1268.77C1287.38 221.516 1299.98 230.728 1299.98 245.956C1299.98 261.184 1287.38 270.396 1268.77 270.396H1236.06V221.516Z" fill="#F3C083"/>
<path d="M1446.93 221.516V203.844H1351.99V333H1446.93V315.328H1371.17V276.036H1439.6V258.364H1371.17V221.516H1446.93Z" fill="#F3C083"/>
<path d="M1589.49 333H1610.54L1555.08 203.844H1534.03L1478.57 333H1499.62L1510.9 306.68H1578.21L1589.49 333ZM1518.24 289.572L1544.56 228.284L1570.88 289.572H1518.24Z" fill="#F3C083"/>
<path d="M1678.76 335.068C1709.22 335.068 1725.76 318.524 1725.76 296.716C1725.76 273.592 1707.9 264.944 1682.15 258.928C1660.9 253.852 1649.81 249.716 1649.81 237.684C1649.81 227.344 1659.96 218.132 1674.44 218.132C1687.6 218.132 1700.57 223.96 1711.47 233.924L1722.38 219.636C1709.97 208.732 1695.12 201.4 1675.19 201.4C1649.25 201.4 1630.45 217.756 1630.45 239.376C1630.45 262.688 1647.93 270.584 1674.25 276.788C1695.87 281.676 1706.59 286.376 1706.59 298.596C1706.59 308.936 1697.37 318.336 1679.51 318.336C1662.03 318.336 1648.49 311.192 1637.03 300.288L1625.56 314.388C1639.28 327.548 1657.14 335.068 1678.76 335.068Z" fill="#F3C083"/>
<path d="M1813.5 335.256C1845.83 335.256 1868.96 311.756 1868.96 278.668V203.844H1849.78V278.292C1849.78 301.416 1834.74 317.96 1813.5 317.96C1792.06 317.96 1777.02 301.416 1777.02 278.292V203.844H1758.04V278.668C1758.04 311.756 1780.97 335.256 1813.5 335.256Z" fill="#F3C083"/>
<path d="M2003.18 245.956C2003.18 221.328 1982.5 203.844 1955.24 203.844H1900.91V333H1919.9V288.068H1949.6L1981.19 333H2003L1970.1 286.188C1989.65 281.112 2003.18 265.884 2003.18 245.956ZM1919.9 221.516H1952.61C1971.22 221.516 1983.82 230.728 1983.82 245.956C1983.82 261.184 1971.22 270.396 1952.61 270.396H1919.9V221.516Z" fill="#F3C083"/>
<path d="M2074.09 333H2093.64V282.428L2144.97 203.844H2122.97L2083.87 264.38L2045.33 203.844H2022.39L2074.09 282.428V333Z" fill="#F3C083"/>
<path d="M690.561 335.358C688.52 335.126 684.996 334.523 682.677 333.966C680.405 333.456 678.039 332.9 677.437 332.761C675.35 332.344 666.26 327.985 664.776 326.733C664.405 326.362 663.849 326.084 663.617 326.084C663.107 326.084 659.397 323.116 656.475 320.38C653.461 317.506 647.664 310.875 647.664 310.226C647.664 310.04 646.968 308.788 646.133 307.444C643.768 303.688 640.939 297.15 639.363 291.771C635.56 278.834 635.514 257.365 639.316 245.356C640.058 242.945 640.708 240.765 640.708 240.487C640.708 239.653 645.113 230.518 646.458 228.57C647.107 227.597 647.664 226.669 647.664 226.437C647.664 226.252 648.406 225.278 649.287 224.258C650.168 223.284 650.91 222.311 650.91 222.125C650.91 221.754 658.701 213.872 659.118 213.872C659.258 213.872 660.185 213.13 661.159 212.249C662.133 211.368 663.802 210.208 664.915 209.652C666.028 209.096 667.234 208.4 667.605 208.075C667.976 207.704 669.135 207.148 670.156 206.777C671.176 206.406 673.263 205.572 674.793 204.922C678.039 203.531 682.538 202.511 689.401 201.491C699.789 200.007 713.238 201.908 722.838 206.221C725.852 207.565 728.681 209.003 729.098 209.42C729.469 209.837 730.026 210.162 730.258 210.162C731.371 210.162 739.811 217.581 742.733 221.151C744.541 223.284 745.979 225.232 745.979 225.417C745.979 225.603 746.396 226.159 746.86 226.716C748.066 227.968 751.822 235.247 752.981 238.447C757.294 250.456 759.103 263.115 758.129 274.429C757.433 282.126 755.022 294.136 753.863 295.712C753.631 295.991 753.213 297.103 752.889 298.263C752.147 300.859 748.576 307.629 746.814 309.901C746.118 310.828 745.515 311.756 745.515 311.941C745.515 312.405 741.156 317.552 739.115 319.499C736.936 321.586 731.324 326.084 730.907 326.084C730.675 326.084 729.84 326.64 728.959 327.289C728.124 327.939 725.342 329.376 722.791 330.489C713.934 334.43 700.67 336.424 690.561 335.358ZM708.786 326.594C711.429 326.037 714.954 324.971 716.623 324.229C718.247 323.441 719.823 322.838 720.055 322.838C721.678 322.838 735.776 311.57 735.776 310.272C735.776 310.087 736.286 309.345 736.936 308.603C738.42 306.934 741.063 302.807 742.222 300.349C744.773 294.924 745.515 293.116 745.932 291.493C746.164 290.519 746.953 287.691 747.695 285.279C748.993 280.921 748.993 280.828 748.993 268.123C748.947 255.511 748.947 255.325 747.648 251.198C746.953 248.926 746.211 246.283 746.025 245.402C745.237 241.693 741.249 234.088 736.843 227.828C733.272 222.821 723.719 215.031 718.803 213.269C717.829 212.898 715.65 212.063 713.98 211.414C710.316 210.023 702.433 208.771 697.239 208.771C691.627 208.771 682.538 210.394 678.596 212.109C674.422 213.872 671.872 215.17 670.434 216.283C669.831 216.746 669.135 217.117 668.904 217.117C668.44 217.117 667.651 217.813 662.643 222.403C660.231 224.629 654.806 231.353 654.249 232.79C654.11 233.254 653.275 234.645 652.44 235.989C651.606 237.334 650.91 238.772 650.91 239.282C650.91 239.745 650.725 240.302 650.493 240.58C649.194 242.017 646.319 252.45 645.345 259.545C644.325 266.871 645.067 278.231 646.968 285.279C647.339 286.67 647.664 288.201 647.664 288.664C647.664 289.545 650.354 296.361 651.698 298.958C654.295 304.059 655.037 305.264 656.939 307.768C660.231 312.22 667.976 319.592 669.275 319.592C669.553 319.592 670.109 319.917 670.434 320.38C671.13 321.169 676.463 323.765 680.358 325.156C682.306 325.852 685.877 326.64 691.72 327.66C694.363 328.124 704.288 327.521 708.786 326.594Z" fill="#F3C083"/>
<path d="M573 268.355V204.134H577.174H581.348V268.355V332.575H577.174H573V268.355Z" fill="#F3C083"/>
<path d="M835.019 272.064V211.553H812.527H790.035V207.844V204.134H839.193H888.35V207.844V211.553H866.09H843.83V272.064V332.575H839.424H835.019V272.064Z" fill="#F3C083"/>
<path d="M905.972 332.112C905.972 331.88 906.39 330.767 906.9 329.701C908.152 326.872 911.027 319.778 912.001 316.996C912.465 315.697 913.392 313.472 914.042 311.988C914.691 310.55 915.247 309.159 915.247 308.927C915.247 308.696 915.897 307.073 916.685 305.357C917.473 303.641 918.401 301.323 918.818 300.164C919.189 299.005 919.978 297.011 920.581 295.712C921.137 294.46 921.879 292.559 922.204 291.539C922.528 290.519 923.409 288.432 924.105 286.949C924.847 285.418 925.45 283.935 925.45 283.61C925.45 283.285 926.099 281.616 926.888 279.854C927.676 278.139 928.603 275.867 928.928 274.846C929.67 272.667 932.731 265.202 934.447 261.446C935.096 260.008 935.652 258.617 935.652 258.339C935.652 258.107 936.394 256.067 937.322 253.841C941.496 243.779 942.099 242.342 942.377 241.322C942.562 240.719 943.397 238.679 944.278 236.778C945.159 234.877 945.855 233.022 945.855 232.697C945.855 232.373 946.133 231.492 946.504 230.75C947.664 228.339 948.962 225.232 949.333 224.073C949.519 223.423 950.307 221.615 951.002 219.992C951.744 218.416 952.347 216.885 952.347 216.607C952.347 216.375 952.765 215.216 953.275 214.057C955.13 209.93 955.918 208.029 956.521 206.128L957.124 204.134H961.854H966.584L968.068 207.38C968.857 209.188 969.506 210.858 969.506 211.136C969.506 211.414 970.063 212.805 970.712 214.242C971.361 215.68 972.381 218.23 972.984 219.899C974.097 223.053 975.164 225.788 977.529 231.26C978.271 233.068 979.384 235.85 979.94 237.52C981.1 240.812 982.259 243.779 984.624 249.251C985.505 251.245 986.201 253.192 986.201 253.517C986.201 253.841 986.897 255.65 987.778 257.551C988.613 259.406 989.447 261.446 989.633 262.095C989.818 262.744 990.653 264.923 991.488 266.964C994.363 273.919 995.105 275.774 995.986 278.324C996.496 279.715 997.099 281.292 997.331 281.802C998.815 285.048 999.65 287.134 999.65 287.551C999.65 287.83 1000.35 289.638 1001.23 291.632C1002.11 293.626 1003.17 296.269 1003.59 297.567C1004.06 298.819 1004.89 300.952 1005.49 302.297C1006.1 303.595 1006.61 304.893 1006.61 305.172C1006.61 305.403 1007.35 307.304 1008.23 309.345C1009.11 311.339 1009.85 313.286 1009.85 313.564C1009.85 313.889 1010.59 315.697 1011.48 317.598C1012.36 319.499 1013.24 321.632 1013.42 322.328C1013.56 322.977 1014.3 324.878 1015.09 326.548C1015.83 328.217 1016.53 330.257 1016.67 331.092L1016.95 332.575H1012.31H1007.67L1007.07 330.628C1006.75 329.515 1005.82 327.011 1004.94 325.017C1004.06 323.023 1003.36 321.076 1003.36 320.705C1003.36 320.38 1002.8 318.897 1002.15 317.413C1001.46 315.929 1000.58 313.564 1000.11 312.173C999.65 310.782 998.63 307.954 997.795 305.913C994.27 297.242 993.157 294.275 993.157 293.765C993.157 293.44 992.415 291.632 991.534 289.638C990.653 287.691 989.911 285.789 989.911 285.465C989.911 284.955 989.308 283.471 987.129 278.556C986.758 277.721 985.83 275.125 983.326 268.123C982.862 266.732 981.981 264.553 981.378 263.254C980.775 262.002 980.172 260.426 979.987 259.777C979.523 258.2 976.277 249.761 974.329 245.078C973.448 242.991 972.752 241.044 972.752 240.765C972.752 240.441 972.01 238.54 971.129 236.453C970.248 234.413 969.506 232.465 969.506 232.141C969.506 231.816 968.903 230.193 968.115 228.524C967.373 226.808 966.445 224.444 966.074 223.238C965.703 222.032 964.915 219.899 964.312 218.508C963.663 217.117 963.014 215.541 962.828 215.031C962.55 214.289 962.179 214.706 960.88 217.488C959.999 219.389 959.304 221.151 959.304 221.522C959.304 221.847 958.469 223.934 957.449 226.113C956.428 228.292 955.594 230.332 955.594 230.611C955.594 231.074 954.712 233.346 950.678 242.945C949.797 245.031 949.101 246.979 949.101 247.257C949.101 247.489 948.684 248.602 948.174 249.715C947.2 251.801 944 259.777 942.516 263.95C942.006 265.341 940.986 267.798 940.244 269.421C939.502 271.044 938.899 272.621 938.899 272.992C938.899 273.316 938.157 275.171 937.276 277.072C936.394 278.973 935.652 280.782 935.652 281.106C935.652 281.431 934.818 283.564 933.797 285.836C932.777 288.154 931.942 290.287 931.942 290.565C931.942 290.89 931.386 292.281 930.737 293.672C930.041 295.063 929.114 297.428 928.603 298.912C928.093 300.442 927.212 302.714 926.563 304.012C925.96 305.264 925.45 306.563 925.45 306.887C925.45 307.165 924.615 309.298 923.595 311.617C922.575 313.889 921.74 315.975 921.74 316.254C921.74 316.486 920.998 318.294 920.117 320.241C919.236 322.235 918.494 324.09 918.494 324.415C918.494 324.786 917.705 326.733 916.778 328.82L915.062 332.575H910.517C907.874 332.575 905.972 332.39 905.972 332.112Z" fill="#F3C083"/>
</svg>
