<svg width="536" height="536" viewBox="0 0 536 536" fill="none" xmlns="http://www.w3.org/2000/svg">
<circle cx="268" cy="268" r="180" fill="#F3C083"/>
<path d="M279.034 390.711C268.344 383.029 273.25 366.832 286.254 366.832C293.936 366.832 299.443 372.339 299.443 379.975C299.443 382.983 299.351 383.353 296.991 387.657C296.574 388.398 295.047 389.786 293.612 390.758C291.021 392.516 291.021 392.516 286.3 392.516H281.533L279.034 390.711Z" fill="white"/>
<path d="M232.571 387.888C229.979 386.454 228.035 384.51 226.786 382.011C225.305 379.003 225.629 374.375 227.526 371.598C231.136 366.369 237.893 364.657 242.567 367.757C243.539 368.405 244.557 368.914 244.834 368.914C245.112 368.914 245.667 369.655 246.084 370.534C246.5 371.413 247.01 372.154 247.195 372.154C247.38 372.154 247.796 373.218 248.074 374.514C249.277 379.512 247.565 384.14 243.4 386.963C241.317 388.351 240.577 388.583 237.708 388.721C235.023 388.86 234.098 388.675 232.571 387.888Z" fill="white"/>
<path d="M338.688 384.047C332.162 381.595 328.645 376.967 328.229 370.21C328.09 367.526 328.229 366.091 328.876 364.333C329.339 363.037 329.895 361.972 330.08 361.972C330.265 361.972 330.45 361.648 330.45 361.232C330.45 360.399 334.198 356.697 336.003 355.771C340.4 353.503 348.36 353.92 351.877 356.604C352.941 357.391 354.654 359.103 355.672 360.399C357.338 362.389 357.708 363.268 358.171 366.23C359.42 373.866 356.412 380.16 350.118 383.075C346.833 384.649 341.511 385.065 338.688 384.047Z" fill="white"/>
<path d="M254.183 369.562C251.267 368.127 249.786 366.322 248.768 362.759C247.75 359.288 248.583 354.383 250.48 352.346C255.617 346.793 262.652 346.654 267.789 351.93C269.362 353.596 269.779 354.383 270.195 356.835C271.213 362.666 269.27 367.063 264.642 369.423C261.125 371.182 257.7 371.228 254.183 369.562Z" fill="white"/>
<path d="M302.081 365.397C299.397 364.425 297.546 362.759 295.741 359.844C294.26 357.345 294.121 356.882 294.121 353.411C294.121 350.356 294.353 349.246 295.232 347.533C298.379 341.378 305.552 338.648 312.031 341.193C314.854 342.304 317.029 344.201 318.788 347.163C319.852 348.968 319.991 349.755 320.037 353.179C320.037 356.928 319.945 357.298 318.417 359.844C316.566 362.852 314.761 364.425 311.892 365.443C309.439 366.276 304.488 366.276 302.081 365.397Z" fill="white"/>
<path d="M214.892 364.518C210.958 362.805 208.413 358.316 209.015 354.244C209.755 349.246 214.614 345.405 219.52 345.914C227.387 346.7 231.321 355.91 226.369 361.834C224.426 364.148 222.158 365.212 219.196 365.212C217.623 365.166 215.679 364.888 214.892 364.518Z" fill="white"/>
<path d="M237.43 346.562C234.468 345.127 233.311 344.063 232.385 341.98C229.007 334.205 234.977 326.384 243.168 327.911C245.667 328.374 249.138 331.382 249.833 333.65C250.666 336.427 250.527 339.851 249.509 342.211C248.259 345.081 244.696 347.163 241.086 347.163C239.698 347.117 238.078 346.886 237.43 346.562Z" fill="white"/>
<path d="M274.962 342.952C270.103 340.545 268.113 335.918 269.362 330.04C270.056 326.754 272 324.348 275.332 322.636C278.572 321.016 284.68 321.617 286.485 323.746C286.809 324.163 287.318 324.487 287.596 324.487C289.077 324.533 291.113 329.439 291.113 333.002C291.113 336.704 289.956 339.527 287.688 341.378C283.616 344.71 279.497 345.22 274.962 342.952Z" fill="white"/>
<path d="M204.387 341.61C201.749 340.823 199.019 336.612 199.019 333.372C199.019 331.475 200.87 328.328 202.721 327.032C206.238 324.579 210.357 324.996 213.782 328.143L215.679 329.901V333.604C215.679 337.167 215.633 337.352 214.059 339.203C211.792 341.841 208.182 342.72 204.387 341.61Z" fill="white"/>
<path d="M315.641 326.384C314.067 324.857 313.558 323.237 313.975 321.108C314.576 317.869 318.603 316.157 322.166 317.684C324.295 318.563 325.313 321.525 324.434 324.255C323.554 326.893 322.351 327.726 319.436 327.726C317.307 327.726 316.751 327.541 315.641 326.384Z" fill="white"/>
<path d="M227.619 324.024C220.862 321.988 219.52 312.084 225.49 308.567C230.858 305.42 237.337 308.659 238.17 314.861C238.448 316.666 238.263 317.499 237.245 319.581C236.227 321.71 235.625 322.312 233.635 323.283C231.182 324.533 229.794 324.672 227.619 324.024Z" fill="white"/>
<path d="M329.247 321.988C327.442 320.229 327.21 319.72 327.21 317.961C327.21 314.213 329.895 311.529 333.643 311.529C335.679 311.529 336.235 311.76 337.808 313.148C340.77 315.833 340.77 319.165 337.854 322.219C336.281 323.885 335.957 324.024 333.689 324.024C331.422 324.024 331.098 323.885 329.247 321.988Z" fill="white"/>
<path d="M202.258 321.479C202.258 321.016 201.795 320.784 200.916 320.784C199.944 320.784 199.065 320.229 197.445 318.47C195.548 316.434 195.316 315.971 195.316 313.981C195.316 311.251 196.52 308.798 198.51 307.641C200.453 306.531 204.294 306.438 206.469 307.502C209.339 308.937 210.542 313.519 208.968 317.221C208.274 318.933 205.775 320.784 204.156 320.784C203.6 320.784 203.184 321.062 203.184 321.479C203.184 321.849 202.999 322.173 202.721 322.173C202.489 322.173 202.258 321.849 202.258 321.479Z" fill="white"/>
<path d="M258.625 320.368C256.635 319.72 253.581 317.082 252.887 315.37C252.1 313.565 252.1 308.613 252.841 306.531C253.535 304.633 256.913 301.949 259.042 301.533C262.281 300.931 265.382 301.533 267.465 303.199C272.463 307.225 272.463 314.814 267.418 318.702C265.614 320.137 264.781 320.414 262.559 320.599C261.078 320.692 259.32 320.553 258.625 320.368Z" fill="white"/>
<path d="M344.889 314.768C342.76 313.472 341.557 311.251 341.557 308.613C341.557 306.114 341.973 305.142 343.686 303.43C348.082 299.033 355.903 302.227 355.903 308.382C355.903 310.973 354.237 314.074 352.34 314.953C350.165 315.971 346.786 315.925 344.889 314.768Z" fill="white"/>
<path d="M302.59 312.038C300.785 310.372 300.647 310.094 300.647 307.641C300.6 305.096 300.693 304.911 302.544 303.152C304.303 301.533 304.719 301.347 306.987 301.347C309.254 301.347 309.625 301.533 311.198 303.06C314.16 306.022 314.114 309.261 311.059 312.13C309.393 313.658 308.93 313.843 306.848 313.843C304.765 313.843 304.303 313.658 302.59 312.038Z" fill="white"/>
<path d="M318.094 304.587C317.261 304.124 316.15 302.828 315.594 301.764C312.586 295.84 318.51 289.315 324.758 291.675C327.396 292.647 329.062 295.239 329.062 298.339C329.062 301.162 327.627 303.754 325.544 304.772C323.323 305.79 319.945 305.744 318.094 304.587Z" fill="white"/>
<path d="M224.287 303.43C224.148 303.06 223.685 302.736 223.269 302.736C220.77 302.736 217.576 298.802 217.53 295.701C217.484 290.657 222.76 287.047 227.526 288.852C230.812 290.102 232.941 294.313 231.923 297.645C231.275 299.82 228.961 302.18 227.11 302.597C226.369 302.736 225.675 303.152 225.536 303.476C225.212 304.309 224.657 304.309 224.287 303.43Z" fill="white"/>
<path d="M363.308 303.661C363.308 303.245 362.382 302.643 361.04 302.134C357.106 300.746 354.561 296.673 355.255 292.971C355.764 290.194 357.754 287.603 359.976 286.723C363.724 285.335 368.491 286.353 370.435 288.991C371.268 290.102 371.406 290.981 371.406 294.498V298.663L369.555 300.237C368.537 301.116 367.01 301.995 366.131 302.227C365.298 302.504 364.326 303.06 363.956 303.522C363.447 304.17 363.354 304.217 363.308 303.661Z" fill="white"/>
<path d="M198.695 301.255C197.167 300.19 195.779 297.506 195.779 295.748C195.779 294.498 196.844 292.554 198.232 291.259C199.481 290.102 202.628 289.685 205.127 290.379C207.904 291.12 209.663 296.118 208.136 298.895C206.331 302.134 201.61 303.291 198.695 301.255Z" fill="white"/>
<path d="M285.93 300.561C284.125 300.283 281.811 297.182 281.533 294.637C281.348 293.156 281.533 292.092 282.366 290.472C283.894 287.417 284.68 287.001 288.845 287.001H292.409L294.075 288.945C296.389 291.629 296.528 295.192 294.445 298.2C292.779 300.561 290.373 301.209 285.93 300.561Z" fill="white"/>
<path d="M245.205 295.655C243.168 293.897 242.521 292.369 242.521 289.408C242.521 287.047 243.307 283.762 243.816 283.762C244.001 283.762 244.696 283.252 245.39 282.605C247.334 280.846 250.295 280.244 253.072 281.17C258.672 283.067 260.801 289.731 257.237 294.313C255.155 296.997 254.692 297.182 250.666 297.182C247.102 297.182 246.824 297.09 245.205 295.655Z" fill="white"/>
<path d="M147.881 293.387C145.243 292.462 141.726 289.685 139.921 287.094C138.162 284.548 138.162 284.502 138.023 279.411C137.885 274.228 138.347 271.868 139.875 270.248C140.198 269.924 140.846 269.091 141.263 268.397C142.096 267.147 142.744 266.685 146.955 264.556C150.287 262.89 155.008 262.936 158.802 264.602C160.33 265.296 161.533 266.037 161.533 266.222C161.533 266.453 161.811 266.638 162.135 266.638C162.875 266.638 164.772 268.582 164.772 269.323C164.772 269.646 164.958 269.878 165.189 269.878C165.374 269.878 166.114 271.081 166.809 272.608C168.845 277.144 168.29 283.854 165.605 286.816C165.143 287.325 164.772 287.973 164.772 288.251C164.772 289.084 160.654 292.184 158.247 293.063C155.702 294.035 150.241 294.22 147.881 293.387Z" fill="white"/>
<path d="M336.466 293.387C336.466 292.925 335.772 292.416 334.754 292.045C329.108 290.24 326.979 284.733 329.848 279.55C331.329 276.958 333.504 275.894 337.16 275.894C341.511 275.94 344.38 278.393 344.981 282.604C345.398 285.335 343.963 290.24 342.76 290.24C342.482 290.24 341.742 290.657 341.094 291.166C340.446 291.675 339.567 292.092 339.15 292.092C338.688 292.092 337.947 292.554 337.392 293.11C336.651 293.896 336.466 293.989 336.466 293.387Z" fill="white"/>
<path d="M300.137 287.14C297.685 286.492 295.324 282.604 295.278 279.226C295.232 272.701 302.729 268.721 308.19 272.331C312.54 275.2 313.095 281.494 309.439 285.474C308.005 287.047 307.773 287.14 304.488 287.279C302.59 287.325 300.646 287.279 300.137 287.14Z" fill="white"/>
<path d="M202.397 286.214C199.805 283.854 199.25 280.985 200.87 278.347C202.582 275.478 207.488 275.339 209.663 278.069C211.653 280.615 211.421 283.021 208.968 285.474C207.719 286.723 207.117 287.001 205.405 287.001C204.063 287.001 202.999 286.723 202.397 286.214Z" fill="white"/>
<path d="M221.325 283.53C218.872 282.466 217.761 278.532 218.918 275.107C219.613 273.164 222.621 271.544 224.981 271.868C228.498 272.331 230.627 274.645 230.627 277.93C230.627 282.836 226.045 285.566 221.325 283.53Z" fill="white"/>
<path d="M373.859 283.114C372.054 282.466 369.37 280.429 368.445 278.948C367.658 277.792 367.288 273.719 367.658 271.081C368.306 267.009 373.304 263.491 377.793 264C386.447 265.065 389.594 275.848 382.884 281.401C380.107 283.715 377.099 284.271 373.859 283.114Z" fill="white"/>
<path d="M245.297 276.82C245.297 276.588 244.834 276.357 244.233 276.357C242.613 276.357 239.836 274.182 239.05 272.331C236.875 267.147 240.068 262.01 245.436 262.01C249.694 262.01 252.702 265.019 252.702 269.323C252.702 271.729 252.609 271.96 250.434 274.089C249.185 275.385 247.796 276.357 247.195 276.357C246.686 276.357 246.223 276.588 246.223 276.82C246.223 277.097 246.038 277.282 245.76 277.282C245.529 277.282 245.297 277.097 245.297 276.82Z" fill="white"/>
<path d="M347.434 272.932C344.935 272.238 342.251 269.97 341.279 267.703C340.261 265.296 340.446 260.715 341.696 258.678C343.732 255.3 347.527 253.403 351.322 253.819C357.245 254.513 361.086 260.668 359.374 266.546C357.847 271.636 352.802 274.321 347.434 272.932Z" fill="white"/>
<path d="M179.859 267.425C176.759 266.222 174.074 263.538 172.593 260.252C171.251 257.198 171.39 252.57 172.917 249.7C175.648 244.517 178.887 242.573 184.811 242.573C189.393 242.573 190.596 242.944 193.049 245.026C196.751 248.219 198.417 252.153 197.954 256.642C197.075 265.343 188.097 270.665 179.859 267.425Z" fill="white"/>
<path d="M312.633 267.703C308.375 265.481 306.154 260.807 307.264 256.55C307.866 254.467 310.18 251.366 312.031 250.256C313.605 249.284 319.76 249.238 321.611 250.209C323.323 251.089 325.73 254.328 326.331 256.642C327.442 260.715 325.313 265.435 321.564 267.379C318.973 268.721 314.808 268.86 312.633 267.703Z" fill="white"/>
<path d="M381.819 256.966C378.163 255.485 375.386 251.135 375.34 246.924C375.34 242.944 377.238 239.427 380.616 237.159C382.328 236.002 382.93 235.909 386.725 235.909C391.306 235.863 392.463 236.326 394.962 239.056C397.785 242.157 398.803 247.155 397.323 250.719C396.49 252.709 393.481 256.457 392.695 256.457C392.371 256.457 391.491 256.781 390.797 257.151C388.992 258.077 384.411 257.984 381.819 256.966Z" fill="white"/>
<path d="M212.347 252.801C210.542 252.431 207.164 249.747 205.96 247.71C205.451 246.831 205.266 245.165 205.266 241.833V237.159L207.025 235.03C210.125 231.235 215.355 229.986 220.446 231.791C227.896 234.475 229.424 245.073 223.176 250.672C220.584 252.986 217.021 253.68 212.347 252.801Z" fill="white"/>
<path d="M285.143 250.348C282.366 248.867 281.302 246.785 281.487 243.499C281.719 240.352 282.737 238.779 285.467 237.437C290.326 235.03 295.741 238.64 295.741 244.332C295.741 247.664 292.687 250.857 289.216 251.228C287.688 251.366 286.67 251.181 285.143 250.348Z" fill="white"/>
<path d="M355.718 246.97C352.941 245.998 351.738 244.887 350.165 241.879C347.388 236.604 348.776 230.634 353.497 227.255C355.533 225.774 355.811 225.728 359.837 225.728C362.891 225.728 364.372 225.913 365.39 226.468C367.334 227.579 369.648 230.124 370.481 232.068C371.36 234.151 371.407 238.871 370.527 240.861C369.602 243.129 366.547 246.091 364.326 246.924C361.919 247.849 358.171 247.849 355.718 246.97Z" fill="white"/>
<path d="M242.289 246.415C241.78 246.322 240.901 246.137 240.345 246.044C238.772 245.674 236.458 243.499 235.532 241.416C233.913 237.899 234.792 232.161 237.291 230.032C238.726 228.782 242.289 227.302 243.863 227.302C247.935 227.302 252.1 229.986 253.072 233.225C255.525 241.324 249.971 248.081 242.289 246.415Z" fill="white"/>
<path d="M266.169 246.276C264.549 246.044 263.716 245.535 262.513 244.147C260.615 241.972 260.106 240.769 260.106 238.408C260.106 236.094 260.801 234.336 262.328 232.67C264.04 230.865 266.076 230.078 269.038 230.078C271.167 230.078 271.815 230.31 273.666 231.744C276.211 233.734 276.952 235.585 276.674 239.38C276.489 241.833 276.258 242.342 274.684 243.962C273.712 244.98 272.555 245.906 272.185 245.998C270.38 246.461 268.02 246.6 266.169 246.276Z" fill="white"/>
<path d="M322.721 242.62C318.834 241.602 315.548 236.696 315.548 231.929C315.548 225.219 320.084 220.823 326.979 220.823C331.052 220.823 334.337 222.766 336.744 226.561C337.855 228.366 337.947 235.169 336.836 237.251C335.957 238.825 333.504 241.278 331.931 242.111C330.542 242.805 324.711 243.129 322.721 242.62Z" fill="white"/>
<path d="M167.318 236.28C164.726 235.354 162.32 233.271 160.839 230.634C159.867 228.968 159.497 227.625 159.311 224.895C159.126 221.655 159.219 221.1 160.468 218.416C161.394 216.472 162.505 214.945 163.754 213.973C168.799 209.993 176.851 210.225 181.201 214.529C184.302 217.583 185.135 219.666 185.135 224.062C185.135 228.458 184.256 230.634 181.201 233.642C178.054 236.742 171.899 237.899 167.318 236.28Z" fill="white"/>
<path d="M288.799 227.163C285.236 225.913 283.986 221.1 286.3 217.583C287.365 215.963 287.735 215.778 290.002 215.454C291.761 215.269 293.103 215.362 294.26 215.824C295.741 216.38 296.065 216.796 296.805 218.879C297.962 222.396 297.268 224.849 294.677 226.515C292.594 227.857 291.298 227.996 288.799 227.163Z" fill="white"/>
<path d="M199.111 221.517C196.566 220.406 194.576 218.601 193.28 216.148C192.123 214.066 191.984 213.418 192.123 210.225C192.308 206.893 192.447 206.476 194.067 204.394C196.705 200.969 198.972 199.812 203.184 199.812C206.238 199.766 206.932 199.951 209.2 201.247C217.206 205.875 215.771 218.647 206.932 221.656C204.803 222.396 200.962 222.303 199.111 221.517Z" fill="white"/>
<path d="M272.139 219.064C269.871 217.953 268.761 215.408 268.992 211.937C269.316 207.633 272.139 205.273 276.628 205.643C278.849 205.828 279.405 206.106 281.024 207.772C282.69 209.392 282.968 209.947 283.107 212.122C283.431 216.657 280.423 219.851 275.841 219.851C274.684 219.851 273.018 219.48 272.139 219.064Z" fill="white"/>
<path d="M359.605 215.408C357.615 215.084 354.006 211.983 352.479 209.253C351.183 206.985 351.044 206.291 351.044 203.005C351.044 198.933 351.553 197.544 354.376 194.166C356.551 191.482 359.837 190.094 364.002 190.094C369.787 190.094 373.674 192.639 376.173 198.053C377.099 200.09 377.238 201.062 377.099 203.607C377.006 205.319 376.543 207.541 376.034 208.559C374.785 211.104 371.036 214.667 368.954 215.269C367.334 215.686 362.058 215.778 359.605 215.408Z" fill="white"/>
<path d="M227.156 214.76C225.351 213.742 223.037 211.104 222.621 209.623C221.464 205.597 222.852 199.303 225.027 198.701C225.49 198.609 225.86 198.377 225.86 198.192C225.86 197.405 229.331 196.295 231.784 196.295C237.245 196.341 241.132 200.321 241.132 205.921C241.132 208.975 239.975 211.382 237.384 213.603C235.486 215.223 235.301 215.269 231.691 215.269C229.609 215.269 227.573 215.038 227.156 214.76Z" fill="white"/>
<path d="M251.452 214.39C250.666 213.881 249.416 212.539 248.768 211.335C247.704 209.531 247.519 208.836 247.704 206.522C248.074 201.617 251.869 198.331 256.682 198.701C262.281 199.164 265.475 204.486 263.577 210.178C262.42 213.696 260.06 215.269 255.988 215.269C253.766 215.269 252.517 215.038 251.452 214.39Z" fill="white"/>
<path d="M326.053 210.734C322.814 209.438 320.361 207.032 318.603 203.468C317.538 201.2 317.399 200.506 317.584 197.683C317.77 195.092 318.14 193.935 319.389 191.852C320.269 190.417 321.611 188.844 322.351 188.289C323.138 187.733 323.832 187.178 323.971 186.947C324.526 186.206 328.367 185.188 330.635 185.188C333.504 185.188 336.975 186.299 338.132 187.548C338.549 188.011 339.197 188.427 339.567 188.427C339.891 188.427 340.354 188.798 340.492 189.261C340.678 189.677 341.279 190.649 341.834 191.343C343.177 192.963 343.871 195.369 343.871 198.424C343.871 200.691 342.853 204.532 342.112 205.088C341.927 205.227 341.233 206.06 340.585 206.939C339.891 207.865 338.086 209.207 336.466 210.086C334.106 211.289 333.042 211.567 330.728 211.521C329.154 211.521 327.072 211.197 326.053 210.734Z" fill="white"/>
<path d="M295.186 208.096C292.779 206.754 291.9 203.422 293.196 200.367C293.705 199.025 294.214 198.655 295.972 198.146C298.518 197.406 301.433 198.146 302.544 199.812C305.737 204.671 300.276 210.826 295.186 208.096Z" fill="white"/>
<path d="M283.153 198.331C281.441 197.452 280.469 195.416 280.469 192.963C280.515 189.214 282.783 187.039 286.717 187.039C290.65 187.039 292.918 189.214 292.964 192.963C292.964 195.462 291.946 197.452 290.188 198.377C288.475 199.257 284.773 199.257 283.153 198.331Z" fill="white"/>
<path d="M194.159 192.87C191.012 191.389 189.069 189.168 188.189 186.16C187.264 182.967 187.264 182.411 188.282 178.987C189.67 174.174 193.604 171.304 198.787 171.304C202.073 171.304 204.572 172.369 206.886 174.637C209.524 177.228 210.588 181.949 209.478 185.882C208.459 189.307 206.146 191.806 202.906 193.055C199.574 194.259 197.029 194.212 194.159 192.87Z" fill="white"/>
<path d="M267.789 191.112C266.261 190.232 264.781 188.289 264.271 186.438C262.698 180.884 267.65 176.303 273.62 177.83C275.517 178.339 276.119 178.755 277.229 180.514C279.451 183.8 279.081 186.854 276.165 189.955C274.638 191.574 274.453 191.667 271.63 191.667C270.01 191.667 268.251 191.389 267.789 191.112Z" fill="white"/>
<path d="M224.426 187.039C220.122 185.743 217.53 182.18 217.53 177.506C217.53 174.127 218.78 171.767 221.603 169.592C223.454 168.204 223.87 168.065 226.925 168.065C230.534 168.111 231.367 168.435 233.913 170.703C235.949 172.6 236.689 175.192 236.365 179.033C236.041 182.365 235.301 183.661 232.848 185.373C230.025 187.317 227.202 187.918 224.426 187.039Z" fill="white"/>
<path d="M248.768 186.947C245.158 185.651 243.03 182.596 242.983 178.616C242.983 176.256 243.168 175.793 244.834 173.711C246.5 171.536 246.824 171.351 249.231 171.073C253.165 170.564 255.571 171.073 257.191 172.832C259.227 174.96 259.644 176.025 259.644 178.94C259.644 181.995 258.903 183.568 256.635 185.327C253.998 187.409 251.499 187.918 248.768 186.947Z" fill="white"/>
<path d="M321.611 173.433C317.446 171.952 314.484 169.176 312.54 165.057C309.81 159.133 311.522 151.451 316.428 147.378C320.13 144.278 321.009 144 326.655 144H331.699L334.43 145.759C339.428 148.998 341.557 152.885 341.557 158.717C341.557 162.234 340.492 166.167 339.15 167.648C338.641 168.25 337.901 169.176 337.577 169.731C337.207 170.24 335.402 171.443 333.551 172.369C330.496 173.896 329.756 174.081 326.701 174.081C324.804 174.035 322.536 173.757 321.611 173.433Z" fill="white"/>
<circle cx="268" cy="24" r="24" fill="#F3C083"/>
<circle cx="512" cy="268" r="24" transform="rotate(90 512 268)" fill="#F3C083"/>
<circle cx="95.466" cy="95.4659" r="24" transform="rotate(-45 95.466 95.4659)" fill="#F3C083"/>
<circle cx="440.534" cy="95.466" r="24" transform="rotate(45 440.534 95.466)" fill="#F3C083"/>
<circle cx="268" cy="512" r="24" fill="#F3C083"/>
<circle cx="24" cy="268" r="24" transform="rotate(90 24 268)" fill="#F3C083"/>
<circle cx="440.534" cy="440.534" r="24" transform="rotate(-45 440.534 440.534)" fill="#F3C083"/>
<circle cx="95.4659" cy="440.534" r="24" transform="rotate(45 95.4659 440.534)" fill="#F3C083"/>
</svg>
