<svg width="447" height="203" viewBox="0 0 447 203" fill="none" xmlns="http://www.w3.org/2000/svg">
<path fill-rule="evenodd" clip-rule="evenodd" d="M266.045 63.4998C266.045 87.0544 246.951 106.149 223.396 106.149C199.842 106.149 180.747 87.0544 180.747 63.4998C180.747 39.9453 199.842 20.8506 223.396 20.8506C246.951 20.8506 266.045 39.9453 266.045 63.4998ZM226.011 92.5753C223.478 90.755 224.64 86.9172 227.721 86.9172C229.541 86.9172 230.846 88.222 230.846 90.0313C230.846 90.7441 230.824 90.8318 230.265 91.8515C230.166 92.027 229.805 92.3559 229.465 92.5862C229.215 92.7557 229.067 92.8562 228.904 92.9158C228.666 93.0029 228.396 93.0029 227.732 93.0029H226.603L226.011 92.5753ZM213.631 90.5137C213.927 91.1058 214.387 91.5664 215.001 91.9063C215.363 92.0927 215.583 92.1366 216.219 92.1037C216.898 92.0708 217.074 92.016 217.567 91.687C218.554 91.0181 218.96 89.9216 218.675 88.7373C218.609 88.4303 218.51 88.1781 218.467 88.1781C218.423 88.1781 218.302 88.0027 218.203 87.7943C218.105 87.586 217.973 87.4105 217.907 87.4105C217.841 87.4105 217.6 87.2899 217.37 87.1364C216.262 86.4017 214.662 86.8075 213.806 88.0465C213.357 88.7045 213.28 89.801 213.631 90.5137ZM240.145 90.9962C238.599 90.415 237.765 89.3185 237.667 87.7176C237.634 87.0816 237.667 86.7416 237.82 86.325C237.93 86.0179 238.061 85.7657 238.105 85.7657C238.149 85.7657 238.193 85.689 238.193 85.5903C238.193 85.3929 239.081 84.5157 239.509 84.2964C240.551 83.7591 242.437 83.8578 243.27 84.4938C243.522 84.6802 243.928 85.0859 244.169 85.3929C244.564 85.8644 244.652 86.0728 244.761 86.7745C245.057 88.5838 244.345 90.0751 242.853 90.7659C242.075 91.1387 240.814 91.2374 240.145 90.9962ZM218.839 85.9523C219.081 86.7966 219.431 87.2242 220.122 87.5642C220.956 87.9589 221.767 87.9479 222.6 87.5313C223.697 86.972 224.157 85.9303 223.916 84.5487C223.818 83.9676 223.719 83.7811 223.346 83.3864C222.129 82.1364 220.462 82.1692 219.245 83.4851C218.795 83.9676 218.598 85.1299 218.839 85.9523ZM231.471 86.5773C230.835 86.3471 230.397 85.9523 229.969 85.2615C229.618 84.6694 229.585 84.5597 229.585 83.7373C229.585 83.0136 229.64 82.7504 229.848 82.3447C230.594 80.8863 232.294 80.2394 233.829 80.8425C234.498 81.1057 235.013 81.5552 235.43 82.257C235.682 82.6847 235.715 82.8711 235.726 83.6825C235.726 84.5707 235.704 84.6584 235.342 85.2615C234.903 85.9742 234.476 86.3471 233.796 86.5883C233.215 86.7857 232.041 86.7857 231.471 86.5773ZM209.42 83.9346C209.278 84.8995 209.881 85.9631 210.813 86.3689C210.999 86.4566 211.46 86.5224 211.832 86.5333C212.534 86.5333 213.072 86.2811 213.532 85.7329C214.705 84.3293 213.773 82.1472 211.909 81.9608C210.747 81.8402 209.596 82.7503 209.42 83.9346ZM216.153 82.1145C215.451 81.7746 215.177 81.5224 214.958 81.029C214.157 79.1868 215.572 77.3337 217.513 77.6955C218.105 77.8052 218.927 78.5179 219.092 79.0552C219.289 79.7131 219.256 80.5246 219.015 81.0838C218.719 81.7636 217.874 82.2571 217.019 82.2571C216.69 82.2461 216.306 82.1913 216.153 82.1145ZM223.719 78.1999C223.423 79.5925 223.894 80.6891 225.046 81.2592C226.12 81.7965 227.096 81.6759 228.061 80.8864C228.598 80.4478 228.873 79.7789 228.873 78.9017C228.873 78.0574 228.39 76.8951 228.039 76.8841C227.973 76.8841 227.853 76.8073 227.776 76.7087C227.348 76.2043 225.901 76.0617 225.133 76.4455C224.344 76.8512 223.883 77.4214 223.719 78.1999ZM208.324 80.9411C207.699 80.7547 207.052 79.7569 207.052 78.9893C207.052 78.5398 207.49 77.7941 207.929 77.4871C208.762 76.9059 209.738 77.0046 210.55 77.7503L210.999 78.1669V79.0442C210.999 79.8885 210.988 79.9323 210.615 80.371C210.078 80.996 209.223 81.2043 208.324 80.9411ZM234.289 76.0834C234.191 76.5878 234.311 76.9716 234.684 77.3335C234.947 77.6076 235.079 77.6515 235.583 77.6515C236.274 77.6515 236.559 77.4541 236.767 76.8291C236.976 76.1821 236.735 75.4803 236.23 75.272C235.386 74.9102 234.432 75.3159 234.289 76.0834ZM213.828 76.7744C212.227 76.2919 211.909 73.9453 213.324 73.112C214.596 72.3663 216.131 73.1339 216.328 74.6032C216.394 75.0309 216.35 75.2283 216.109 75.7217C215.868 76.2261 215.725 76.3687 215.254 76.5989C214.672 76.895 214.344 76.9279 213.828 76.7744ZM237.425 75.3379C237.425 75.7546 237.48 75.8752 237.908 76.2919C238.346 76.7414 238.423 76.7743 238.96 76.7743C239.498 76.7743 239.575 76.7414 239.947 76.3467C240.638 75.623 240.638 74.8335 239.936 74.1975C239.564 73.8685 239.432 73.8137 238.95 73.8137C238.061 73.8137 237.425 74.4497 237.425 75.3379ZM207.819 76.1712C207.819 76.0615 207.71 76.0067 207.501 76.0067C207.271 76.0067 207.063 75.8751 206.679 75.4584C206.229 74.976 206.174 74.8663 206.174 74.3948C206.174 73.7479 206.46 73.1667 206.931 72.8926C207.392 72.6294 208.302 72.6075 208.817 72.8597C209.497 73.1996 209.782 74.2852 209.409 75.1624C209.245 75.5681 208.653 76.0067 208.269 76.0067C208.137 76.0067 208.039 76.0725 208.039 76.1712C208.039 76.2589 207.995 76.3357 207.929 76.3357C207.874 76.3357 207.819 76.2589 207.819 76.1712ZM219.815 74.7239C219.98 75.1296 220.703 75.7546 221.175 75.9081C221.339 75.952 221.756 75.9849 222.107 75.963C222.633 75.9191 222.831 75.8533 223.258 75.5134C224.454 74.5923 224.454 72.794 223.269 71.84C222.776 71.4453 222.041 71.3027 221.274 71.4453C220.769 71.544 219.969 72.18 219.804 72.6295C219.629 73.123 219.629 74.2962 219.815 74.7239ZM241.614 74.5813C241.11 74.2743 240.825 73.748 240.825 73.123C240.825 72.5308 240.923 72.3006 241.329 71.8948C242.371 70.8531 244.224 71.6097 244.224 73.0681C244.224 73.6822 243.829 74.4169 243.38 74.6252C242.864 74.8664 242.064 74.8555 241.614 74.5813ZM231.131 72.8927C231.131 73.4739 231.164 73.5397 231.592 73.9344C231.998 74.3182 232.107 74.3621 232.601 74.3621C233.094 74.3621 233.204 74.3182 233.599 73.9563C234.322 73.2765 234.333 72.5089 233.631 71.8071C233.259 71.4453 233.171 71.4014 232.634 71.4014C232.096 71.4014 231.998 71.4453 231.581 71.8291C231.142 72.2458 231.12 72.2896 231.131 72.8927ZM235.265 72.169C235.068 72.0593 234.805 71.7523 234.673 71.5001C233.96 70.0965 235.364 68.5504 236.844 69.1096C237.469 69.3399 237.864 69.954 237.864 70.6886C237.864 71.3575 237.524 71.9716 237.031 72.2128C236.504 72.454 235.704 72.4431 235.265 72.169ZM212.797 71.7302C212.896 71.7302 213.006 71.807 213.039 71.8947C213.126 72.1031 213.258 72.1031 213.335 71.9057C213.368 71.8289 213.532 71.7302 213.708 71.6973C214.146 71.5987 214.694 71.0394 214.848 70.5241C215.089 69.7346 214.585 68.7367 213.806 68.4407C212.677 68.013 211.427 68.8683 211.438 70.0635C211.449 70.7982 212.205 71.7302 212.797 71.7302ZM245.978 71.9497C245.978 71.851 245.759 71.7085 245.441 71.5878C244.509 71.2589 243.906 70.2939 244.07 69.4167C244.191 68.7588 244.663 68.1447 245.189 67.9364C246.077 67.6074 247.206 67.8487 247.667 68.4737C247.864 68.7369 247.897 68.9452 247.897 69.7786V70.7654L247.459 71.1383C247.217 71.3466 246.856 71.5549 246.647 71.6098C246.45 71.6756 246.22 71.8071 246.132 71.9168C246.011 72.0703 245.989 72.0813 245.978 71.9497ZM206.284 70.0746C206.284 70.4913 206.613 71.1273 206.975 71.3795C207.666 71.862 208.784 71.5878 209.212 70.8203C209.574 70.1624 209.157 68.9781 208.499 68.8027C207.907 68.6382 207.161 68.7369 206.865 69.011C206.536 69.318 206.284 69.7786 206.284 70.0746ZM227.644 71.2148C227.217 71.149 226.668 70.4144 226.603 69.8113C226.559 69.4604 226.603 69.2082 226.8 68.8244C227.162 68.1007 227.348 68.002 228.335 68.002H229.179L229.574 68.4626C230.122 69.0985 230.155 69.9429 229.662 70.6556C229.267 71.2148 228.697 71.3684 227.644 71.2148ZM217.359 68.5723C217.359 69.2741 217.512 69.636 217.995 70.0527C218.379 70.3926 218.445 70.4145 219.289 70.4145C220.243 70.4145 220.352 70.3706 220.846 69.7347C221.69 68.6491 221.186 67.0701 219.859 66.6205C219.201 66.4012 218.499 66.5438 218.039 66.9604C217.874 67.114 217.71 67.2346 217.666 67.2346C217.545 67.2346 217.359 68.0131 217.359 68.5723ZM194.935 69.5154C194.31 69.2961 193.477 68.6382 193.049 68.0242C192.633 67.4215 192.632 67.4101 192.599 66.2066L192.599 66.2039C192.567 64.9758 192.676 64.4166 193.038 64.0328C193.115 63.956 193.268 63.7587 193.367 63.5942C193.564 63.2981 193.718 63.1885 194.716 62.6841C195.505 62.2893 196.624 62.3003 197.523 62.695C197.885 62.8595 198.17 63.035 198.17 63.0788C198.17 63.1336 198.236 63.1775 198.312 63.1775C198.488 63.1775 198.937 63.6381 198.937 63.8135C198.937 63.8903 198.981 63.9451 199.036 63.9451C199.08 63.9451 199.255 64.2302 199.42 64.592C199.902 65.6666 199.771 67.2566 199.135 67.9584C199.025 68.079 198.937 68.2325 198.937 68.2983C198.937 68.4957 197.961 69.2303 197.391 69.4387C196.788 69.6689 195.494 69.7128 194.935 69.5154ZM239.213 69.1974C239.454 69.2851 239.618 69.4058 239.618 69.5154C239.618 69.658 239.662 69.636 239.838 69.4496C239.969 69.318 240.145 69.2084 240.254 69.2084C240.353 69.2084 240.561 69.1097 240.715 68.9891C240.868 68.8685 241.044 68.7698 241.11 68.7698C241.395 68.7698 241.735 67.6075 241.636 66.9605C241.493 65.9627 240.814 65.3815 239.783 65.3705C238.917 65.3705 238.401 65.6227 238.05 66.2368C237.371 67.4649 237.875 68.7698 239.213 69.1974ZM231.011 68.035C230.43 67.8815 229.87 66.9604 229.859 66.16C229.848 64.6139 231.625 63.6708 232.919 64.5261C233.949 65.206 234.081 66.6973 233.215 67.6403C232.875 68.0131 232.82 68.035 232.041 68.0679C231.592 68.0789 231.131 68.0679 231.011 68.035ZM207.49 65.9517C207.106 66.5767 207.238 67.2565 207.852 67.8158C207.995 67.9364 208.247 68.0022 208.565 68.0022C208.971 68.0022 209.113 67.9364 209.409 67.6403C209.99 67.0592 210.045 66.489 209.574 65.8859C209.058 65.2389 207.896 65.2718 207.49 65.9517ZM212.337 67.1798C211.756 66.9276 211.493 65.9955 211.767 65.1841C211.931 64.7235 212.644 64.3397 213.203 64.4165C214.036 64.5262 214.541 65.0744 214.541 65.853C214.541 67.0153 213.455 67.6622 212.337 67.1798ZM247.196 66.0942C247.415 66.445 248.051 66.9275 248.478 67.081C249.246 67.3552 249.959 67.2236 250.617 66.6753C252.207 65.3595 251.461 62.8046 249.411 62.5524C248.347 62.4317 247.163 63.2651 247.009 64.2301C246.921 64.8551 247.009 65.82 247.196 66.0942ZM218.017 65.5898C218.017 65.535 217.907 65.4802 217.765 65.4802C217.381 65.4802 216.723 64.9648 216.537 64.5262C216.021 63.2981 216.778 62.0809 218.05 62.0809C219.059 62.0809 219.771 62.7937 219.771 63.8134C219.771 64.3836 219.749 64.4385 219.234 64.9429C218.938 65.2499 218.609 65.4802 218.466 65.4802C218.346 65.4802 218.236 65.535 218.236 65.5898C218.236 65.6556 218.192 65.6995 218.127 65.6995C218.072 65.6995 218.017 65.6556 218.017 65.5898ZM240.759 63.4296C240.989 63.9669 241.625 64.5042 242.217 64.6687C243.489 64.9976 244.684 64.3616 245.046 63.1554C245.452 61.7629 244.542 60.3045 243.138 60.14C242.239 60.0413 241.34 60.4909 240.858 61.2914C240.562 61.7738 240.518 62.8594 240.759 63.4296ZM202.512 63.3639C201.777 63.0788 201.141 62.4428 200.79 61.6643C200.472 60.9406 200.505 59.844 200.867 59.1642C201.514 57.9361 202.282 57.4755 203.685 57.4755C204.771 57.4755 205.056 57.5632 205.637 58.0567C206.514 58.8133 206.909 59.7453 206.799 60.809C206.591 62.8704 204.464 64.1314 202.512 63.3639ZM232.699 60.7871C232.436 61.7959 232.962 62.9034 233.971 63.4297C234.487 63.7038 235.474 63.6709 236.088 63.3529C236.976 62.8924 237.48 61.7739 237.217 60.809C237.074 60.2607 236.504 59.4932 236.099 59.2848C235.66 59.0545 234.202 59.0655 233.829 59.2958C233.39 59.5589 232.842 60.2936 232.699 60.7871ZM250.364 60.8857C249.498 60.5348 248.84 59.5041 248.829 58.5063C248.829 57.5632 249.279 56.7299 250.079 56.1926C250.485 55.9185 250.628 55.8965 251.527 55.8965C252.612 55.8856 252.886 55.9952 253.479 56.6422C254.147 57.3768 254.389 58.5611 254.038 59.4054C253.84 59.8769 253.128 60.7651 252.941 60.7651C252.865 60.7651 252.656 60.8419 252.492 60.9296C252.064 61.1489 250.978 61.127 250.364 60.8857ZM208.696 58.6926C208.982 59.175 209.782 59.811 210.21 59.8987C211.317 60.1071 212.161 59.9426 212.775 59.3943C214.256 58.0675 213.894 55.5565 212.129 54.9205C210.922 54.4929 209.683 54.7889 208.949 55.6881L208.532 56.1925V57.3C208.532 58.0895 208.576 58.4842 208.696 58.6926ZM227.458 59.3176C226.8 58.9667 226.548 58.4733 226.592 57.6947C226.647 56.9491 226.888 56.5763 227.535 56.2583C228.686 55.6881 229.969 56.5434 229.969 57.8921C229.969 58.6816 229.245 59.4382 228.423 59.5259C228.061 59.5588 227.82 59.515 227.458 59.3176ZM242.864 57.3109C243.237 58.0237 243.522 58.2868 244.18 58.5171C244.761 58.7254 245.649 58.7254 246.22 58.5061C246.746 58.3088 247.47 57.607 247.689 57.0697C247.897 56.5982 247.886 55.4797 247.678 54.9863C247.481 54.5257 246.932 53.9226 246.472 53.6595C246.231 53.5279 245.88 53.484 245.156 53.484C244.202 53.484 244.136 53.495 243.654 53.8459C242.535 54.6464 242.206 56.0609 242.864 57.3109ZM217.304 58.3856C217.255 58.3767 217.192 58.3642 217.125 58.3511L217.125 58.351C217.027 58.3317 216.922 58.3109 216.844 58.2979C216.471 58.2101 215.923 57.6948 215.703 57.2013C215.319 56.368 215.528 55.0083 216.12 54.5039C216.46 54.2078 217.304 53.8569 217.677 53.8569C218.642 53.8569 219.629 54.4929 219.859 55.2605C220.44 57.1794 219.124 58.7803 217.304 58.3856ZM222.096 57.8482C222.381 58.1771 222.578 58.2978 222.962 58.3526C223.401 58.4293 223.96 58.3964 224.388 58.2868C224.475 58.2649 224.75 58.0456 224.98 57.8043C225.353 57.4205 225.408 57.2999 225.451 56.7188C225.517 55.8196 225.342 55.381 224.739 54.9095C224.3 54.5696 224.147 54.5147 223.642 54.5147C222.94 54.5147 222.458 54.7011 222.052 55.1288C221.69 55.5235 221.526 55.9402 221.526 56.4885C221.526 57.0477 221.646 57.3328 222.096 57.8482ZM236.362 57.4865C235.441 57.2453 234.662 56.083 234.662 54.9535C234.662 53.3636 235.737 52.3219 237.371 52.3219C238.335 52.3219 239.114 52.7824 239.684 53.6816C239.947 54.1092 239.969 55.7211 239.706 56.2145C239.498 56.5874 238.917 57.1685 238.544 57.3659C238.215 57.5304 236.833 57.6071 236.362 57.4865ZM198.005 54.6463C198.356 55.2713 198.926 55.7648 199.54 55.9841C200.626 56.3678 202.084 56.0937 202.83 55.359C203.554 54.6463 203.762 54.1309 203.762 53.0892C203.762 52.0475 203.565 51.5541 202.83 50.8304C201.799 49.8106 199.891 49.7558 198.696 50.6988C198.4 50.9291 198.137 51.2909 197.918 51.7515C197.621 52.3874 197.6 52.519 197.643 53.2866C197.687 53.9336 197.775 54.2515 198.005 54.6463ZM228.324 53.8241C227.48 53.528 227.184 52.3877 227.732 51.5543C227.984 51.1705 228.072 51.1267 228.609 51.0499C229.026 51.006 229.344 51.028 229.618 51.1376C229.969 51.2692 230.046 51.3679 230.221 51.8613C230.495 52.6947 230.331 53.2758 229.717 53.6706C229.223 53.9886 228.916 54.0215 228.324 53.8241ZM205.692 51.2142C205.999 51.7953 206.47 52.223 207.073 52.4861C207.512 52.6726 208.422 52.6945 208.927 52.519C211.021 51.8063 211.361 48.7799 209.464 47.6834C208.927 47.3763 208.762 47.3325 208.038 47.3434C207.041 47.3434 206.503 47.6176 205.878 48.429C205.494 48.9224 205.462 49.0211 205.418 49.8106C205.385 50.5672 205.418 50.7207 205.692 51.2142ZM224.377 51.905C223.839 51.6418 223.576 51.0387 223.631 50.2164C223.708 49.1966 224.377 48.6374 225.44 48.7251C225.967 48.7689 226.098 48.8347 226.482 49.2295C226.877 49.6133 226.943 49.7448 226.976 50.2602C227.052 51.3348 226.34 52.0914 225.254 52.0914C224.98 52.0914 224.585 52.0037 224.377 51.905ZM243.412 49.5805C243.774 50.2274 244.63 50.9621 245.101 51.0388C245.682 51.1266 246.932 51.1046 247.316 51.0059C247.809 50.8634 248.698 50.0191 248.994 49.416C249.114 49.1747 249.224 48.6484 249.246 48.2427C249.279 47.6396 249.246 47.4093 249.027 46.9269C248.434 45.6439 247.513 45.0408 246.143 45.0408C245.156 45.0408 244.377 45.3698 243.862 46.0058C243.193 46.8062 243.072 47.1352 243.072 48.1001C243.072 48.8787 243.105 49.0432 243.412 49.5805ZM213.719 50.8853C213.291 50.644 212.743 50.019 212.644 49.6681C212.37 48.7142 212.699 47.2229 213.214 47.0803C213.324 47.0584 213.412 47.0036 213.412 46.9597C213.412 46.7733 214.234 46.5101 214.815 46.5101C216.109 46.5211 217.03 47.4641 217.03 48.7909C217.03 49.5146 216.756 50.0848 216.142 50.6111C215.692 50.9949 215.648 51.0059 214.793 51.0059C214.3 51.0059 213.817 50.9511 213.719 50.8853ZM218.839 50.0738C218.993 50.3589 219.289 50.6769 219.475 50.7975C219.728 50.951 220.024 51.0059 220.55 51.0059C221.515 51.0059 222.074 50.6331 222.348 49.7997C222.798 48.451 222.041 47.19 220.714 47.0803C219.574 46.9926 218.675 47.7711 218.587 48.9334C218.543 49.4817 218.587 49.6462 218.839 50.0738ZM237.151 49.9312C236.384 49.6242 235.803 49.054 235.386 48.2097C235.134 47.6724 235.101 47.5079 235.145 46.839C235.189 46.225 235.276 45.9508 235.572 45.4574C235.781 45.1175 236.099 44.7446 236.274 44.6131C236.46 44.4815 236.625 44.3499 236.658 44.2951C236.789 44.1196 237.7 43.8784 238.237 43.8784C238.917 43.8784 239.739 44.1416 240.013 44.4376C240.112 44.5473 240.265 44.646 240.353 44.646C240.43 44.646 240.54 44.7337 240.572 44.8433C240.616 44.942 240.759 45.1723 240.89 45.3368C241.208 45.7206 241.373 46.2907 241.373 47.0145C241.373 47.5518 241.132 48.4619 240.956 48.5935C240.912 48.6264 240.748 48.8237 240.594 49.0321C240.43 49.2514 240.002 49.5694 239.618 49.7777C239.059 50.0628 238.807 50.1286 238.259 50.1176C237.886 50.1176 237.393 50.0409 237.151 49.9312ZM229.366 47.4752C229.059 48.1989 229.267 48.9884 229.838 49.3064C231.044 49.9534 232.338 48.495 231.581 47.3436C231.318 46.9489 230.627 46.7734 230.024 46.9489C229.607 47.0695 229.487 47.1572 229.366 47.4752ZM226.987 46.9925C226.581 46.7842 226.351 46.3017 226.351 45.7206C226.361 44.8324 226.899 44.317 227.831 44.317C228.763 44.317 229.3 44.8324 229.311 45.7206C229.311 46.3127 229.07 46.7842 228.653 47.0035C228.248 47.2118 227.37 47.2118 226.987 46.9925ZM204.486 44.1087C204.694 44.8214 205.155 45.3477 205.9 45.6986C206.58 46.0166 207.183 46.0276 207.973 45.7425C208.74 45.4464 209.289 44.8543 209.53 44.0429C209.793 43.1108 209.541 41.9924 208.916 41.3783C208.368 40.841 207.775 40.5888 206.997 40.5888C205.769 40.5888 204.837 41.2687 204.508 42.409C204.267 43.2205 204.267 43.3521 204.486 44.1087ZM223.346 45.282C222.984 45.0737 222.633 44.6131 222.513 44.1745C222.14 42.8587 223.313 41.7731 224.728 42.135C225.177 42.2556 225.32 42.3543 225.583 42.771C226.109 43.5495 226.022 44.2732 225.331 45.0079C224.969 45.3917 224.925 45.4136 224.256 45.4136C223.872 45.4136 223.456 45.3478 223.346 45.282ZM211.438 42.0583C211.438 43.1658 212.052 44.0101 213.072 44.3172C213.729 44.5255 214.398 44.383 215.067 43.9224C215.648 43.5167 215.824 43.2097 215.901 42.4202C215.977 41.5101 215.802 40.896 215.319 40.4464C214.716 39.9091 214.519 39.8324 213.664 39.8214C212.94 39.8214 212.841 39.8543 212.403 40.1833C211.734 40.6986 211.438 41.2579 211.438 42.0583ZM218.839 44.2952C217.984 43.9881 217.48 43.2644 217.469 42.3214C217.469 41.7622 217.512 41.6525 217.907 41.1591C218.302 40.6437 218.379 40.5999 218.949 40.5341C219.881 40.4134 220.451 40.5341 220.835 40.9507C221.317 41.4551 221.416 41.7073 221.416 42.3982C221.416 43.1219 221.241 43.4947 220.703 43.9114C220.078 44.4048 219.486 44.5254 218.839 44.2952ZM233.949 39.1085C234.41 40.0844 235.112 40.7423 236.099 41.0932C236.318 41.17 236.855 41.2358 237.305 41.2467C238.028 41.2467 238.204 41.2029 238.928 40.841C239.366 40.6217 239.794 40.3366 239.882 40.216C239.958 40.0844 240.134 39.8651 240.254 39.7225C240.572 39.3717 240.825 38.4396 240.825 37.6063C240.825 36.2246 240.32 35.3035 239.136 34.536L238.489 34.1193H237.294C235.956 34.1193 235.748 34.1851 234.87 34.9198C233.708 35.8847 233.302 37.7049 233.949 39.1085Z" fill="#F3C083"/>
<circle cx="223.396" cy="5.68657" r="5.68657" fill="#F3C083"/>
<circle cx="281.209" cy="63.4999" r="5.68657" transform="rotate(90 281.209 63.4999)" fill="#F3C083"/>
<circle cx="182.516" cy="22.6199" r="5.68657" transform="rotate(-45 182.516 22.6199)" fill="#F3C083"/>
<circle cx="264.276" cy="22.6199" r="5.68657" transform="rotate(45 264.276 22.6199)" fill="#F3C083"/>
<circle cx="223.396" cy="121.313" r="5.68657" fill="#F3C083"/>
<circle cx="165.582" cy="63.4999" r="5.68657" transform="rotate(90 165.582 63.4999)" fill="#F3C083"/>
<circle cx="264.276" cy="104.38" r="5.68657" transform="rotate(-45 264.276 104.38)" fill="#F3C083"/>
<circle cx="182.516" cy="104.38" r="5.68657" transform="rotate(45 182.516 104.38)" fill="#F3C083"/>
<path d="M158.63 201.58H163.982V170.577H175.958V165.662H146.707V170.577H158.63V201.58Z" fill="#F3C083"/>
<path d="M213.97 177.373C213.97 170.525 208.141 165.662 200.457 165.662H185.143V201.58H190.495V189.084H198.868L207.77 201.58H213.917L204.644 188.562C210.155 187.15 213.97 182.915 213.97 177.373ZM190.495 170.577H199.716C204.962 170.577 208.512 173.139 208.512 177.373C208.512 181.608 204.962 184.17 199.716 184.17H190.495V170.577Z" fill="#F3C083"/>
<path d="M249.935 170.577V165.662H223.174V201.58H249.935V196.665H228.58V185.738H247.869V180.824H228.58V170.577H249.935Z" fill="#F3C083"/>
<path d="M290.117 201.58H296.052L280.419 165.662H274.484L258.852 201.58H264.787L267.966 194.26H286.937L290.117 201.58ZM270.033 189.503L277.452 172.459L284.871 189.503H270.033Z" fill="#F3C083"/>
<path d="M315.281 202.155C323.865 202.155 328.529 197.554 328.529 191.489C328.529 185.059 323.494 182.654 316.234 180.981C310.246 179.569 307.12 178.419 307.12 175.073C307.12 172.198 309.981 169.636 314.062 169.636C317.771 169.636 321.428 171.257 324.501 174.027L327.575 170.054C324.077 167.022 319.891 164.983 314.274 164.983C306.961 164.983 301.662 169.531 301.662 175.544C301.662 182.026 306.59 184.222 314.009 185.948C320.103 187.307 323.123 188.614 323.123 192.012C323.123 194.888 320.527 197.502 315.493 197.502C310.564 197.502 306.749 195.515 303.516 192.483L300.284 196.404C304.152 200.063 309.187 202.155 315.281 202.155Z" fill="#F3C083"/>
<path d="M353.258 202.207C362.373 202.207 368.891 195.672 368.891 186.47V165.662H363.486V186.366C363.486 192.796 359.246 197.397 353.258 197.397C347.217 197.397 342.978 192.796 342.978 186.366V165.662H337.626V186.47C337.626 195.672 344.091 202.207 353.258 202.207Z" fill="#F3C083"/>
<path d="M406.726 177.373C406.726 170.525 400.897 165.662 393.213 165.662H377.898V201.58H383.25V189.084H391.623L400.526 201.58H406.673L397.399 188.562C402.91 187.15 406.726 182.915 406.726 177.373ZM383.25 170.577H392.471C397.717 170.577 401.268 173.139 401.268 177.373C401.268 181.608 397.717 184.17 392.471 184.17H383.25V170.577Z" fill="#F3C083"/>
<path d="M426.712 201.58H432.223V187.516L446.69 165.662H440.489L429.467 182.497L418.604 165.662H412.139L426.712 187.516V201.58Z" fill="#F3C083"/>
<path d="M33.0583 202.128C32.4719 202.064 31.4589 201.897 30.7925 201.744C30.1394 201.603 29.4597 201.449 29.2864 201.41C28.6866 201.295 26.0742 200.09 25.6477 199.744C25.5411 199.641 25.3812 199.564 25.3145 199.564C25.1679 199.564 24.1016 198.744 23.2619 197.988C22.3956 197.193 20.7295 195.36 20.7295 195.18C20.7295 195.129 20.5296 194.783 20.2897 194.411C19.6099 193.373 18.7969 191.566 18.3437 190.079C17.2508 186.502 17.2375 180.567 18.3304 177.247C18.5437 176.581 18.7303 175.978 18.7303 175.901C18.7303 175.67 19.9965 173.145 20.383 172.607C20.5696 172.338 20.7295 172.081 20.7295 172.017C20.7295 171.966 20.9428 171.697 21.196 171.415C21.4493 171.145 21.6625 170.876 21.6625 170.825C21.6625 170.722 23.9017 168.543 24.0217 168.543C24.0616 168.543 24.3282 168.338 24.6081 168.095C24.888 167.851 25.3678 167.531 25.6877 167.377C26.0076 167.223 26.3541 167.031 26.4608 166.941C26.5674 166.838 26.9006 166.685 27.1938 166.582C27.4871 166.479 28.0868 166.249 28.5267 166.069C29.4597 165.685 30.7525 165.403 32.7251 165.121C35.7107 164.71 39.576 165.236 42.335 166.428C43.2013 166.8 44.0143 167.197 44.1343 167.313C44.2409 167.428 44.4009 167.518 44.4675 167.518C44.7874 167.518 47.2132 169.569 48.0529 170.556C48.5727 171.145 48.9859 171.684 48.9859 171.735C48.9859 171.786 49.1058 171.94 49.2391 172.094C49.5856 172.44 50.6652 174.453 50.9984 175.337C52.238 178.657 52.7578 182.157 52.4779 185.284C52.278 187.412 51.5849 190.732 51.2517 191.168C51.185 191.245 51.0651 191.553 50.9718 191.873C50.7585 192.591 49.7322 194.463 49.2258 195.091C49.0258 195.347 48.8526 195.603 48.8526 195.655C48.8526 195.783 47.5997 197.206 47.0132 197.744C46.3868 198.321 44.7741 199.564 44.6541 199.564C44.5875 199.564 44.3475 199.718 44.0943 199.898C43.8544 200.077 43.0547 200.475 42.3216 200.782C39.7759 201.872 35.9639 202.423 33.0583 202.128ZM38.2964 199.705C39.0562 199.552 40.0691 199.257 40.5489 199.052C41.0154 198.834 41.4686 198.667 41.5352 198.667C42.0017 198.667 46.0536 195.552 46.0536 195.193C46.0536 195.142 46.2002 194.937 46.3868 194.732C46.8133 194.27 47.573 193.129 47.9062 192.45C48.6393 190.95 48.8526 190.45 48.9725 190.002C49.0392 189.732 49.2657 188.951 49.479 188.284C49.8522 187.079 49.8522 187.053 49.8522 183.541C49.8389 180.054 49.8389 180.003 49.4657 178.862C49.2657 178.234 49.0525 177.503 48.9992 177.26C48.7726 176.234 47.6263 174.132 46.3601 172.402C45.3339 171.017 42.5882 168.864 41.1754 168.377C40.8955 168.274 40.269 168.043 39.7892 167.864C38.7363 167.479 36.4704 167.133 34.9776 167.133C33.3649 167.133 30.7525 167.582 29.6196 168.056C28.42 168.543 27.687 168.902 27.2738 169.21C27.1005 169.338 26.9006 169.441 26.834 169.441C26.7007 169.441 26.4741 169.633 25.0346 170.902C24.3415 171.517 22.7821 173.376 22.6222 173.773C22.5822 173.901 22.3423 174.286 22.1024 174.658C21.8624 175.029 21.6625 175.427 21.6625 175.568C21.6625 175.696 21.6092 175.85 21.5426 175.927C21.1694 176.324 20.343 179.208 20.0631 181.17C19.7699 183.195 19.9831 186.336 20.5296 188.284C20.6362 188.669 20.7295 189.092 20.7295 189.22C20.7295 189.463 21.5026 191.348 21.8891 192.065C22.6355 193.476 22.8487 193.809 23.3952 194.501C24.3415 195.732 26.5674 197.77 26.9406 197.77C27.0206 197.77 27.1805 197.86 27.2738 197.988C27.4737 198.206 29.0065 198.923 30.1261 199.308C30.6859 199.5 31.7122 199.718 33.3916 200C34.1513 200.128 37.0036 199.962 38.2964 199.705Z" fill="#F3C083"/>
<path d="M0 183.595V164.983H1.09483H2.18966V183.595V202.207H1.09483H0V183.595Z" fill="#F3C083"/>
<path d="M74.3346 184.67V167.133H67.8225H61.3103V166.058V164.983H75.5431H89.7758V166.058V167.133H83.3308H76.8858V184.67V202.207H75.6102H74.3346V184.67Z" fill="#F3C083"/>
<path d="M94.1553 202.073C94.1553 202.005 94.2706 201.683 94.4115 201.374C94.7574 200.554 95.5516 198.498 95.8206 197.692C95.9487 197.315 96.2049 196.67 96.3843 196.24C96.5636 195.824 96.7173 195.421 96.7173 195.353C96.7173 195.286 96.8967 194.816 97.1145 194.319C97.3322 193.821 97.5884 193.149 97.7037 192.814C97.8062 192.478 98.024 191.9 98.1905 191.523C98.3443 191.161 98.5492 190.61 98.6389 190.314C98.7286 190.018 98.972 189.414 99.1641 188.984C99.3691 188.54 99.5356 188.11 99.5356 188.016C99.5356 187.922 99.715 187.438 99.9327 186.928C100.151 186.43 100.407 185.772 100.496 185.476C100.701 184.845 101.547 182.681 102.021 181.593C102.2 181.176 102.354 180.773 102.354 180.692C102.354 180.625 102.559 180.034 102.815 179.389C103.968 176.473 104.135 176.056 104.211 175.76C104.263 175.586 104.493 174.994 104.737 174.443C104.98 173.892 105.172 173.355 105.172 173.261C105.172 173.167 105.249 172.911 105.352 172.696C105.672 171.998 106.03 171.097 106.133 170.761C106.184 170.573 106.402 170.049 106.594 169.579C106.799 169.122 106.966 168.678 106.966 168.598C106.966 168.531 107.081 168.195 107.222 167.859C107.734 166.663 107.952 166.112 108.119 165.561L108.285 164.983H109.592H110.898L111.308 165.923C111.526 166.448 111.705 166.931 111.705 167.012C111.705 167.093 111.859 167.496 112.039 167.912C112.218 168.329 112.5 169.068 112.666 169.552C112.974 170.466 113.268 171.258 113.922 172.844C114.127 173.368 114.434 174.175 114.588 174.658C114.908 175.612 115.228 176.473 115.882 178.058C116.125 178.636 116.317 179.201 116.317 179.295C116.317 179.389 116.509 179.913 116.753 180.464C116.983 181.001 117.214 181.593 117.265 181.781C117.316 181.969 117.547 182.6 117.778 183.192C118.572 185.207 118.777 185.745 119.02 186.484C119.161 186.887 119.328 187.344 119.392 187.492C119.802 188.433 120.032 189.037 120.032 189.158C120.032 189.239 120.224 189.763 120.468 190.341C120.711 190.919 121.006 191.685 121.121 192.061C121.249 192.424 121.48 193.042 121.646 193.432C121.813 193.808 121.954 194.184 121.954 194.265C121.954 194.332 122.159 194.883 122.402 195.474C122.645 196.052 122.85 196.617 122.85 196.697C122.85 196.791 123.055 197.315 123.299 197.866C123.542 198.417 123.786 199.035 123.837 199.237C123.875 199.425 124.08 199.976 124.298 200.46C124.503 200.944 124.695 201.535 124.734 201.777L124.81 202.207H123.529H122.248L122.082 201.643C121.992 201.32 121.736 200.594 121.493 200.016C121.249 199.439 121.057 198.874 121.057 198.767C121.057 198.673 120.903 198.243 120.724 197.813C120.532 197.383 120.288 196.697 120.16 196.294C120.032 195.891 119.75 195.071 119.52 194.48C118.546 191.967 118.239 191.107 118.239 190.959C118.239 190.865 118.034 190.341 117.79 189.763C117.547 189.199 117.342 188.648 117.342 188.554C117.342 188.406 117.175 187.976 116.573 186.551C116.471 186.309 116.215 185.557 115.523 183.528C115.395 183.125 115.151 182.493 114.985 182.117C114.818 181.754 114.652 181.297 114.601 181.109C114.472 180.652 113.576 178.206 113.038 176.849C112.794 176.244 112.602 175.68 112.602 175.599C112.602 175.505 112.397 174.954 112.154 174.349C111.91 173.758 111.705 173.194 111.705 173.1C111.705 173.005 111.539 172.535 111.321 172.051C111.116 171.554 110.86 170.869 110.757 170.519C110.655 170.17 110.437 169.552 110.271 169.149C110.091 168.746 109.912 168.289 109.861 168.141C109.784 167.926 109.681 168.047 109.323 168.853C109.079 169.404 108.887 169.915 108.887 170.022C108.887 170.116 108.657 170.721 108.375 171.353C108.093 171.984 107.862 172.575 107.862 172.656C107.862 172.79 107.619 173.449 106.504 176.231C106.261 176.835 106.069 177.4 106.069 177.48C106.069 177.548 105.954 177.87 105.813 178.193C105.544 178.797 104.66 181.109 104.25 182.318C104.109 182.721 103.827 183.434 103.622 183.904C103.417 184.374 103.251 184.831 103.251 184.939C103.251 185.033 103.046 185.57 102.802 186.121C102.559 186.672 102.354 187.196 102.354 187.29C102.354 187.384 102.123 188.003 101.841 188.661C101.56 189.333 101.329 189.951 101.329 190.032C101.329 190.126 101.175 190.529 100.996 190.932C100.804 191.335 100.548 192.021 100.407 192.451C100.266 192.894 100.022 193.553 99.8431 193.929C99.6765 194.292 99.5356 194.668 99.5356 194.762C99.5356 194.843 99.305 195.461 99.0232 196.133C98.7414 196.791 98.5108 197.396 98.5108 197.477C98.5108 197.544 98.3058 198.068 98.0624 198.632C97.819 199.21 97.6141 199.748 97.6141 199.842C97.6141 199.949 97.3963 200.514 97.1401 201.118L96.6661 202.207H95.4107C94.6805 202.207 94.1553 202.153 94.1553 202.073Z" fill="#F3C083"/>
</svg>
