<svg width="1920" height="775" viewBox="0 0 1920 775" fill="none" xmlns="http://www.w3.org/2000/svg">
<g style="mix-blend-mode:multiply" opacity="0.5">
<path d="M731.775 -166.9C832.831 -106.833 896.065 11.6937 889.76 122.547C882.676 233.93 805.358 337.558 720.744 437.82C636.129 538.083 544.912 635.063 428.314 666.043C311.803 696.409 169.825 661.388 115.418 575.712C60.2312 490.567 91.9206 354.686 36.2592 247.662C-19.3167 140.025 -161.549 61.3283 -171.478 -4.07628C-181.407 -69.4809 -58.3391 -121.511 51.9127 -157.612C162.079 -193.1 259.343 -212.046 376.329 -220.533C494.01 -228.938 631.413 -226.883 731.775 -166.9Z" fill="#343B4F" fill-opacity="0.25"/>
</g>
<g style="mix-blend-mode:multiply" opacity="0.5">
<path d="M1574 -286.42C1646.53 -285.731 1722.7 -225.608 1871.18 -196.191C2020.44 -166.139 2242.14 -165.489 2303.09 -93.8406C2364.04 -22.1919 2263.48 119.822 2163.51 216.681C2064.3 314.174 1964.13 365.246 1853.98 459.759C1743.83 554.272 1623.05 692.898 1528.27 675.137C1434.25 658.01 1367.13 486.435 1237.36 349.888C1108.35 213.975 918.237 114.358 928.792 32.9592C939.474 -47.1351 1152.25 -109.049 1292.75 -169.043C1433.25 -229.037 1501.48 -287.11 1574 -286.42Z" fill="#343B4F" fill-opacity="0.25"/>
</g>
</svg>
