<svg width="213" height="75" viewBox="0 0 213 75" fill="none" xmlns="http://www.w3.org/2000/svg">
<rect width="137.5" height="54.6875" rx="10" fill="#D8E3F5"/>
<path d="M30.6052 69.7557C30.2572 70.5593 29.1178 70.5593 28.7698 69.7557L22.1736 54.5224C21.8877 53.8621 22.3717 53.125 23.0912 53.125L36.2837 53.125C37.0033 53.125 37.4873 53.8621 37.2014 54.5224L30.6052 69.7557Z" fill="#D8E3F5"/>
<rect width="137.5" height="54.6875" rx="10" transform="matrix(-1 0 0 1 212.5 3.125)" fill="#108CFF"/>
<path d="M181.895 72.8807C182.243 73.6843 183.382 73.6843 183.73 72.8807L190.326 57.6474C190.612 56.9871 190.128 56.25 189.409 56.25L176.216 56.25C175.497 56.25 175.013 56.9871 175.299 57.6474L181.895 72.8807Z" fill="#108CFF"/>
</svg>
