<svg width="162" height="181" viewBox="0 0 162 181" fill="none" xmlns="http://www.w3.org/2000/svg">
<rect x="70.7107" y="39" width="100" height="100" rx="30" transform="rotate(45 70.7107 39)" fill="#FF6755"/>
<path d="M47.1268 28.8767C45.5268 40.8767 59.4602 46.21 66.6268 47.3767C57.6268 44.8767 43.8268 37.6767 60.6268 28.8767C81.6268 17.8767 43.6268 -4.62332 55.1268 3.87668C66.6268 12.3767 49.1268 13.8767 47.1268 28.8767Z" stroke="#163965" stroke-width="3" stroke-linecap="round" stroke-linejoin="round"/>
<path d="M72.9383 154C60.7682 149.655 39.1286 131.082 49.9317 91.5468C57.5339 103.712 68.437 104.943 72.9383 104.037C66.9366 100.055 55.5334 88.5056 57.934 74.1685C63.9358 82.8577 77.1062 86.8402 82.9412 87.7453C86.2755 79.4182 90.9436 59.9401 82.9412 48.6442C74.9389 37.3483 86.6089 17.5081 93.4442 9C91.4437 19.4994 91.9438 43.8652 109.949 57.3333C114.016 60.3759 116.629 63.4942 118.15 66.5655M109.949 91.5468C115.756 87.0627 123.362 77.0898 118.15 66.5655M118.15 66.5655C124.086 64.7553 133.356 57.5506 122.953 43.2135C110.698 26.3242 156.633 70.6897 136.01 104.037M118.15 154C112.249 150.561 106.648 136.948 131.455 110.011C133.241 108.072 134.75 106.075 136.01 104.037M131.455 154C143.625 146.759 166.065 127.824 158.463 110.011C151.961 119.243 130.607 123.588 136.01 104.037" stroke="#163965" stroke-width="3" stroke-linecap="round" stroke-linejoin="round"/>
<path d="M120 153.5C114.667 150.667 110.3 137 133.5 109M111 93C116 88.5 124.9 77 120.5 67" stroke="#163965" stroke-width="3" stroke-linecap="round" stroke-linejoin="round"/>
<path d="M73.4999 154.5C76.8332 153 81.4999 147.5 73.4999 137.5C63.4999 125 92.4999 139 91.4999 147.5C90.4999 156 105 163.5 119.5 154.5" stroke="#163965" stroke-width="3" stroke-linecap="round" stroke-linejoin="round"/>
</svg>
