<svg cache-id="932891995a1c4c71b19d44fb63d56810" id="e108MLhD53S1" xmlns="http://www.w3.org/2000/svg" xmlns:xlink="http://www.w3.org/1999/xlink" viewBox="0 0 1000 1000" shape-rendering="geometricPrecision" text-rendering="geometricPrecision" style="background-color:#fff"><defs><linearGradient id="e108MLhD53S4-fill" x1="446.17" y1="358.728" x2="446.17" y2="1141.76" spreadMethod="pad" gradientUnits="userSpaceOnUse" gradientTransform="translate(0 0)"><stop id="e108MLhD53S4-fill-0" offset="0%" stop-color="#f0f5fe"/><stop id="e108MLhD53S4-fill-1" offset="52.0833%" stop-color="#d7e8fe"/><stop id="e108MLhD53S4-fill-2" offset="100%" stop-color="#9fc9ff"/></linearGradient><linearGradient id="e108MLhD53S5-fill" x1="553.499" y1="667.091" x2="521.31" y2="408.025" spreadMethod="pad" gradientUnits="userSpaceOnUse" gradientTransform="translate(0 0)"><stop id="e108MLhD53S5-fill-0" offset="0%" stop-color="#4f75b7"/><stop id="e108MLhD53S5-fill-1" offset="100%" stop-color="#7196d7"/></linearGradient><linearGradient id="e108MLhD53S12-fill" x1="443.994" y1="911.297" x2="48.9904" y2="1133" spreadMethod="pad" gradientUnits="userSpaceOnUse" gradientTransform="translate(0 0)"><stop id="e108MLhD53S12-fill-0" offset="0%" stop-color="#f0f5fe"/><stop id="e108MLhD53S12-fill-1" offset="52.6042%" stop-color="#d7e8fe"/><stop id="e108MLhD53S12-fill-2" offset="100%" stop-color="#9dc6fb"/></linearGradient></defs><g clip-path="url(#e108MLhD53S57)"><g><path d="M619.5,389.505c-66.126-36.886-166-31-233.5,0-60.209,27.652-124.5,100.755-124.5,203c0,102,93.583,160.5,87.5,195.5-8.92,51.321-2.873,68.303-65.689,98.81C150.057,951.529,172.074,1042.31,212.5,1089.01c40.426,46.69,540.354,74.58,561.5,31c21.146-43.59,35.451,4.72,0-65-28.36-55.788-92-129.505-113-159.505-14.57-20.814-67-79.5-45.5-107.5c55.415-49.141,138-96.5,138-195.5c0-109-60.5-162-134-203Z" fill="url(#e108MLhD53S4-fill)"/><path d="M307.297,588.137c9.408,98.011,101.052,166.65,208.912,156.296s195.598-98.08,186.189-196.09c-9.408-98.01-112.4-169.191-220.26-158.837-107.86,10.353-184.249,100.621-174.841,198.631Z" fill="url(#e108MLhD53S5-fill)"/><g><path d="M330.181,754.275c-8.539,20.152-14.947,35.74-15.714,53.796c8.189,20.379,40.92,15.967,43.443,14.783c2.522-1.184,11.809-14.772,12.811-26.585.973-11.467,3.164-20.605-1.759-33.427-4.301-11.2,1.265-20.265,0-24.914-1.968-7.232-9.919-9.872-23.356-1.5-10.839,6.754-12.312,10.5-15.425,17.847Z" fill="#7096d6"/><path d="M386.606,717.428c-20.02,20.79-62.799,64.621-67.443,95.747c22.021,10.325,40.802-11.55,53.484-34.882c13.925-25.619,22.235-34.057,44.459-57.365c20.5-21.5,8.5-44-30.5-3.5Z" fill="#7096d6"/><path d="M389.106,749.429c-24.325,15.533-30.5,31.499-30.5,31.499l14.5,7.5c0,0,15.966-5.802,40.552-26.604c9.413-7.963,1.886-29.278-24.552-12.395Z" fill="#7096d6"/><path d="M399.959,767.269c-24.325,15.534-40.459,26.236-40.459,26.236l19,19.5c0,0,20.02-10.275,44.606-31.076c9.413-7.964,3.291-31.543-23.147-14.66Z" fill="#7096d6"/><path d="M406.322,786.23c-21.935,14.007-68.542,46.623-76.078,73.981c18.591,11.633,37.779-5.909,51.664-25.418c15.246-21.422,21.528-18.608,43.698-37.364c8.488-7.182,4.555-26.423-19.284-11.199Z" fill="#7096d6"/></g><path d="M144.659,1038.33c-32.634,87.3-31.444,156.08-34.167,204.25c44.753,36.06,98.535,71.38,120.098,42.42c26.953-36.19-5.277-146.97,27.431-238.07c32.49-90.501,73.153-122.31,134.639-215.5-12.908-52.939-66.597-45.875-91.186-34.582-50.597,57.488-117.492,136.292-156.815,241.482Z" fill="url(#e108MLhD53S12-fill)"/><path d="M438.728,513.923c-2.833,13.133-14.254,21.811-25.511,19.383s-18.086-15.043-15.253-28.176s14.255-21.811,25.512-19.383c11.256,2.429,18.085,15.043,15.252,28.176Z" fill="#405985"/><g><path d="M439.996,515.989c-2.717,12.591-13.398,20.97-23.858,18.714-10.461-2.257-16.738-14.293-14.022-26.885s13.398-20.971,23.858-18.714c10.46,2.256,16.738,14.293,14.022,26.885Z" fill="#405985"/></g><path d="M431.607,502.225c1.354,8.888-8.135-.038-16.631,1.257-8.495,1.295-12.78,12.319-14.135,3.431-1.354-8.888,4.435-17.143,12.931-18.438c8.495-1.295,16.48,4.861,17.835,13.75Z" fill="#6e82a4"/><path d="M420.364,495.044c1.755,3.375-4.297,1.633-8.628,3.885s-5.302,7.646-7.057,4.271c-1.754-3.375.334-7.936,4.665-10.188c4.331-2.253,9.265-1.342,11.02,2.032Z" fill="#fff"/><path d="M603.77,513.69c-2.681,13.165-14.001,21.975-25.286,19.677-11.284-2.298-18.259-14.832-15.578-27.997s14.001-21.975,25.285-19.677c11.285,2.297,18.259,14.832,15.579,27.997Z" fill="#405985"/><g><path d="M605.061,515.74c-2.57,12.623-13.154,21.125-23.64,18.99-10.485-2.135-16.902-14.099-14.332-26.721c2.57-12.623,13.154-21.124,23.639-18.989c10.486,2.135,16.903,14.098,14.333,26.72Z" fill="#405985"/></g><path d="M596.513,502.075c1.458,8.872-8.135.057-16.615,1.45s-12.636,12.466-14.094,3.594c-1.457-8.872,4.236-17.193,12.716-18.586s16.536,4.67,17.993,13.542Z" fill="#6e82a4"/><path d="M585.188,495.025c1.794,3.355-4.278,1.682-8.582,3.984-4.305,2.303-5.213,7.708-7.007,4.353-1.794-3.354.242-7.94,4.546-10.242c4.305-2.302,9.249-1.449,11.043,1.905Z" fill="#fff"/><g mask="url(#e108MLhD53S55)"><g><g id="e108MLhD53S25" transform="translate(-.362854-.077911)"><path d="M607,287.5c0,4.142-3.358,7.5-7.5,7.5s-7.5-3.358-7.5-7.5s3.358-7.5,7.5-7.5s7.5,3.358,7.5,7.5Z" fill="#6e82a4"/><path d="M599.5,294c3.59,0,6.5-2.91,6.5-6.5s-2.91-6.5-6.5-6.5-6.5,2.91-6.5,6.5s2.91,6.5,6.5,6.5Zm0,1c4.142,0,7.5-3.358,7.5-7.5s-3.358-7.5-7.5-7.5-7.5,3.358-7.5,7.5s3.358,7.5,7.5,7.5Z" clip-rule="evenodd" fill="#d8e3f5" fill-rule="evenodd"/></g><g id="e108MLhD53S28" transform="translate(.578125 0.131516)"><path d="M650,204c0,7.732-6.268,14-14,14s-14-6.268-14-14s6.268-14,14-14s14,6.268,14,14Z" fill="#6e82a4"/><path d="M636,217c7.18,0,13-5.82,13-13s-5.82-13-13-13-13,5.82-13,13s5.82,13,13,13Zm0,1c7.732,0,14-6.268,14-14s-6.268-14-14-14-14,6.268-14,14s6.268,14,14,14Z" clip-rule="evenodd" fill="#d8e3f5" fill-rule="evenodd"/></g><g id="e108MLhD53S31" transform="translate(.265381 0.319)"><path d="M789,332.5c0,4.694-3.806,8.5-8.5,8.5s-8.5-3.806-8.5-8.5s3.806-8.5,8.5-8.5s8.5,3.806,8.5,8.5Z" fill="#6e82a4"/><path d="M780.5,340c4.142,0,7.5-3.358,7.5-7.5s-3.358-7.5-7.5-7.5-7.5,3.358-7.5,7.5s3.358,7.5,7.5,7.5Zm0,1c4.694,0,8.5-3.806,8.5-8.5s-3.806-8.5-8.5-8.5-8.5,3.806-8.5,8.5s3.806,8.5,8.5,8.5Z" clip-rule="evenodd" fill="#d8e3f5" fill-rule="evenodd"/></g><g id="e108MLhD53S34" transform="translate(-.604141 0.001022)"><path d="M213,195.5c0,7.456-6.044,13.5-13.5,13.5s-13.5-6.044-13.5-13.5s6.044-13.5,13.5-13.5s13.5,6.044,13.5,13.5Z" fill="#6e82a4"/><path d="M199.5,208c6.904,0,12.5-5.596,12.5-12.5s-5.596-12.5-12.5-12.5-12.5,5.596-12.5,12.5s5.596,12.5,12.5,12.5Zm0,1c7.456,0,13.5-6.044,13.5-13.5s-6.044-13.5-13.5-13.5-13.5,6.044-13.5,13.5s6.044,13.5,13.5,13.5Z" clip-rule="evenodd" fill="#d8e3f5" fill-rule="evenodd"/></g><g id="e108MLhD53S37" transform="translate(-.27533-.499786)"><path d="M368,141.5c0,3.038-2.462,5.5-5.5,5.5s-5.5-2.462-5.5-5.5s2.462-5.5,5.5-5.5s5.5,2.462,5.5,5.5Z" fill="#6e82a4"/><path d="M362.5,146c2.485,0,4.5-2.015,4.5-4.5s-2.015-4.5-4.5-4.5-4.5,2.015-4.5,4.5s2.015,4.5,4.5,4.5Zm0,1c3.038,0,5.5-2.462,5.5-5.5s-2.462-5.5-5.5-5.5-5.5,2.462-5.5,5.5s2.462,5.5,5.5,5.5Z" clip-rule="evenodd" fill="#d8e3f5" fill-rule="evenodd"/></g><g id="e108MLhD53S40" transform="translate(.327698 0.410721)"><path d="M709,250c0,6.075-4.701,11-10.5,11s-10.5-4.925-10.5-11s4.701-11,10.5-11s10.5,4.925,10.5,11Z" transform="translate(-.435607 0)" fill="#d8e3f5"/><path d="M698.5,260c5.203,0,9.5-4.433,9.5-10s-4.297-10-9.5-10-9.5,4.433-9.5,10s4.297,10,9.5,10Zm0,1c5.799,0,10.5-4.925,10.5-11s-4.701-11-10.5-11-10.5,4.925-10.5,11s4.701,11,10.5,11Z" clip-rule="evenodd" fill="#6e82a4" fill-rule="evenodd"/></g><g id="e108MLhD53S43" transform="translate(.474976 0.231598)"><path d="M333,198c0,6.075-4.701,11-10.5,11s-10.5-4.925-10.5-11s4.701-11,10.5-11s10.5,4.925,10.5,11Z" fill="#d8e3f5"/><path d="M322.5,208c5.203,0,9.5-4.433,9.5-10s-4.297-10-9.5-10-9.5,4.433-9.5,10s4.297,10,9.5,10Zm0,1c5.799,0,10.5-4.925,10.5-11s-4.701-11-10.5-11-10.5,4.925-10.5,11s4.701,11,10.5,11Z" clip-rule="evenodd" fill="#6e82a4" fill-rule="evenodd"/></g><g id="e108MLhD53S46" transform="translate(.494934-.135498)"><path d="M312,295.5c0,12.426-9.626,22.5-21.5,22.5s-21.5-10.074-21.5-22.5s9.626-22.5,21.5-22.5s21.5,10.074,21.5,22.5Z" fill="#d8e3f5"/><path d="M290.5,317c11.279,0,20.5-9.583,20.5-21.5s-9.221-21.5-20.5-21.5-20.5,9.583-20.5,21.5s9.221,21.5,20.5,21.5Zm0,1c11.874,0,21.5-10.074,21.5-22.5s-9.626-22.5-21.5-22.5-21.5,10.074-21.5,22.5s9.626,22.5,21.5,22.5Z" clip-rule="evenodd" fill="#6e82a4" fill-rule="evenodd"/></g><g id="e108MLhD53S49" transform="translate(-.002625 0.150162)"><path d="M384,248c0,3.314-2.462,6-5.5,6s-5.5-2.686-5.5-6s2.462-6,5.5-6s5.5,2.686,5.5,6Z" fill="#d8e3f5"/><path d="M378.5,253c2.405,0,4.5-2.155,4.5-5s-2.095-5-4.5-5-4.5,2.155-4.5,5s2.095,5,4.5,5Zm0,1c3.038,0,5.5-2.686,5.5-6s-2.462-6-5.5-6-5.5,2.686-5.5,6s2.462,6,5.5,6Z" clip-rule="evenodd" fill="#6e82a4" fill-rule="evenodd"/></g></g><g id="e108MLhD53S52"><path d="M553.333,97h-106.666C431.939,97,420,108.939,420,123.667v106.666C420,245.061,431.939,257,446.667,257h106.666C568.061,257,580,245.061,580,230.333v-106.666C580,108.939,568.061,97,553.333,97Z" fill="#405985"/><path d="M530.827,165.133c8.121-5.21,13.33-13.621,15.169-24.264c1.302-7.89.307-14.216.307-14.514-.154-1.116-.92-2.009-1.992-2.456-1.073-.446-2.299-.223-3.141.447l-49.262,36.991c.843-3.275.23-6.624-1.762-9.304-3.218-4.168-8.657-4.912-12.947-3.275l-.613-.372c-3.141-2.009-6.436-2.456-9.73-1.265-6.359,2.307-11.338,10.495-13.484,17.565-.153.596.154,1.266.766,1.489.154.074.307.074.537.074.459,0,.919-.223,1.149-.669c3.371-6.625,8.964-12.356,13.024-13.323c1.149-.298,2.145-.149,2.988.372l.23.149c-2.145,2.605-3.448,5.954-3.908,9.899-.459,4.093.154,8.559,1.533,11.611.536,1.191,1.685,1.861,2.988,1.861.306,0,.689-.075.996-.149c2.987-.968,7.814-2.829,11.798-5.731-.537,1.116-.843,2.307-.92,3.572-.229,2.903.69,5.731,2.605,7.964s4.674,3.647,7.661,3.871c.307,0,.69.074.996.074.077,0,.23,0,.307,0-2.758,3.796-3.754,9.155-1.149,15.035c5.669,12.653-1.456,21.063-6.512,24.041-1.15.669-1.762,2.009-1.379,3.274.383,1.266,1.532,2.159,2.911,2.233.46,0,.919,0,1.379,0c18.233,0,26.278-8.708,29.495-13.992c5.133-8.485,4.904-19.427-.612-28.507-2.835-4.689-8.351-8.559-14.557-7.741.766-1.339,1.226-2.754,1.379-4.317.154-1.711-.076-3.349-.766-4.912c1.456.149,2.911.223,4.444.223c6.205-.223,13.33-1.563,20.072-5.954Zm-56.08,3.647c-.306-1.637-.46-3.573-.23-5.582.307-2.605,1.226-6.103,4.137-8.113.69-.521,1.762-.819,2.835-.819c1.226,0,2.528.447,3.371,1.563c1.532,2.084.843,4.838-.536,6.625-1.839,2.307-5.21,4.614-9.577,6.326Zm20.532,10.495c-1.302-.075-2.452-.67-3.294-1.638-.843-.967-1.226-2.158-1.149-3.424.076-1.265.689-2.381,1.685-3.2.843-.744,1.992-1.117,3.065-1.117.153,0,.306,0,.383,0c1.302.075,2.451.67,3.294,1.638s1.226,2.158,1.149,3.424c-.077,1.265-.689,2.381-1.685,3.2-.92.819-2.146,1.191-3.448,1.117Zm12.105,6.475c1.992,0,4.137.819,6.052,2.903.23.223.23.521.153.744-1.149,2.382-3.6,5.285-5.975,6.773-.383.223-.537.744-.383,1.117.153.446.689.669,1.149.595c1.915-.372,4.673-1.414,6.971-2.828.23-.149.383-.224.613-.372.383-.298.996-.075,1.149.372.996,2.754,1.456,5.582,1.379,8.336c0,.298-.229.595-.536.67-2.451.818-5.363,1.265-7.661.893-.536-.075-1.073.074-1.226.595-.23.521.077.968.536,1.266c1.686.967,4.214,2.009,6.896,2.605.459.074.766.595.536.967-.383.968-.843,1.861-1.379,2.754-.843,1.414-1.839,2.68-2.988,3.796-.23.223-.613.298-.919.149-1.226-.596-2.375-1.34-3.218-2.01-.307-.297-.766-.297-1.073,0-.306.224-.459.745-.229,1.117.383.744,1.072,1.712,1.838,2.754.23.372.153.818-.153,1.042-2.452,1.488-5.21,2.605-8.351,3.349-.689.149-1.149-.521-.842-1.116c4.673-7.369,4.213-16.673.996-23.892-2.529-5.657-.001-10.048,3.447-11.686.766-.595,1.915-.893,3.218-.893Zm-7.202-22.627l39.992-30.069c-.077,7.294-1.992,19.798-12.948,26.869-9.653,6.178-20.685,4.838-27.044,3.2Z" fill="#fff"/></g><mask id="e108MLhD53S55" mask-type="alpha"><path d="M0,0h1000v1000h-1000L0,0Z" fill="#c4c4c4"/></mask></g></g><clipPath id="e108MLhD53S57"><rect width="1000" height="1000" rx="0" ry="0" fill="#fff"/></clipPath></g><script><![CDATA[!function(t,n){"object"==typeof exports&&"undefined"!=typeof module?module.exports=n():"function"==typeof define&&define.amd?define(n):((t="undefined"!=typeof globalThis?globalThis:t||self).__SVGATOR_PLAYER__=t.__SVGATOR_PLAYER__||{},t.__SVGATOR_PLAYER__["91c80d77"]=n())}(this,(function(){"use strict";function t(t,n){var r=Object.keys(t);if(Object.getOwnPropertySymbols){var e=Object.getOwnPropertySymbols(t);n&&(e=e.filter((function(n){return Object.getOwnPropertyDescriptor(t,n).enumerable}))),r.push.apply(r,e)}return r}function n(n){for(var r=1;r<arguments.length;r++){var e=null!=arguments[r]?arguments[r]:{};r%2?t(Object(e),!0).forEach((function(t){o(n,t,e[t])})):Object.getOwnPropertyDescriptors?Object.defineProperties(n,Object.getOwnPropertyDescriptors(e)):t(Object(e)).forEach((function(t){Object.defineProperty(n,t,Object.getOwnPropertyDescriptor(e,t))}))}return n}function r(t){return(r="function"==typeof Symbol&&"symbol"==typeof Symbol.iterator?function(t){return typeof t}:function(t){return t&&"function"==typeof Symbol&&t.constructor===Symbol&&t!==Symbol.prototype?"symbol":typeof t})(t)}function e(t,n){if(!(t instanceof n))throw new TypeError("Cannot call a class as a function")}function i(t,n){for(var r=0;r<n.length;r++){var e=n[r];e.enumerable=e.enumerable||!1,e.configurable=!0,"value"in e&&(e.writable=!0),Object.defineProperty(t,e.key,e)}}function u(t,n,r){return n&&i(t.prototype,n),r&&i(t,r),t}function o(t,n,r){return n in t?Object.defineProperty(t,n,{value:r,enumerable:!0,configurable:!0,writable:!0}):t[n]=r,t}function a(t){return(a=Object.setPrototypeOf?Object.getPrototypeOf:function(t){return t.__proto__||Object.getPrototypeOf(t)})(t)}function l(t,n){return(l=Object.setPrototypeOf||function(t,n){return t.__proto__=n,t})(t,n)}function s(){if("undefined"==typeof Reflect||!Reflect.construct)return!1;if(Reflect.construct.sham)return!1;if("function"==typeof Proxy)return!0;try{return Boolean.prototype.valueOf.call(Reflect.construct(Boolean,[],(function(){}))),!0}catch(t){return!1}}function f(t,n,r){return(f=s()?Reflect.construct:function(t,n,r){var e=[null];e.push.apply(e,n);var i=new(Function.bind.apply(t,e));return r&&l(i,r.prototype),i}).apply(null,arguments)}function c(t,n){if(n&&("object"==typeof n||"function"==typeof n))return n;if(void 0!==n)throw new TypeError("Derived constructors may only return object or undefined");return function(t){if(void 0===t)throw new ReferenceError("this hasn't been initialised - super() hasn't been called");return t}(t)}function h(t,n,r){return(h="undefined"!=typeof Reflect&&Reflect.get?Reflect.get:function(t,n,r){var e=function(t,n){for(;!Object.prototype.hasOwnProperty.call(t,n)&&null!==(t=a(t)););return t}(t,n);if(e){var i=Object.getOwnPropertyDescriptor(e,n);return i.get?i.get.call(r):i.value}})(t,n,r||t)}function v(t){return function(t){if(Array.isArray(t))return d(t)}(t)||function(t){if("undefined"!=typeof Symbol&&null!=t[Symbol.iterator]||null!=t["@@iterator"])return Array.from(t)}(t)||function(t,n){if(!t)return;if("string"==typeof t)return d(t,n);var r=Object.prototype.toString.call(t).slice(8,-1);"Object"===r&&t.constructor&&(r=t.constructor.name);if("Map"===r||"Set"===r)return Array.from(t);if("Arguments"===r||/^(?:Ui|I)nt(?:8|16|32)(?:Clamped)?Array$/.test(r))return d(t,n)}(t)||function(){throw new TypeError("Invalid attempt to spread non-iterable instance.\nIn order to be iterable, non-array objects must have a [Symbol.iterator]() method.")}()}function d(t,n){(null==n||n>t.length)&&(n=t.length);for(var r=0,e=new Array(n);r<n;r++)e[r]=t[r];return e}var y=g(Math.pow(10,-6));function g(t){var n=arguments.length>1&&void 0!==arguments[1]?arguments[1]:6;if(Number.isInteger(t))return t;var r=Math.pow(10,n);return Math.round((+t+Number.EPSILON)*r)/r}function p(t,n){var r=arguments.length>2&&void 0!==arguments[2]?arguments[2]:y;return Math.abs(t-n)<r}var m=Math.PI/180;function b(t){return t}function w(t,n,r){var e=1-r;return 3*r*e*(t*e+n*r)+r*r*r}function A(){var t=arguments.length>0&&void 0!==arguments[0]?arguments[0]:0,n=arguments.length>1&&void 0!==arguments[1]?arguments[1]:0,r=arguments.length>2&&void 0!==arguments[2]?arguments[2]:1,e=arguments.length>3&&void 0!==arguments[3]?arguments[3]:1;return t<0||t>1||r<0||r>1?null:p(t,n)&&p(r,e)?b:function(i){if(i<=0)return t>0?i*n/t:0===n&&r>0?i*e/r:0;if(i>=1)return r<1?1+(i-1)*(e-1)/(r-1):1===r&&t<1?1+(i-1)*(n-1)/(t-1):1;for(var u,o=0,a=1;o<a;){var l=w(t,r,u=(o+a)/2);if(p(i,l))break;l<i?o=u:a=u}return w(n,e,u)}}function x(){return 1}function k(t){return 1===t?1:0}function _(){var t=arguments.length>0&&void 0!==arguments[0]?arguments[0]:1,n=arguments.length>1&&void 0!==arguments[1]?arguments[1]:0;if(1===t){if(0===n)return k;if(1===n)return x}var r=1/t;return function(t){return t>=1?1:(t+=n*r)-t%r}}var S=Math.sin,O=Math.cos,M=Math.acos,E=Math.asin,j=Math.tan,P=Math.atan2,I=Math.PI/180,B=180/Math.PI,R=Math.sqrt,T=function(){function t(){var n=arguments.length>0&&void 0!==arguments[0]?arguments[0]:1,r=arguments.length>1&&void 0!==arguments[1]?arguments[1]:0,i=arguments.length>2&&void 0!==arguments[2]?arguments[2]:0,u=arguments.length>3&&void 0!==arguments[3]?arguments[3]:1,o=arguments.length>4&&void 0!==arguments[4]?arguments[4]:0,a=arguments.length>5&&void 0!==arguments[5]?arguments[5]:0;e(this,t),this.m=[n,r,i,u,o,a],this.i=null,this.w=null,this.s=null}return u(t,[{key:"determinant",get:function(){var t=this.m;return t[0]*t[3]-t[1]*t[2]}},{key:"isIdentity",get:function(){if(null===this.i){var t=this.m;this.i=1===t[0]&&0===t[1]&&0===t[2]&&1===t[3]&&0===t[4]&&0===t[5]}return this.i}},{key:"point",value:function(t,n){var r=this.m;return{x:r[0]*t+r[2]*n+r[4],y:r[1]*t+r[3]*n+r[5]}}},{key:"translateSelf",value:function(){var t=arguments.length>0&&void 0!==arguments[0]?arguments[0]:0,n=arguments.length>1&&void 0!==arguments[1]?arguments[1]:0;if(!t&&!n)return this;var r=this.m;return r[4]+=r[0]*t+r[2]*n,r[5]+=r[1]*t+r[3]*n,this.w=this.s=this.i=null,this}},{key:"rotateSelf",value:function(){var t=arguments.length>0&&void 0!==arguments[0]?arguments[0]:0;if(t%=360){var n=S(t*=I),r=O(t),e=this.m,i=e[0],u=e[1];e[0]=i*r+e[2]*n,e[1]=u*r+e[3]*n,e[2]=e[2]*r-i*n,e[3]=e[3]*r-u*n,this.w=this.s=this.i=null}return this}},{key:"scaleSelf",value:function(){var t=arguments.length>0&&void 0!==arguments[0]?arguments[0]:1,n=arguments.length>1&&void 0!==arguments[1]?arguments[1]:1;if(1!==t||1!==n){var r=this.m;r[0]*=t,r[1]*=t,r[2]*=n,r[3]*=n,this.w=this.s=this.i=null}return this}},{key:"skewSelf",value:function(t,n){if(n%=360,(t%=360)||n){var r=this.m,e=r[0],i=r[1],u=r[2],o=r[3];t&&(t=j(t*I),r[2]+=e*t,r[3]+=i*t),n&&(n=j(n*I),r[0]+=u*n,r[1]+=o*n),this.w=this.s=this.i=null}return this}},{key:"resetSelf",value:function(){var t=arguments.length>0&&void 0!==arguments[0]?arguments[0]:1,n=arguments.length>1&&void 0!==arguments[1]?arguments[1]:0,r=arguments.length>2&&void 0!==arguments[2]?arguments[2]:0,e=arguments.length>3&&void 0!==arguments[3]?arguments[3]:1,i=arguments.length>4&&void 0!==arguments[4]?arguments[4]:0,u=arguments.length>5&&void 0!==arguments[5]?arguments[5]:0,o=this.m;return o[0]=t,o[1]=n,o[2]=r,o[3]=e,o[4]=i,o[5]=u,this.w=this.s=this.i=null,this}},{key:"recomposeSelf",value:function(){var t=arguments.length>0&&void 0!==arguments[0]?arguments[0]:null,n=arguments.length>1&&void 0!==arguments[1]?arguments[1]:null,r=arguments.length>2&&void 0!==arguments[2]?arguments[2]:null,e=arguments.length>3&&void 0!==arguments[3]?arguments[3]:null,i=arguments.length>4&&void 0!==arguments[4]?arguments[4]:null;return this.isIdentity||this.resetSelf(),t&&(t.x||t.y)&&this.translateSelf(t.x,t.y),n&&this.rotateSelf(n),r&&(r.x&&this.skewSelf(r.x,0),r.y&&this.skewSelf(0,r.y)),!e||1===e.x&&1===e.y||this.scaleSelf(e.x,e.y),i&&(i.x||i.y)&&this.translateSelf(i.x,i.y),this}},{key:"decompose",value:function(){var t=arguments.length>0&&void 0!==arguments[0]?arguments[0]:0,n=arguments.length>1&&void 0!==arguments[1]?arguments[1]:0,r=this.m,e=r[0]*r[0]+r[1]*r[1],i=[[r[0],r[1]],[r[2],r[3]]],u=R(e);if(0===u)return{origin:{x:g(r[4]),y:g(r[5])},translate:{x:g(t),y:g(n)},scale:{x:0,y:0},skew:{x:0,y:0},rotate:0};i[0][0]/=u,i[0][1]/=u;var o=r[0]*r[3]-r[1]*r[2]<0;o&&(u=-u);var a=i[0][0]*i[1][0]+i[0][1]*i[1][1];i[1][0]-=i[0][0]*a,i[1][1]-=i[0][1]*a;var l=R(i[1][0]*i[1][0]+i[1][1]*i[1][1]);if(0===l)return{origin:{x:g(r[4]),y:g(r[5])},translate:{x:g(t),y:g(n)},scale:{x:g(u),y:0},skew:{x:0,y:0},rotate:0};i[1][0]/=l,i[1][1]/=l,a/=l;var s=0;return i[1][1]<0?(s=M(i[1][1])*B,i[0][1]<0&&(s=360-s)):s=E(i[0][1])*B,o&&(s=-s),a=P(a,R(i[0][0]*i[0][0]+i[0][1]*i[0][1]))*B,o&&(a=-a),{origin:{x:g(r[4]),y:g(r[5])},translate:{x:g(t),y:g(n)},scale:{x:g(u),y:g(l)},skew:{x:g(a),y:0},rotate:g(s)}}},{key:"clone",value:function(){var t=this.m;return new this.constructor(t[0],t[1],t[2],t[3],t[4],t[5])}},{key:"toString",value:function(){var t=arguments.length>0&&void 0!==arguments[0]?arguments[0]:" ";if(null===this.s){var n=this.m.map((function(t){return g(t)}));1===n[0]&&0===n[1]&&0===n[2]&&1===n[3]?this.s="translate("+n[4]+t+n[5]+")":this.s="matrix("+n.join(t)+")"}return this.s}}],[{key:"create",value:function(t){return t?Array.isArray(t)?f(this,v(t)):t instanceof this?t.clone():(new this).recomposeSelf(t.origin,t.rotate,t.skew,t.scale,t.translate):new this}}]),t}();function N(t,n,r){return t>=.5?r:n}function C(t,n,r){return 0===t||n===r?n:t*(r-n)+n}function F(t,n,r){var e=C(t,n,r);return e<=0?0:e}function L(t,n,r){var e=C(t,n,r);return e<=0?0:e>=1?1:e}function q(t,n,r){return 0===t?n:1===t?r:{x:C(t,n.x,r.x),y:C(t,n.y,r.y)}}function V(t,n,r){return 0===t?n:1===t?r:{x:F(t,n.x,r.x),y:F(t,n.y,r.y)}}function D(t,n,r){var e=function(t,n,r){return Math.round(C(t,n,r))}(t,n,r);return e<=0?0:e>=255?255:e}function z(t,n,r){return 0===t?n:1===t?r:{r:D(t,n.r,r.r),g:D(t,n.g,r.g),b:D(t,n.b,r.b),a:C(t,null==n.a?1:n.a,null==r.a?1:r.a)}}function Y(t,n,r){var e=n.length;if(e!==r.length)return N(t,n,r);for(var i=new Array(e),u=0;u<e;u++)i[u]=C(t,n[u],r[u]);return i}function G(t,n){for(var r=[],e=0;e<t;e++)r.push(n);return r}function U(t,n){if(--n<=0)return t;var r=(t=Object.assign([],t)).length;do{for(var e=0;e<r;e++)t.push(t[e])}while(--n>0);return t}var $,W=function(){function t(n){e(this,t),this.list=n,this.length=n.length}return u(t,[{key:"setAttribute",value:function(t,n){for(var r=this.list,e=0;e<this.length;e++)r[e].setAttribute(t,n)}},{key:"removeAttribute",value:function(t){for(var n=this.list,r=0;r<this.length;r++)n[r].removeAttribute(t)}},{key:"style",value:function(t,n){for(var r=this.list,e=0;e<this.length;e++)r[e].style[t]=n}}]),t}(),H=/-./g,Q=function(t,n){return n.toUpperCase()};function X(t){return"function"==typeof t?t:N}function J(t){return t?"function"==typeof t?t:Array.isArray(t)?function(t){var n=arguments.length>1&&void 0!==arguments[1]?arguments[1]:b;if(!Array.isArray(t))return n;switch(t.length){case 1:return _(t[0])||n;case 2:return _(t[0],t[1])||n;case 4:return A(t[0],t[1],t[2],t[3])||n}return n}(t,null):function(t,n){var r=arguments.length>2&&void 0!==arguments[2]?arguments[2]:b;switch(t){case"linear":return b;case"steps":return _(n.steps||1,n.jump||0)||r;case"bezier":case"cubic-bezier":return A(n.x1||0,n.y1||0,n.x2||0,n.y2||0)||r}return r}(t.type,t.value,null):null}function Z(t,n,r){var e=arguments.length>3&&void 0!==arguments[3]&&arguments[3],i=n.length-1;if(t<=n[0].t)return e?[0,0,n[0].v]:n[0].v;if(t>=n[i].t)return e?[i,1,n[i].v]:n[i].v;var u,o=n[0],a=null;for(u=1;u<=i;u++){if(!(t>n[u].t)){a=n[u];break}o=n[u]}return null==a?e?[i,1,n[i].v]:n[i].v:o.t===a.t?e?[u,1,a.v]:a.v:(t=(t-o.t)/(a.t-o.t),o.e&&(t=o.e(t)),e?[u,t,r(t,o.v,a.v)]:r(t,o.v,a.v))}function K(t,n){var r=arguments.length>2&&void 0!==arguments[2]?arguments[2]:null;return t&&t.length?"function"!=typeof n?null:("function"!=typeof r&&(r=null),function(e){var i=Z(e,t,n);return null!=i&&r&&(i=r(i)),i}):null}function tt(t,n){return t.t-n.t}function nt(t,n,e,i,u){var o,a="@"===e[0],l="#"===e[0],s=$[e],f=N;switch(a?(o=e.substr(1),e=o.replace(H,Q)):l&&(e=e.substr(1)),r(s)){case"function":if(f=s(i,u,Z,J,e,a,n,t),l)return f;break;case"string":f=K(i,X(s));break;case"object":if((f=K(i,X(s.i),s.f))&&"function"==typeof s.u)return s.u(n,f,e,a,t)}return f?function(t,n,r){if(arguments.length>3&&void 0!==arguments[3]&&arguments[3])return t instanceof W?function(e){return t.style(n,r(e))}:function(e){return t.style[n]=r(e)};if(Array.isArray(n)){var e=n.length;return function(i){var u=r(i);if(null==u)for(var o=0;o<e;o++)t[o].removeAttribute(n);else for(var a=0;a<e;a++)t[a].setAttribute(n,u)}}return function(e){var i=r(e);null==i?t.removeAttribute(n):t.setAttribute(n,i)}}(n,e,f,a):null}function rt(t,n,e,i){if(!i||"object"!==r(i))return null;var u=null,o=null;return Array.isArray(i)?o=function(t){if(!t||!t.length)return null;for(var n=0;n<t.length;n++)t[n].e&&(t[n].e=J(t[n].e));return t.sort(tt)}(i):(o=i.keys,u=i.data||null),o?nt(t,n,e,o,u):null}function et(t,n,r){if(!r)return null;var e=[];for(var i in r)if(r.hasOwnProperty(i)){var u=rt(t,n,i,r[i]);u&&e.push(u)}return e.length?e:null}function it(t,n){if(!n.duration||n.duration<0)return null;var r=function(t,n){if(!n)return null;var r=[];if(Array.isArray(n))for(var e=n.length,i=0;i<e;i++){var u=n[i];if(2===u.length){var o=null;if("string"==typeof u[0])o=t.getElementById(u[0]);else if(Array.isArray(u[0])){o=[];for(var a=0;a<u[0].length;a++)if("string"==typeof u[0][a]){var l=t.getElementById(u[0][a]);l&&o.push(l)}o=o.length?1===o.length?o[0]:new W(o):null}if(o){var s=et(t,o,u[1]);s&&(r=r.concat(s))}}}else for(var f in n)if(n.hasOwnProperty(f)){var c=t.getElementById(f);if(c){var h=et(t,c,n[f]);h&&(r=r.concat(h))}}return r.length?r:null}(t,n.elements);return r?function(t,n){var r=arguments.length>2&&void 0!==arguments[2]?arguments[2]:1/0,e=arguments.length>3&&void 0!==arguments[3]?arguments[3]:1,i=arguments.length>4&&void 0!==arguments[4]&&arguments[4],u=arguments.length>5&&void 0!==arguments[5]?arguments[5]:1,o=t.length,a=e>0?n:0;i&&r%2==0&&(a=n-a);var l=null;return function(s,f){var c=s%n,h=1+(s-c)/n;f*=e,i&&h%2==0&&(f=-f);var v=!1;if(h>r)c=a,v=!0,-1===u&&(c=e>0?0:n);else if(f<0&&(c=n-c),c===l)return!1;l=c;for(var d=0;d<o;d++)t[d](c);return v}}(r,n.duration,n.iterations||1/0,n.direction||1,!!n.alternate,n.fill||1):null}function ut(t){return+("0x"+(t.replace(/[^0-9a-fA-F]+/g,"")||27))}function ot(t,n,r){return!t||!r||n>t.length?t:t.substring(0,n)+ot(t.substring(n+1),r,r)}function at(t){var n=arguments.length>1&&void 0!==arguments[1]?arguments[1]:27;return!t||t%n?t%n:at(t/n,n)}function lt(t,n,r){if(t&&t.length){var e=ut(r),i=ut(n),u=at(e)+5,o=ot(t,at(e,5),u);return o=o.replace(/\x7c$/g,"==").replace(/\x2f$/g,"="),o=function(t,n,r){var e=+("0x"+t.substring(0,4));t=t.substring(4);for(var i=n%e+r%27,u=[],o=0;o<t.length;o+=2)if("|"!==t[o]){var a=+("0x"+t[o]+t[o+1])-i;u.push(a)}else{var l=+("0x"+t.substring(o+1,o+1+4))-i;o+=3,u.push(l)}return String.fromCharCode.apply(String,u)}(o=(o=atob(o)).replace(/[\x41-\x5A]/g,""),i,e),o=JSON.parse(o)}}Number.isInteger||(Number.isInteger=function(t){return"number"==typeof t&&isFinite(t)&&Math.floor(t)===t}),Number.EPSILON||(Number.EPSILON=2220446049250313e-31);var st=function(){function t(n,r){var i=arguments.length>2&&void 0!==arguments[2]?arguments[2]:{};e(this,t),this._id=0,this._running=!1,this._rollingBack=!1,this._animations=n,this.duration=r.duration,this.alternate=r.alternate,this.fill=r.fill,this.iterations=r.iterations,this.direction=i.direction||1,this.speed=i.speed||1,this.fps=i.fps||100,this.offset=i.offset||0,this.rollbackStartOffset=0}return u(t,[{key:"_rollback",value:function(){var t=this,n=1/0,r=null;this.rollbackStartOffset=this.offset,this._rollingBack||(this._rollingBack=!0,this._running=!0);this._id=window.requestAnimationFrame((function e(i){if(t._rollingBack){null==r&&(r=i);var u=i-r,o=t.rollbackStartOffset-u,a=Math.round(o*t.speed);if(a>t.duration&&n!=1/0){var l=!!t.alternate&&a/t.duration%2>1,s=a%t.duration;a=(s+=l?t.duration:0)||t.duration}var f=t.fps?1e3/t.fps:0,c=Math.max(0,a);if(c<n-f){t.offset=c,n=c;for(var h=t._animations,v=h.length,d=0;d<v;d++)h[d](c,t.direction)}var y=!1;if(t.iterations>0&&-1===t.fill){var g=t.iterations*t.duration,p=g==a;a=p?0:a,t.offset=p?0:t.offset,y=a>g}a>0&&t.offset>=a&&!y?t._id=window.requestAnimationFrame(e):t.stop()}}))}},{key:"_start",value:function(){var t=this,n=arguments.length>0&&void 0!==arguments[0]?arguments[0]:0,r=-1/0,e=null,i={},u=function u(o){t._running=!0,null==e&&(e=o);var a=Math.round((o-e+n)*t.speed),l=t.fps?1e3/t.fps:0;if(a>r+l&&!t._rollingBack){t.offset=a,r=a;for(var s=t._animations,f=s.length,c=0,h=0;h<f;h++)i[h]?c++:(i[h]=s[h](a,t.direction),i[h]&&c++);if(c===f)return void t._stop()}t._id=window.requestAnimationFrame(u)};this._id=window.requestAnimationFrame(u)}},{key:"_stop",value:function(){this._id&&window.cancelAnimationFrame(this._id),this._running=!1,this._rollingBack=!1}},{key:"play",value:function(){!this._rollingBack&&this._running||(this._rollingBack=!1,this.rollbackStartOffset>this.duration&&(this.offset=this.rollbackStartOffset-(this.rollbackStartOffset-this.offset)%this.duration,this.rollbackStartOffset=0),this._start(this.offset))}},{key:"stop",value:function(){this._stop(),this.offset=0,this.rollbackStartOffset=0;var t=this.direction,n=this._animations;window.requestAnimationFrame((function(){for(var r=0;r<n.length;r++)n[r](0,t)}))}},{key:"reachedToEnd",value:function(){return this.iterations>0&&this.offset>=this.iterations*this.duration}},{key:"restart",value:function(){this._stop(),this.offset=0,this._start()}},{key:"pause",value:function(){this._stop()}},{key:"reverse",value:function(){this.direction=-this.direction}}],[{key:"build",value:function(r,e){return delete r.animationSettings,r.options=lt(r.options,r.root,"91c80d77"),r.animations.map((function(t){var e=lt(t.s,r.root,"91c80d77");for(var i in delete t.s,r.animationSettings||(r.animationSettings=n({},e)),e)e.hasOwnProperty(i)&&(t[i]=e[i])})),(r=function(t,n){if($=n,!t||!t.root||!Array.isArray(t.animations))return null;for(var r=document.getElementsByTagName("svg"),e=!1,i=0;i<r.length;i++)if(r[i].id===t.root&&!r[i].svgatorAnimation){(e=r[i]).svgatorAnimation=!0;break}if(!e)return null;var u=t.animations.map((function(t){return it(e,t)})).filter((function(t){return!!t}));return u.length?{element:e,animations:u,animationSettings:t.animationSettings,options:t.options||void 0}:null}(r,e))?{el:r.element,options:r.options||{},player:new t(r.animations,r.animationSettings,r.options)}:null}},{key:"push",value:function(t){return this.build(t)}},{key:"init",value:function(){var t=this,n=window.__SVGATOR_PLAYER__&&window.__SVGATOR_PLAYER__["91c80d77"];Array.isArray(n)&&n.splice(0).forEach((function(n){return t.build(n)}))}}]),t}();!function(){for(var t=0,n=["ms","moz","webkit","o"],r=0;r<n.length&&!window.requestAnimationFrame;++r)window.requestAnimationFrame=window[n[r]+"RequestAnimationFrame"],window.cancelAnimationFrame=window[n[r]+"CancelAnimationFrame"]||window[n[r]+"CancelRequestAnimationFrame"];window.requestAnimationFrame||(window.requestAnimationFrame=function(n){var r=Date.now(),e=Math.max(0,16-(r-t)),i=window.setTimeout((function(){n(r+e)}),e);return t=r+e,i},window.cancelAnimationFrame=window.clearTimeout)}();var ft=function(t,n){var r=!1,e=null;return function(i){r&&clearTimeout(r),r=setTimeout((function(){return function(){for(var i=0,u=window.innerHeight,o=0,a=window.innerWidth,l=t.parentNode;l instanceof Element;){var s=window.getComputedStyle(l);if("visible"!==s.overflowY||"visible"!==s.overflowX){var f=l.getBoundingClientRect();"visible"!==s.overflowY&&(i=Math.max(i,f.top),u=Math.min(u,f.bottom)),"visible"!==s.overflowX&&(o=Math.max(o,f.left),a=Math.min(a,f.right))}if(l===l.parentNode)break;l=l.parentNode}r=!1;var c=t.getBoundingClientRect(),h=Math.min(c.height,Math.max(0,i-c.top)),v=Math.min(c.height,Math.max(0,c.bottom-u)),d=Math.min(c.width,Math.max(0,o-c.left)),y=Math.min(c.width,Math.max(0,c.right-a)),g=(c.height-h-v)/c.height,p=(c.width-d-y)/c.width,m=Math.round(g*p*100);null!==e&&e===m||(e=m,n(m))}()}),100)}},ct=function(){function t(n,r,i){e(this,t),r=Math.max(1,r||1),r=Math.min(r,100),this.el=n,this.onTresholdChange=i&&i.call?i:function(){},this.tresholdPercent=r||1,this.currentVisibility=null,this.visibilityCalculator=ft(n,this.onVisibilityUpdate.bind(this)),this.bindScrollWatchers(),this.visibilityCalculator()}return u(t,[{key:"bindScrollWatchers",value:function(){for(var t=this.el.parentNode;t&&(t.addEventListener("scroll",this.visibilityCalculator),t!==t.parentNode&&t!==document);)t=t.parentNode}},{key:"onVisibilityUpdate",value:function(t){var n=this.currentVisibility>=this.tresholdPercent,r=t>=this.tresholdPercent;if(null===this.currentVisibility||n!==r)return this.currentVisibility=t,void this.onTresholdChange(r);this.currentVisibility=t}}]),t}();function ht(t){return g(t)+""}function vt(t){var n=arguments.length>1&&void 0!==arguments[1]?arguments[1]:" ";return t&&t.length?t.map(ht).join(n):""}function dt(t){return ht(t.x)+","+ht(t.y)}function yt(t){if(!t)return"transparent";if(null==t.a||t.a>=1){var n=function(t){return 1===(t=parseInt(t).toString(16)).length?"0"+t:t},r=function(t){return t.charAt(0)===t.charAt(1)},e=n(t.r),i=n(t.g),u=n(t.b);return r(e)&&r(i)&&r(u)&&(e=e.charAt(0),i=i.charAt(0),u=u.charAt(0)),"#"+e+i+u}return"rgba("+t.r+","+t.g+","+t.b+","+t.a+")"}function gt(t){return t?"url(#"+t+")":"none"}var pt={f:null,i:V,u:function(t,n){return function(r){var e=n(r);t.setAttribute("rx",ht(e.x)),t.setAttribute("ry",ht(e.y))}}},mt={f:null,i:function(t,n,r){return 0===t?n:1===t?r:{width:F(t,n.width,r.width),height:F(t,n.height,r.height)}},u:function(t,n){return function(r){var e=n(r);t.setAttribute("width",ht(e.width)),t.setAttribute("height",ht(e.height))}}};Object.freeze({M:2,L:2,Z:0,H:1,V:1,C:6,Q:4,T:2,S:4,A:7});var bt={},wt=null;function At(t){var n=function(){if(wt)return wt;if("object"!==("undefined"==typeof document?"undefined":r(document))||!document.createElementNS)return{};var t=document.createElementNS("http://www.w3.org/2000/svg","svg");return t&&t.style?(t.style.position="absolute",t.style.opacity="0.01",t.style.zIndex="-9999",t.style.left="-9999px",t.style.width="1px",t.style.height="1px",wt={svg:t}):{}}().svg;if(!n)return function(t){return null};var e=document.createElementNS(n.namespaceURI,"path");e.setAttributeNS(null,"d",t),e.setAttributeNS(null,"fill","none"),e.setAttributeNS(null,"stroke","none"),n.appendChild(e);var i=e.getTotalLength();return function(t){var n=e.getPointAtLength(i*t);return{x:n.x,y:n.y}}}function xt(t){return bt[t]?bt[t]:bt[t]=At(t)}function kt(t,n,r,e){if(!t||!e)return!1;var i=["M",t.x,t.y];if(n&&r&&(i.push("C"),i.push(n.x),i.push(n.y),i.push(r.x),i.push(r.y)),n?!r:r){var u=n||r;i.push("Q"),i.push(u.x),i.push(u.y)}return n||r||i.push("L"),i.push(e.x),i.push(e.y),i.join(" ")}function _t(t,n,r,e){var i=arguments.length>4&&void 0!==arguments[4]?arguments[4]:1,u=kt(t,n,r,e),o=xt(u);try{return o(i)}catch(t){return null}}function St(t,n,r,e){var i=1-e;return i*i*t+2*i*e*n+e*e*r}function Ot(t,n,r,e){return 2*(1-e)*(n-t)+2*e*(r-n)}function Mt(t,n,r,e){var i=arguments.length>4&&void 0!==arguments[4]&&arguments[4],u=_t(t,n,null,r,e);return u||(u={x:St(t.x,n.x,r.x,e),y:St(t.y,n.y,r.y,e)}),i&&(u.a=Et(t,n,r,e)),u}function Et(t,n,r,e){return Math.atan2(Ot(t.y,n.y,r.y,e),Ot(t.x,n.x,r.x,e))}function jt(t,n,r,e,i){var u=i*i;return i*u*(e-t+3*(n-r))+3*u*(t+r-2*n)+3*i*(n-t)+t}function Pt(t,n,r,e,i){var u=1-i;return 3*(u*u*(n-t)+2*u*i*(r-n)+i*i*(e-r))}function It(t,n,r,e,i){var u=arguments.length>5&&void 0!==arguments[5]&&arguments[5],o=_t(t,n,r,e,i);return o||(o={x:jt(t.x,n.x,r.x,e.x,i),y:jt(t.y,n.y,r.y,e.y,i)}),u&&(o.a=Bt(t,n,r,e,i)),o}function Bt(t,n,r,e,i){return Math.atan2(Pt(t.y,n.y,r.y,e.y,i),Pt(t.x,n.x,r.x,e.x,i))}function Rt(t,n,r){return t+(n-t)*r}function Tt(t,n,r){var e=arguments.length>3&&void 0!==arguments[3]&&arguments[3],i={x:Rt(t.x,n.x,r),y:Rt(t.y,n.y,r)};return e&&(i.a=Nt(t,n)),i}function Nt(t,n){return Math.atan2(n.y-t.y,n.x-t.x)}function Ct(t,n,r){var e=arguments.length>3&&void 0!==arguments[3]&&arguments[3];if(Lt(n)){if(qt(r))return Mt(n,r.start,r,t,e)}else if(Lt(r)){if(n.end)return Mt(n,n.end,r,t,e)}else{if(n.end)return r.start?It(n,n.end,r.start,r,t,e):Mt(n,n.end,r,t,e);if(r.start)return Mt(n,r.start,r,t,e)}return Tt(n,r,t,e)}function Ft(t,n,r){var e=Ct(t,n,r,!0);return e.a=function(t){return arguments.length>1&&void 0!==arguments[1]&&arguments[1]?t+Math.PI:t}(e.a)/m,e}function Lt(t){return!t.type||"corner"===t.type}function qt(t){return null!=t.start&&!Lt(t)}var Vt=new T;var Dt={f:function(t){return t?t.join(" "):""},i:function(t,n,e){if(0===t)return n;if(1===t)return e;var i=n.length;if(i!==e.length)return N(t,n,e);for(var u,o=new Array(i),a=0;a<i;a++){if((u=r(n[a]))!==r(e[a]))return N(t,n,e);if("number"===u)o[a]=C(t,n[a],e[a]);else{if(n[a]!==e[a])return N(t,n,e);o[a]=n[a]}}return o}},zt={f:null,i:Y,u:function(t,n){return function(r){var e=n(r);t.setAttribute("x1",ht(e[0])),t.setAttribute("y1",ht(e[1])),t.setAttribute("x2",ht(e[2])),t.setAttribute("y2",ht(e[3]))}}},Yt={f:ht,i:C},Gt={f:ht,i:L},Ut={f:function(t){var n=arguments.length>1&&void 0!==arguments[1]?arguments[1]:" ";return t&&t.length>0&&(t=t.map((function(t){return g(t,4)}))),vt(t,n)},i:function(t,n,r){var e,i,u,o=n.length,a=r.length;if(o!==a)if(0===o)n=G(o=a,0);else if(0===a)a=o,r=G(o,0);else{var l=(u=(e=o)*(i=a)/function(t,n){for(var r;n;)r=n,n=t%n,t=r;return t||1}(e,i))<0?-u:u;n=U(n,Math.floor(l/o)),r=U(r,Math.floor(l/a)),o=a=l}for(var s=[],f=0;f<o;f++)s.push(g(F(t,n[f],r[f])));return s}};function $t(t,n,r){return t.map((function(t){return function(t,n,r){var e=t.v;if(!e||"g"!==e.t||e.s||!e.v||!e.r)return t;var i=r.getElementById(e.r),u=i&&i.querySelectorAll("stop")||[];return e.s=e.v.map((function(t,n){var r=u[n]&&u[n].getAttribute("offset");return{c:t,o:r=g(parseInt(r)/100)}})),delete e.v,t}(t,0,r)}))}var Wt={gt:"gradientTransform",c:{x:"cx",y:"cy"},rd:"r",f:{x:"x1",y:"y1"},to:{x:"x2",y:"y2"}};function Ht(t,n,e,i,u,o,a,l){return $t(t,0,l),n=function(t,n,r){for(var e,i,u,o=t.length-1,a={},l=0;l<=o;l++)(e=t[l]).e&&(e.e=n(e.e)),e.v&&"g"===(i=e.v).t&&i.r&&(u=r.getElementById(i.r))&&(a[i.r]={e:u,s:u.querySelectorAll("stop")});return a}(t,i,l),function(i){var u=e(i,t,Qt);if(!u)return"none";if("c"===u.t)return yt(u.v);if("g"===u.t){if(!n[u.r])return gt(u.r);var o=n[u.r];return function(t,n){for(var r=t.s,e=r.length;e<n.length;e++){var i=r[r.length-1].cloneNode();i.id=Zt(i.id),t.e.appendChild(i),r=t.s=t.e.querySelectorAll("stop")}for(var u=0,o=r.length,a=n.length-1;u<o;u++)r[u].setAttribute("stop-color",yt(n[Math.min(u,a)].c)),r[u].setAttribute("offset",n[Math.min(u,a)].o)}(o,u.s),Object.keys(Wt).forEach((function(t){if(void 0!==u[t])if("object"!==r(Wt[t])){var n,e="gt"===t?(n=u[t],Array.isArray(n)?"matrix("+n.join(" ")+")":""):u[t],i=Wt[t];o.e.setAttribute(i,e)}else Object.keys(Wt[t]).forEach((function(n){if(void 0!==u[t][n]){var r=u[t][n],e=Wt[t][n];o.e.setAttribute(e,r)}}))})),gt(u.r)}return"none"}}function Qt(t,r,e){if(0===t)return r;if(1===t)return e;if(r&&e){var i=r.t;if(i===e.t)switch(r.t){case"c":return{t:i,v:z(t,r.v,e.v)};case"g":if(r.r===e.r){var u={t:i,s:Xt(t,r.s,e.s),r:r.r};return r.gt&&e.gt&&(u.gt=Y(t,r.gt,e.gt)),r.c?(u.c=q(t,r.c,e.c),u.rd=F(t,r.rd,e.rd)):r.f&&(u.f=q(t,r.f,e.f),u.to=q(t,r.to,e.to)),u}}if("c"===r.t&&"g"===e.t||"c"===e.t&&"g"===r.t){var o="c"===r.t?r:e,a="g"===r.t?n({},r):n({},e),l=a.s.map((function(t){return{c:o.v,o:t.o}}));return a.s="c"===r.t?Xt(t,l,a.s):Xt(t,a.s,l),a}}return N(t,r,e)}function Xt(t,n,r){if(n.length===r.length)return n.map((function(n,e){return Jt(t,n,r[e])}));for(var e=Math.max(n.length,r.length),i=[],u=0;u<e;u++){var o=Jt(t,n[Math.min(u,n.length-1)],r[Math.min(u,r.length-1)]);i.push(o)}return i}function Jt(t,n,r){return{o:L(t,n.o,r.o||0),c:z(t,n.c,r.c||{})}}function Zt(t){return t.replace(/-fill-([0-9]+)$/,(function(t,n){return"-fill-"+(+n+1)}))}var Kt={blur:V,brightness:F,contrast:F,"drop-shadow":function(t,n,r){return 0===t?n:1===t?r:{blur:V(t,n.blur,r.blur),offset:q(t,n.offset,r.offset),color:z(t,n.color,r.color)}},grayscale:F,"hue-rotate":C,invert:F,opacity:F,saturate:F,sepia:F};function tn(t,n,r){if(0===t)return n;if(1===t)return r;var e=n.length;if(e!==r.length)return N(t,n,r);for(var i,u=[],o=0;o<e;o++){if(n[o].type!==r[o].type)return n;if(!(i=Kt[n[o].type]))return N(t,n,r);u.push({type:n.type,value:i(t,n[o].value,r[o].value)})}return u}var nn={blur:function(t){return t?function(n){t.setAttribute("stdDeviation",dt(n))}:null},brightness:function(t,n,r){return(t=en(r,n))?function(n){n=ht(n),t.map((function(t){return t.setAttribute("slope",n)}))}:null},contrast:function(t,n,r){return(t=en(r,n))?function(n){var r=ht((1-n)/2);n=ht(n),t.map((function(t){t.setAttribute("slope",n),t.setAttribute("intercept",r)}))}:null},"drop-shadow":function(t,n,r){var e=r.getElementById(n+"-blur");if(!e)return null;var i=r.getElementById(n+"-offset");if(!i)return null;var u=r.getElementById(n+"-flood");return u?function(t){e.setAttribute("stdDeviation",dt(t.blur)),i.setAttribute("dx",ht(t.offset.x)),i.setAttribute("dy",ht(t.offset.y)),u.setAttribute("flood-color",yt(t.color))}:null},grayscale:function(t){return t?function(n){t.setAttribute("values",vt(function(t){return[.2126+.7874*(t=1-t),.7152-.7152*t,.0722-.0722*t,0,0,.2126-.2126*t,.7152+.2848*t,.0722-.0722*t,0,0,.2126-.2126*t,.7152-.7152*t,.0722+.9278*t,0,0,0,0,0,1,0]}(n)))}:null},"hue-rotate":function(t){return t?function(n){return t.setAttribute("values",ht(n))}:null},invert:function(t,n,r){return(t=en(r,n))?function(n){n=ht(n)+" "+ht(1-n),t.map((function(t){return t.setAttribute("tableValues",n)}))}:null},opacity:function(t,n,r){return(t=r.getElementById(n+"-A"))?function(n){return t.setAttribute("tableValues","0 "+ht(n))}:null},saturate:function(t){return t?function(n){return t.setAttribute("values",ht(n))}:null},sepia:function(t){return t?function(n){return t.setAttribute("values",vt(function(t){return[.393+.607*(t=1-t),.769-.769*t,.189-.189*t,0,0,.349-.349*t,.686+.314*t,.168-.168*t,0,0,.272-.272*t,.534-.534*t,.131+.869*t,0,0,0,0,0,1,0]}(n)))}:null}};var rn=["R","G","B"];function en(t,n){var r=rn.map((function(r){return t.getElementById(n+"-"+r)||null}));return-1!==r.indexOf(null)?null:r}var un={fill:Ht,"fill-opacity":Gt,stroke:Ht,"stroke-opacity":Gt,"stroke-width":Yt,"stroke-dashoffset":{f:ht,i:C},"stroke-dasharray":Ut,opacity:Gt,transform:function(t,n,e,i){if(!(t=function(t,n){if(!t||"object"!==r(t))return null;var e=!1;for(var i in t)t.hasOwnProperty(i)&&(t[i]&&t[i].length?(t[i].forEach((function(t){t.e&&(t.e=n(t.e))})),e=!0):delete t[i]);return e?t:null}(t,i)))return null;var u=function(r,i,u){var o=arguments.length>3&&void 0!==arguments[3]?arguments[3]:null;return t[r]?e(i,t[r],u):n&&n[r]?n[r]:o};return n&&n.a&&t.o?function(n){var r=e(n,t.o,Ft);return Vt.recomposeSelf(r,u("r",n,C,0)+r.a,u("k",n,q),u("s",n,q),u("t",n,q)).toString()}:function(t){return Vt.recomposeSelf(u("o",t,Ct,null),u("r",t,C,0),u("k",t,q),u("s",t,q),u("t",t,q)).toString()}},"#filter":function(t,n,r,e,i,u,o,a){if(!n.items||!t||!t.length)return null;var l=function(t,n){var r=(t=t.map((function(t){return t&&nn[t[0]]?(n.getElementById(t[1]),nn[t[0]](n.getElementById(t[1]),t[1],n)):null}))).length;return function(n){for(var e=0;e<r;e++)t[e]&&t[e](n[e].value)}}(n.items,a);return l?(t=function(t,n){return t.map((function(t){return t.e=n(t.e),t}))}(t,e),function(n){l(r(n,t,tn))}):null},"#line":zt,points:{f:vt,i:Y},d:Dt,r:Yt,"#size":mt,"#radius":pt,_:function(t,n){if(Array.isArray(t))for(var r=0;r<t.length;r++)this[t[r]]=n;else this[t]=n}},on=function(t){!function(t,n){if("function"!=typeof n&&null!==n)throw new TypeError("Super expression must either be null or a function");t.prototype=Object.create(n&&n.prototype,{constructor:{value:t,writable:!0,configurable:!0}}),n&&l(t,n)}(o,t);var n,r,i=(n=o,r=s(),function(){var t,e=a(n);if(r){var i=a(this).constructor;t=Reflect.construct(e,arguments,i)}else t=e.apply(this,arguments);return c(this,t)});function o(){return e(this,o),i.apply(this,arguments)}return u(o,null,[{key:"build",value:function(t){var n=h(a(o),"build",this).call(this,t,un);if(!n)return null;var r=n.el,e=n.options,i=n.player;return function(t,n,r){if("click"===r.start){var e=function(){switch(r.click){case"freeze":return!t._running&&t.reachedToEnd()&&(t.offset=0),t._running?t.pause():t.play();case"restart":return t.offset>0?t.restart():t.play();case"reverse":var n=!t._rollingBack&&t._running,e=t.reachedToEnd();return n||e&&1===t.fill?(t.pause(),e&&(t.offset=t.duration-1),t._rollback()):e?t.restart():t.play();case"none":default:return!t._running&&t.offset?t.restart():t.play()}};return void n.addEventListener("click",e)}if("hover"===r.start)return n.addEventListener("mouseenter",(function(){return t.reachedToEnd()?t.restart():t.play()})),void n.addEventListener("mouseleave",(function(){switch(r.hover){case"freeze":return t.pause();case"reset":return t.stop();case"reverse":return t.pause(),t._rollback();case"none":default:return}}));if("scroll"===r.start)return void new ct(n,r.scroll||25,(function(n){n?t.reachedToEnd()?t.restart():t.play():t.pause()}));t.play()}(i,r,e),i}}]),o}(st);return on.init(),on}));
(function(s,i,o,w){w[o]=w[o]||{};w[o][s]=w[o][s]||[];w[o][s].push(i);})('91c80d77',{"root":"e108MLhD53S1","animations":[{"elements":{"e108MLhD53S25":{"transform":{"data":{"t":{"x":-599.5,"y":-287.5}},"keys":{"o":[{"t":0,"v":{"x":599.137146,"y":287.422089,"type":"corner"},"e":[0.445,0.05,0.55,0.95]},{"t":1500,"v":{"x":546.636963,"y":295.319,"type":"cusp","end":{"x":558.596179,"y":284.341586}},"e":[0.445,0.05,0.55,0.95]},{"t":3000,"v":{"x":599.137146,"y":287.422089,"type":"cusp","start":{"x":584.284234,"y":298.027382}}}]}}},"e108MLhD53S28":{"transform":{"data":{"t":{"x":-636,"y":-204}},"keys":{"o":[{"t":0,"v":{"x":636.578125,"y":204.131516,"type":"corner"},"e":[0.445,0.05,0.55,0.95]},{"t":1500,"v":{"x":563.217804,"y":174.001022,"type":"cusp","end":{"x":575.455886,"y":206.731923}},"e":[0.445,0.05,0.55,0.95]},{"t":3000,"v":{"x":636.578125,"y":204.131516,"type":"cusp","start":{"x":616.210937,"y":164.944068}}}]}}},"e108MLhD53S31":{"transform":{"data":{"t":{"x":-780.5,"y":-332.5}},"keys":{"o":[{"t":0,"v":{"x":780.765381,"y":332.819,"type":"corner"},"e":[0.445,0.05,0.55,0.95]},{"t":1500,"v":{"x":694.590027,"y":318.819,"type":"cusp","end":{"x":716.120254,"y":303.194676}},"e":[0.445,0.05,0.55,0.95]},{"t":3000,"v":{"x":780.765381,"y":332.819,"type":"cusp","start":{"x":744.397304,"y":347.25263}}}]}}},"e108MLhD53S34":{"transform":{"data":{"t":{"x":-214.890258,"y":-206.440572}},"keys":{"o":[{"t":0,"v":{"x":214.286117,"y":206.441594,"type":"cusp","end":{"x":214.286117,"y":206.441594}},"e":[0.445,0.05,0.55,0.95]},{"t":1500,"v":{"x":266.966258,"y":184.441594,"type":"cusp","start":{"x":268.314815,"y":184.441594},"end":{"x":310.905126,"y":185.467721}},"e":[0.445,0.05,0.55,0.95]},{"t":3000,"v":{"x":214.286117,"y":206.441594,"type":"cusp","start":{"x":256.876428,"y":207.467721}}}]}}},"e108MLhD53S37":{"transform":{"data":{"t":{"x":-362.5,"y":-141.5}},"keys":{"o":[{"t":0,"v":{"x":362.22467,"y":141.000214,"type":"corner"},"e":[0.445,0.05,0.55,0.95]},{"t":1500,"v":{"x":428.862457,"y":145.277399,"type":"cusp","end":{"x":411.550015,"y":127.44408}},"e":[0.445,0.05,0.55,0.95]},{"t":3000,"v":{"x":362.22467,"y":141.000214,"type":"cusp","start":{"x":379.92912,"y":159.905913}}}]}}},"e108MLhD53S40":{"transform":{"data":{"t":{"x":-698.5,"y":-250}},"keys":{"o":[{"t":0,"v":{"x":698.827698,"y":250.410721,"type":"corner"},"e":[0.445,0.05,0.55,0.95]},{"t":1500,"v":{"x":640.078125,"y":262,"type":"cusp","end":{"x":659.888447,"y":278.075115}},"e":[0.445,0.05,0.55,0.95]},{"t":3000,"v":{"x":698.827698,"y":250.410721,"type":"cusp","start":{"x":669.414033,"y":240.022984}}}]}}},"e108MLhD53S43":{"transform":{"data":{"t":{"x":-322.5,"y":-198}},"keys":{"o":[{"t":0,"v":{"x":322.974976,"y":198.231598,"type":"corner"},"e":[0.445,0.05,0.55,0.95]},{"t":1500,"v":{"x":439.362457,"y":198.001022,"type":"cusp","end":{"x":403.944766,"y":223.117974}},"e":[0.445,0.05,0.55,0.95]},{"t":3000,"v":{"x":322.974976,"y":198.231598,"type":"cusp","start":{"x":353.679995,"y":171.737437}}}]}}},"e108MLhD53S46":{"transform":{"data":{"t":{"x":-290.5,"y":-295.5}},"keys":{"o":[{"t":0,"v":{"x":290.994934,"y":295.364502,"type":"cusp","end":{"x":324.220723,"y":278.080382}},"e":[0.445,0.05,0.55,0.95]},{"t":1500,"v":{"x":378.22467,"y":310.319,"type":"cusp","start":{"x":352.306601,"y":329.2667}},"e":[0.445,0.05,0.55,0.95]},{"t":3000,"v":{"x":290.994934,"y":295.364502,"type":"corner"}}]}}},"e108MLhD53S49":{"transform":{"data":{"t":{"x":-378.5,"y":-248}},"keys":{"o":[{"t":0,"v":{"x":378.497375,"y":248.150162,"type":"corner"},"e":[0.445,0.05,0.55,0.95]},{"t":1500,"v":{"x":335.744,"y":251,"type":"cusp","end":{"x":349.025094,"y":237.499437}},"e":[0.445,0.05,0.55,0.95]},{"t":3000,"v":{"x":378.497375,"y":248.150162,"type":"cusp","start":{"x":365.35521,"y":262.549651}}}]}}},"e108MLhD53S52":{"transform":{"data":{"o":{"x":500,"y":177,"type":"corner"},"t":{"x":-500,"y":-177}},"keys":{"s":[{"t":0,"v":{"x":1,"y":1},"e":[0.25,1,0.25,1]},{"t":1200,"v":{"x":1,"y":1},"e":[0.445,0.05,0.55,0.95]},{"t":1400,"v":{"x":1.2,"y":1.2},"e":[0.445,0.05,0.55,0.95]},{"t":1600,"v":{"x":1,"y":1},"e":[0.25,1,0.25,1]},{"t":3000,"v":{"x":1,"y":1}}]}}}},"s":"MDVA1Mzg5MzA3MVjgzODA2ZjgyNNzdJN2Q3YzMGwNDg0MTNlM2AUzZTNhMzA3MIjc3ODA3MzcxHODJZNzc3ZDdLjMzA0OFYzZjMNhMzA3N1M4MAjczODA2ZjgyNNzc3ZDdjODEOzMDQ4M2UzYTKMwNzQ3NzdhNW2EzMDQ4M2YzOYTMwTzZmN2FPJODI3MzgwN2EM2ZjgyNzMzMUDQ4NzQ2ZjdhLODE3MzNhMzAV4MTdlNzM3MzLcyMzA0OE4zZGk84Yg|"}],"options":"MDJAxZTkwMzc4OGDg5NzY4N0s4FOTM3NGYzNzgQ4Nzg4Nzg0ODHE4MTM3NDEzNLzg4NzhLODc4YNEw4MTgxMzcS0ZjQ3NGFSOTVI/"},'__SVGATOR_PLAYER__',window)]]></script></svg>