<svg width="35" height="35" viewBox="0 0 35 35" fill="none" xmlns="http://www.w3.org/2000/svg">
<path d="M0 10C0 4.47715 4.47715 0 10 0H25C30.5228 0 35 4.47715 35 10V25C35 30.5228 30.5228 35 25 35H10C4.47715 35 0 30.5228 0 25V10Z" fill="#6E82A4"/>
<g clip-path="url(#clip0_1042_693)">
<path d="M26.1636 9.76247C24.5701 9.01528 22.8614 8.46478 21.0749 8.14949C21.0424 8.1434 21.0099 8.15861 20.9931 8.18903C20.7733 8.58846 20.5299 9.10956 20.3595 9.51914C18.4379 9.22514 16.5262 9.22514 14.6441 9.51914C14.4736 9.10045 14.2213 8.58846 14.0006 8.18903C13.9838 8.15963 13.9513 8.14442 13.9188 8.14949C12.1332 8.46377 10.4245 9.01427 8.83014 9.76247C8.81634 9.76855 8.80451 9.7787 8.79666 9.79187C5.55562 14.7403 4.66776 19.5671 5.10331 24.334C5.10528 24.3573 5.11809 24.3797 5.13583 24.3938C7.27418 25.9987 9.34553 26.973 11.3784 27.6188C11.411 27.6289 11.4454 27.6167 11.4661 27.5894C11.947 26.9182 12.3757 26.2106 12.7432 25.4664C12.7649 25.4229 12.7442 25.3711 12.6999 25.3539C12.0199 25.0903 11.3725 24.7689 10.7497 24.404C10.7005 24.3746 10.6965 24.3026 10.7418 24.2681C10.8729 24.1677 11.004 24.0633 11.1291 23.9579C11.1518 23.9386 11.1833 23.9346 11.2099 23.9467C15.3013 25.8558 19.7308 25.8558 23.7739 23.9467C23.8005 23.9336 23.8321 23.9376 23.8557 23.9569C23.9809 24.0623 24.1119 24.1677 24.244 24.2681C24.2893 24.3026 24.2863 24.3746 24.2371 24.404C23.6143 24.776 22.9669 25.0903 22.2859 25.3529C22.2416 25.3701 22.2219 25.4229 22.2436 25.4664C22.619 26.2096 23.0477 26.9172 23.5197 27.5884C23.5394 27.6167 23.5749 27.6289 23.6074 27.6188C25.6501 26.973 27.7215 25.9987 29.8598 24.3938C29.8786 24.3797 29.8904 24.3584 29.8924 24.335C30.4136 18.8239 29.0193 14.0367 26.1961 9.79287C26.1892 9.7787 26.1774 9.76855 26.1636 9.76247ZM13.3542 21.4315C12.1224 21.4315 11.1074 20.2757 11.1074 18.8564C11.1074 17.437 12.1027 16.2813 13.3542 16.2813C14.6155 16.2813 15.6206 17.4472 15.6009 18.8564C15.6009 20.2757 14.6056 21.4315 13.3542 21.4315ZM21.6612 21.4315C20.4294 21.4315 19.4145 20.2757 19.4145 18.8564C19.4145 17.437 20.4097 16.2813 21.6612 16.2813C22.9225 16.2813 23.9276 17.4472 23.908 18.8564C23.908 20.2757 22.9225 21.4315 21.6612 21.4315Z" fill="white"/>
</g>
<defs>
<clipPath id="clip0_1042_693">
<rect width="25" height="19.7917" fill="white" transform="translate(5 8)"/>
</clipPath>
</defs>
</svg>
