<svg id="Layer_1" data-name="Layer 1" xmlns="http://www.w3.org/2000/svg" xmlns:xlink="http://www.w3.org/1999/xlink" viewBox="0 0 57.57 57.61">
  <defs>
    <style>
      .cls-1 {
        fill: none;
      }

      .cls-2 {
        clip-path: url(#clip-path);
      }

      .cls-3, .cls-4 {
        fill: #405985;
      }

      .cls-3 {
        fill-rule: evenodd;
      }
    </style>
    <clipPath id="clip-path" transform="translate(0 0)">
      <rect class="cls-1" width="272" height="57.61"/>
    </clipPath>
  </defs>
  <g class="cls-2">
    <g>
      <path class="cls-3" d="M48.23,28.72A19.36,19.36,0,1,1,28.87,9.35,19.36,19.36,0,0,1,48.23,28.72ZM35.11,18.59a1.69,1.69,0,0,0,.89-.27,1.63,1.63,0,0,0,.58-.72,1.61,1.61,0,0,0-.35-1.75,1.68,1.68,0,0,0-.82-.44,1.61,1.61,0,0,0-.92.1,1.59,1.59,0,0,0-.72.59,1.63,1.63,0,0,0-.27.89,1.58,1.58,0,0,0,.12.61,1.7,1.7,0,0,0,.35.52,1.64,1.64,0,0,0,.52.35A1.67,1.67,0,0,0,35.11,18.59ZM37.8,41a1.53,1.53,0,0,1-1.5.15,1.61,1.61,0,0,1-.52-.34,1.58,1.58,0,0,1-.47-1.14,1.6,1.6,0,0,1,.27-.89,1.58,1.58,0,0,1,.71-.59,1.65,1.65,0,0,1,.93-.09,1.54,1.54,0,0,1,.82.44,1.6,1.6,0,0,1,.35,1.74A1.49,1.49,0,0,1,37.8,41ZM35.57,22.6a1.32,1.32,0,0,0,.74-.23,1.42,1.42,0,0,0,.5-.61,1.35,1.35,0,0,0-.3-1.46,1.26,1.26,0,0,0-.69-.37,1.35,1.35,0,0,0-.77.08,1.26,1.26,0,0,0-.6.49,1.35,1.35,0,0,0,.16,1.7A1.39,1.39,0,0,0,35.57,22.6Zm4.33.28a1.33,1.33,0,0,1-.75.23,1.25,1.25,0,0,1-.51-.1,1.35,1.35,0,0,1-.44-.29,1.25,1.25,0,0,1-.29-.44,1.3,1.3,0,0,1-.11-.51A1.33,1.33,0,0,1,38,21a1.46,1.46,0,0,1,.6-.5,1.31,1.31,0,0,1,.78-.07,1.4,1.4,0,0,1,.69.36,1.5,1.5,0,0,1,.37.69,1.39,1.39,0,0,1-.08.78A1.36,1.36,0,0,1,39.9,22.88ZM35.11,26a1.17,1.17,0,0,0,.63-.19,1.12,1.12,0,0,0,.42-.52,1.15,1.15,0,0,0,.07-.66,1.19,1.19,0,0,0-.9-.9,1.15,1.15,0,0,0-.66.07A1.13,1.13,0,0,0,34,24.86a1.12,1.12,0,0,0,.09.44,1.27,1.27,0,0,0,.25.37,1.21,1.21,0,0,0,.37.25A1.32,1.32,0,0,0,35.11,26Zm4.22.29a1.12,1.12,0,0,1-1.08.11,1.15,1.15,0,0,1-.37-.25,1.05,1.05,0,0,1-.25-.37,1.1,1.1,0,0,1,.11-1.07,1.05,1.05,0,0,1,.51-.42,1.15,1.15,0,0,1,.66-.07,1.13,1.13,0,0,1,.58.31,1.22,1.22,0,0,1,.32.59,1.15,1.15,0,0,1-.07.66A1.09,1.09,0,0,1,39.33,26.29Zm2.23,1.31a1.11,1.11,0,0,0,.63-.19,1.12,1.12,0,0,0,.42-.52,1.13,1.13,0,0,0,.07-.66,1.19,1.19,0,0,0-.32-.58,1.1,1.1,0,0,0-.58-.31,1.13,1.13,0,0,0-.66.06,1.26,1.26,0,0,0-.52.42,1.2,1.2,0,0,0-.19.64,1.12,1.12,0,0,0,.09.44,1.15,1.15,0,0,0,.25.37,1.05,1.05,0,0,0,.37.25A1.32,1.32,0,0,0,41.56,27.6Zm-3.37,1.47a1,1,0,0,1-.56.16,1,1,0,0,1-.71-.29,1,1,0,0,1-.12-1.26.93.93,0,0,1,.44-.37,1,1,0,0,1,.58-.06,1,1,0,0,1,.79.79.93.93,0,0,1-.06.57A1,1,0,0,1,38.19,29.07Zm-4.14-.32a1,1,0,0,0,.55-.17,1,1,0,0,0,.37-.45,1,1,0,0,0,.06-.58,1,1,0,0,0-.79-.79,1.15,1.15,0,0,0-.58.06,1.08,1.08,0,0,0-.45.37,1,1,0,0,0,.84,1.56Zm7,1.43a1,1,0,0,1-.55.17,1,1,0,0,1-.39-.07,1,1,0,0,1-.32-.22.91.91,0,0,1-.22-.33,1,1,0,0,1-.08-.38,1,1,0,0,1,.17-.56,1.08,1.08,0,0,1,.45-.37,1,1,0,0,1,.58-.05.94.94,0,0,1,.51.27,1,1,0,0,1,.22,1.09A1,1,0,0,1,41.08,30.18ZM36.2,31.32a.86.86,0,0,0,.47-.14.94.94,0,0,0,.32-.39.86.86,0,0,0-1.12-1.12.94.94,0,0,0-.39.32.9.9,0,0,0-.14.48.85.85,0,0,0,.86.85Zm3.37,1a.86.86,0,0,1-1.19-1.19.81.81,0,0,1,.39-.32.82.82,0,0,1,.49-.05.83.83,0,0,1,.44.24.91.91,0,0,1,.24.44.92.92,0,0,1,0,.49A.94.94,0,0,1,39.57,32.27Zm-6.93-1.46a.86.86,0,0,0,.79-.53.78.78,0,0,0,0-.5.82.82,0,0,0-.23-.44.85.85,0,0,0-.44-.23.78.78,0,0,0-.5.05.77.77,0,0,0-.38.31.83.83,0,0,0-.15.48.78.78,0,0,0,.07.33.78.78,0,0,0,.46.46A.78.78,0,0,0,32.64,30.81ZM35,32.6a.73.73,0,0,1-.4.13.63.63,0,0,1-.27-.06.63.63,0,0,1-.39-.39A.63.63,0,0,1,33.9,32a.81.81,0,0,1,.12-.4.74.74,0,0,1,.32-.26.76.76,0,0,1,.42,0,.7.7,0,0,1,.36.19.75.75,0,0,1,.2.37.72.72,0,0,1,0,.41A.69.69,0,0,1,35,32.6Zm.83,2.1a.61.61,0,0,0,.35-.11.62.62,0,0,0,.23-.28.64.64,0,0,0,0-.36.61.61,0,0,0-.5-.5.64.64,0,0,0-.36,0,.62.62,0,0,0-.28.23.61.61,0,0,0-.11.35.69.69,0,0,0,.05.24.48.48,0,0,0,.14.2.56.56,0,0,0,.2.14A.69.69,0,0,0,35.85,34.7ZM34.62,35a.55.55,0,0,1-.29.08.51.51,0,0,1-.51-.51.55.55,0,0,1,.08-.29.5.5,0,0,1,.24-.19.48.48,0,0,1,.29,0,.5.5,0,0,1,.41.41.48.48,0,0,1,0,.29A.57.57,0,0,1,34.62,35ZM33,33.61a.59.59,0,0,0,.34-.1.62.62,0,0,0,.24-.29.73.73,0,0,0,0-.36.64.64,0,0,0-.86-.46.7.7,0,0,0-.28.23.64.64,0,0,0-.1.35.69.69,0,0,0,0,.25.66.66,0,0,0,.14.2.9.9,0,0,0,.2.14A.69.69,0,0,0,33,33.61Zm-1.56-1.49a.67.67,0,0,1-.39.12.66.66,0,0,1-.51-.21.73.73,0,0,1-.16-.23.87.87,0,0,1-.05-.28.67.67,0,0,1,.12-.39.76.76,0,0,1,.32-.27.73.73,0,0,1,.41,0,.75.75,0,0,1,.37.2.72.72,0,0,1,.2.36.85.85,0,0,1,0,.42A.76.76,0,0,1,31.43,32.12ZM31,26.86a.67.67,0,0,0,.39-.12.76.76,0,0,0,.27-.32.75.75,0,0,0,0-.42.72.72,0,0,0-.2-.36.76.76,0,0,0-.36-.2.75.75,0,0,0-.42,0,.76.76,0,0,0-.32.27.69.69,0,0,0-.06.67.57.57,0,0,0,.15.23.66.66,0,0,0,.51.21Zm.66-2.63a.61.61,0,0,1-.35.11.62.62,0,0,1-.44-.18.64.64,0,0,1-.19-.45.66.66,0,0,1,.11-.35.7.7,0,0,1,.28-.23.64.64,0,0,1,.36,0,.67.67,0,0,1,.33.18.62.62,0,0,1,.17.32.63.63,0,0,1,0,.36A.49.49,0,0,1,31.67,24.23ZM32,22.28a.52.52,0,0,0,.29-.09.48.48,0,0,0,.19-.23.48.48,0,0,0,0-.29.54.54,0,0,0-.14-.27.59.59,0,0,0-.27-.14.52.52,0,0,0-.3,0,.53.53,0,0,0-.23.19.55.55,0,0,0-.08.29.51.51,0,0,0,.15.36A.48.48,0,0,0,32,22.28Zm-.85-1.07a.74.74,0,0,1-.35.1.47.47,0,0,1-.24,0,.57.57,0,0,1-.21-.13.77.77,0,0,1-.14-.21.61.61,0,0,1,0-.24.64.64,0,0,1,.1-.35.7.7,0,0,1,.28-.23.63.63,0,0,1,.86.46.63.63,0,0,1,0,.36A.66.66,0,0,1,31.16,21.21Zm6.33,12.6a.67.67,0,0,0,.39-.12.76.76,0,0,0,.27-.32.81.81,0,0,0,0-.41.75.75,0,0,0-.2-.37.66.66,0,0,0-.37-.19.65.65,0,0,0-.41,0,.68.68,0,0,0-.32.26.72.72,0,0,0-.12.4.63.63,0,0,0,.06.27.51.51,0,0,0,.15.23.87.87,0,0,0,.23.16A.66.66,0,0,0,37.49,33.81ZM29.57,20.35a.82.82,0,0,1-.4.13.66.66,0,0,1-.27-.06.61.61,0,0,1-.23-.15.78.78,0,0,1-.16-.24.62.62,0,0,1-.05-.27.72.72,0,0,1,.12-.4.63.63,0,0,1,.32-.26.64.64,0,0,1,.41,0,.66.66,0,0,1,.37.19.73.73,0,0,1,.19.37.64.64,0,0,1,0,.41A.68.68,0,0,1,29.57,20.35Zm.09,3.16a.72.72,0,0,0,.4-.12.74.74,0,0,0,.26-.32.73.73,0,0,0,0-.41.75.75,0,0,0-.2-.37.72.72,0,0,0-.36-.2.75.75,0,0,0-.42.05.68.68,0,0,0-.32.26.81.81,0,0,0-.12.4.66.66,0,0,0,.06.27.61.61,0,0,0,.15.23.78.78,0,0,0,.24.16A.81.81,0,0,0,29.66,23.51Zm-.33,2.75a.86.86,0,0,1-1.19-1.19.94.94,0,0,1,.39-.32A.91.91,0,0,1,29,24.7a.83.83,0,0,1,.44.24.91.91,0,0,1,.24.44.92.92,0,0,1-.05.49A.94.94,0,0,1,29.33,26.26Zm-3.08.14a1,1,0,0,0,.55-.17,1,1,0,0,0,.43-1,1,1,0,0,0-.28-.51.94.94,0,0,0-.51-.27,1,1,0,0,0-1,.43.89.89,0,0,0-.16.55,1,1,0,0,0,1,1Zm-2.4.5a1.2,1.2,0,0,1-.64.19,1.14,1.14,0,0,1-.81-.34,1.19,1.19,0,0,1-.34-.81,1.12,1.12,0,0,1,.2-.63,1.05,1.05,0,0,1,.51-.42,1.15,1.15,0,0,1,.66-.07,1.12,1.12,0,0,1,.9.9,1.15,1.15,0,0,1-.06.66A1.26,1.26,0,0,1,23.85,26.9Zm-4,1.82a1.33,1.33,0,0,0,.75-.23,1.36,1.36,0,0,0,.49-.6,1.39,1.39,0,0,0,.08-.78,1.34,1.34,0,0,0-.37-.69,1.32,1.32,0,0,0-.69-.36,1.27,1.27,0,0,0-.77.07,1.36,1.36,0,0,0-.61.5,1.37,1.37,0,0,0,.17,1.7A1.36,1.36,0,0,0,19.88,28.72ZM17.33,31.2a1.63,1.63,0,0,1-.89.27,1.58,1.58,0,0,1-.61-.12,1.54,1.54,0,0,1-.52-.35,1.64,1.64,0,0,1-.35-.52,1.67,1.67,0,0,1-.12-.62A1.6,1.6,0,0,1,18,29.55a1.6,1.6,0,0,1-.68,1.65Zm1.21-5.83a1.32,1.32,0,0,0,.74-.23,1.46,1.46,0,0,0,.5-.6,1.39,1.39,0,0,0,.07-.78,1.34,1.34,0,0,0-.37-.69,1.4,1.4,0,0,0-.69-.36,1.35,1.35,0,0,0-.77.07,1.42,1.42,0,0,0-.61.5,1.4,1.4,0,0,0-.22.75,1.29,1.29,0,0,0,.1.51,1.46,1.46,0,0,0,.29.44,1.6,1.6,0,0,0,.44.29A1.3,1.3,0,0,0,18.54,25.37Zm4-1.82a1.2,1.2,0,0,1-.64.19,1.13,1.13,0,0,1-1.14-1.14,1.12,1.12,0,0,1,.19-.64,1.05,1.05,0,0,1,.51-.42,1.15,1.15,0,0,1,.66-.07,1.18,1.18,0,0,1,.59.32,1.1,1.1,0,0,1,.31.58,1.15,1.15,0,0,1-.06.66A1.26,1.26,0,0,1,22.5,23.55Zm-1.13-2.84a1.13,1.13,0,0,0,.64-.2,1.11,1.11,0,0,0,.42-.51,1.07,1.07,0,0,0,.06-.66,1.12,1.12,0,0,0-.9-.9,1.15,1.15,0,0,0-.66.06,1.18,1.18,0,0,0-.51.43,1.09,1.09,0,0,0-.19.63,1.14,1.14,0,0,0,1.14,1.15Zm3.6-.86a1,1,0,0,1-.56.17,1,1,0,0,1-.38-.08.9.9,0,0,1-.54-.54,1,1,0,0,1-.08-.38,1,1,0,0,1,.62-.93,1,1,0,0,1,1.36.73,1,1,0,0,1-.05.58A1.08,1.08,0,0,1,25,19.85ZM27,20a.83.83,0,0,0,.48-.15.77.77,0,0,0,.31-.38.86.86,0,0,0,.05-.5.87.87,0,0,0-.24-.44.82.82,0,0,0-.44-.23.83.83,0,0,0-.49.05.74.74,0,0,0-.38.32.8.8,0,0,0-.15.47A.85.85,0,0,0,27,20Zm1,2.89a.92.92,0,0,1-.48.14,1,1,0,0,1-.33-.06.87.87,0,0,1-.28-.19.92.92,0,0,1-.19-.28.87.87,0,0,1-.06-.32.9.9,0,0,1,.14-.48.94.94,0,0,1,.39-.32.87.87,0,0,1,1.17.63.92.92,0,0,1-.05.49A.85.85,0,0,1,28,22.91Zm-3.09.17a1,1,0,0,0,.56-.17,1,1,0,0,0,.36-.45,1,1,0,0,0-.21-1.09,1,1,0,0,0-.52-.28,1,1,0,0,0-.58.06,1.06,1.06,0,0,0-.44.37,1,1,0,0,0-.17.56,1,1,0,0,0,.07.38,1.19,1.19,0,0,0,.22.33,1.15,1.15,0,0,0,.33.21A1,1,0,0,0,24.9,23.08Zm-2.55,7.53a.6.6,0,0,1-.29.08.58.58,0,0,1-.19,0,.52.52,0,0,1-.17-.12.36.36,0,0,1-.11-.16.48.48,0,0,1,0-.2.5.5,0,0,1,.31-.48.52.52,0,0,1,.3,0,.51.51,0,0,1,.26.14.51.51,0,0,1,.12.57A.6.6,0,0,1,22.35,30.61Zm1.78-.17a.66.66,0,0,0,.35-.11.7.7,0,0,0,.23-.28.67.67,0,0,0,0-.37.62.62,0,0,0-.49-.49.67.67,0,0,0-.37,0,.57.57,0,0,0-.28.23.6.6,0,0,0-.1.35.62.62,0,0,0,.18.44A.64.64,0,0,0,24.13,30.44Zm2.66-1a.72.72,0,0,1-.4.12.63.63,0,0,1-.27-.06.51.51,0,0,1-.23-.15.87.87,0,0,1-.16-.23.74.74,0,0,1,.07-.67.71.71,0,0,1,.32-.27.72.72,0,0,1,.41,0,.75.75,0,0,1,.37.2.7.7,0,0,1,.19.36.72.72,0,0,1-.3.74Zm.15,2.41a.8.8,0,0,0,.47-.15.91.91,0,0,0,.32-.38.85.85,0,0,0,0-.5.83.83,0,0,0-.67-.67.75.75,0,0,0-.49,0,.8.8,0,0,0-.39.31.9.9,0,0,0-.14.48,1,1,0,0,0,.06.33,1.07,1.07,0,0,0,.19.28.75.75,0,0,0,.28.18A.72.72,0,0,0,26.94,31.87Zm-2.36.42a.7.7,0,0,1-.4.12.72.72,0,0,1-.71-.71.7.7,0,0,1,.12-.4.76.76,0,0,1,.32-.27.81.81,0,0,1,.41,0,.75.75,0,0,1,.37.2.66.66,0,0,1,.19.37.65.65,0,0,1,0,.41A.68.68,0,0,1,24.58,32.29Zm-2.83.09a.64.64,0,0,0,.35-.1.66.66,0,0,0,.23-.29.56.56,0,0,0,0-.36.59.59,0,0,0-.17-.32.68.68,0,0,0-.32-.18.63.63,0,0,0-.36,0,.66.66,0,0,0-.29.23.64.64,0,0,0-.1.35.62.62,0,0,0,.63.63Zm.42,1.86a.69.69,0,0,1-.67.06.7.7,0,0,1-.23-.15.66.66,0,0,1-.21-.51.72.72,0,0,1,.12-.4A.82.82,0,0,1,21.5,33a.72.72,0,0,1,.41,0,.75.75,0,0,1,.37.2.72.72,0,0,1,.2.36.81.81,0,0,1,0,.41A.73.73,0,0,1,22.17,34.24Zm2.53.49a.8.8,0,0,0,.47-.15.74.74,0,0,0,.32-.38.86.86,0,0,0,.05-.5.87.87,0,0,0-.24-.44.82.82,0,0,0-.44-.23.83.83,0,0,0-.49,0,.85.85,0,0,0-.39.31.9.9,0,0,0-.14.48.85.85,0,0,0,.86.86Zm4-.54a1,1,0,0,1-.56.17,1,1,0,0,1-1-1,1,1,0,0,1,.17-.56,1,1,0,0,1,.45-.37,1,1,0,0,1,.58-.06,1,1,0,0,1,.79.79,1,1,0,0,1-.06.58A1.08,1.08,0,0,1,28.67,34.19Zm1.45,2.66a1.07,1.07,0,0,0,.63-.2,1.05,1.05,0,0,0,.42-.51,1.15,1.15,0,0,0,.07-.66,1.18,1.18,0,0,0-.32-.59,1.1,1.1,0,0,0-.58-.31,1.13,1.13,0,0,0-.66.06,1.21,1.21,0,0,0-.52.43,1.19,1.19,0,0,0-.19.63,1.12,1.12,0,0,0,.09.44,1.17,1.17,0,0,0,.62.62A1.12,1.12,0,0,0,30.12,36.85ZM26.46,37a1,1,0,0,1-.55.17,1,1,0,0,1-.39-.08.9.9,0,0,1-.54-.54,1,1,0,0,1,.09-.94,1.08,1.08,0,0,1,.45-.37,1,1,0,0,1,.58,0,1,1,0,0,1,.78.78,1,1,0,0,1-.05.58A1,1,0,0,1,26.46,37Zm-2.94,2.12a1,1,0,0,0,.56-.17,1,1,0,0,0,.37-.45,1.05,1.05,0,0,0,.05-.58.94.94,0,0,0-.27-.52,1,1,0,0,0-.51-.27,1,1,0,0,0-1,.43,1,1,0,0,0-.17.56,1,1,0,0,0,1,1Zm2.62,2.32a1.12,1.12,0,0,1-.64.19,1,1,0,0,1-.44-.08,1.27,1.27,0,0,1-.37-.25,1.34,1.34,0,0,1-.25-.37,1.32,1.32,0,0,1-.08-.44,1.12,1.12,0,0,1,.19-.64,1.17,1.17,0,0,1,.51-.42,1.15,1.15,0,0,1,.66-.06,1.13,1.13,0,0,1,.59.31,1.1,1.1,0,0,1,.31.58,1.17,1.17,0,0,1-.06.67A1.16,1.16,0,0,1,26.14,41.46Zm4.64.65a1.45,1.45,0,0,0,.75-.22A1.35,1.35,0,0,0,31,39.45a1.27,1.27,0,0,0-.77.08,1.34,1.34,0,0,0-.61.49,1.32,1.32,0,0,0-.22.75,1.36,1.36,0,0,0,.39.95A1.34,1.34,0,0,0,30.78,42.11Zm-2.26-2.6a1.12,1.12,0,0,1-1.08.11,1.27,1.27,0,0,1-.37-.25,1.21,1.21,0,0,1-.25-.37,1.32,1.32,0,0,1-.08-.44,1.11,1.11,0,0,1,.19-.63,1.05,1.05,0,0,1,.51-.42,1.15,1.15,0,0,1,.66-.07,1.12,1.12,0,0,1,.9.9,1.15,1.15,0,0,1-.06.66A1.11,1.11,0,0,1,28.52,39.51ZM33,39.25a1.32,1.32,0,0,0,.74-.23,1.34,1.34,0,0,0,.5-.6,1.39,1.39,0,0,0,.07-.78,1.27,1.27,0,0,0-.37-.68,1.34,1.34,0,0,0-.69-.37,1.35,1.35,0,0,0-1.37.57,1.33,1.33,0,0,0-.23.75,1.36,1.36,0,0,0,.39,1A1.38,1.38,0,0,0,33,39.25ZM22.8,36.53a.91.91,0,0,1-.48.15,1,1,0,0,1-.33-.07.78.78,0,0,1-.46-.46.78.78,0,0,1-.07-.33.9.9,0,0,1,.14-.48A.94.94,0,0,1,22,35a.92.92,0,0,1,.49-.05.91.91,0,0,1,.44.24.83.83,0,0,1,.24.44.82.82,0,0,1-.05.49A.8.8,0,0,1,22.8,36.53Z" transform="translate(0 0)"/>
      <path class="cls-4" d="M28.79,5.16a2.58,2.58,0,1,0-2.58-2.58A2.58,2.58,0,0,0,28.79,5.16Z" transform="translate(0 0)"/>
      <path class="cls-4" d="M52.42,28.81A2.58,2.58,0,1,0,55,26.23,2.58,2.58,0,0,0,52.42,28.81Z" transform="translate(0 0)"/>
      <path class="cls-4" d="M12.08,12.09a2.58,2.58,0,1,0-3.65,0A2.6,2.6,0,0,0,12.08,12.09Z" transform="translate(0 0)"/>
      <path class="cls-4" d="M45.49,12.09a2.58,2.58,0,1,0,0-3.65A2.6,2.6,0,0,0,45.49,12.09Z" transform="translate(0 0)"/>
      <path class="cls-4" d="M28.79,57.61A2.58,2.58,0,1,0,26.21,55,2.57,2.57,0,0,0,28.79,57.61Z" transform="translate(0 0)"/>
      <path class="cls-4" d="M0,28.81a2.58,2.58,0,1,0,2.58-2.58A2.58,2.58,0,0,0,0,28.81Z" transform="translate(0 0)"/>
      <path class="cls-4" d="M49.14,49.17a2.58,2.58,0,1,0-3.65,0A2.57,2.57,0,0,0,49.14,49.17Z" transform="translate(0 0)"/>
      <path class="cls-4" d="M8.43,49.17a2.58,2.58,0,1,0,0-3.64A2.58,2.58,0,0,0,8.43,49.17Z" transform="translate(0 0)"/>
    </g>
  </g>
</svg>
