<svg width="120" height="99" viewBox="0 0 120 99" fill="none" xmlns="http://www.w3.org/2000/svg">
<path d="M86.9468 30.3214C93.4529 36.8275 104.001 36.8275 110.508 30.3214C117.014 23.8153 117.014 13.2667 110.508 6.76048C104.001 0.254319 93.4529 0.254319 86.9468 6.76048C80.4406 13.2667 80.4406 23.8153 86.9468 30.3214Z" fill="#108CFF"/>
<path d="M50.4516 36.826C38.9648 33.4817 26.5708 36.7688 18.2513 45.3663L10.071 53.8197C-3.74985 68.1023 3.27674 92.0009 22.6285 96.5298C31.3666 98.5751 40.5374 95.8931 46.7967 89.4622L84.5834 50.6406C85.9165 49.271 85.3111 46.9751 83.4762 46.4408L50.4516 36.826Z" fill="#FFCA62"/>
<path d="M50.9088 60.8551C39.4786 64.3873 27.0321 61.304 18.5727 52.8442L10.2548 44.526C-3.79853 30.4723 2.83499 6.4617 22.1099 1.61563C30.8132 -0.572537 40.0268 1.95849 46.3907 8.28578L84.8095 46.4822C86.1645 47.8295 85.5971 50.1353 83.7712 50.6996L50.9088 60.8551Z" fill="#108CFF"/>
<path fill-rule="evenodd" clip-rule="evenodd" d="M18.5728 52.8411C27.0322 61.3009 39.4788 64.3842 50.9089 60.852L83.7714 50.6965C84.4022 50.5016 84.8826 50.0988 85.1858 49.5995C85.5685 48.3211 84.8848 46.8513 83.4642 46.4376L50.4396 36.8226C38.9528 33.4782 26.5587 36.7656 18.2392 45.3629L14.7256 48.9937L18.5728 52.8411Z" fill="#0066FF"/>
</svg>
