<svg width="384" height="96" viewBox="0 0 384 96" fill="none" xmlns="http://www.w3.org/2000/svg">
<path d="M84.3121 29.4025C90.6211 35.7114 100.85 35.7114 107.159 29.4025C113.468 23.0935 113.468 12.8645 107.159 6.55548C100.85 0.246479 90.6211 0.246479 84.3121 6.55548C78.0031 12.8645 78.0031 23.0935 84.3121 29.4025Z" fill="#108CFF"/>
<path d="M48.9228 35.7099C37.7841 32.4669 25.7656 35.6544 17.6982 43.9914L9.76583 52.1886C-3.63622 66.0384 3.17744 89.2128 21.9428 93.6045C30.4161 95.5878 39.309 92.9871 45.3786 86.751L82.0203 49.1058C83.313 47.7777 82.7259 45.5514 80.9466 45.0333L48.9228 35.7099Z" fill="#FFCA62"/>
<path d="M49.3662 59.0112C38.2824 62.4363 26.2131 59.4465 18.01 51.243L9.94416 43.1769C-3.68331 29.5491 2.7492 6.26604 21.44 1.56682C29.8796 -0.555039 38.814 1.89929 44.985 8.03484L82.2396 45.0738C83.5536 46.3803 83.0034 48.6162 81.2328 49.1634L49.3662 59.0112Z" fill="#108CFF"/>
<path fill-rule="evenodd" clip-rule="evenodd" d="M18.0099 51.24C26.213 59.4435 38.2824 62.4333 49.3662 59.0082L81.2328 49.1604C81.8445 48.9714 82.3104 48.5808 82.6044 48.0966C82.9755 46.857 82.3125 45.4317 80.9349 45.0306L48.9111 35.7069C37.7724 32.4639 25.7538 35.6517 17.6864 43.9884L14.2793 47.5092L18.0099 51.24Z" fill="#0066FF"/>
<path d="M197.2 26.8742V15.8386H162.75V74.3609H174.123V51.788H196.54V40.7525H174.123V26.8742H197.2Z" fill="#25395F"/>
<path d="M210.267 27.5429C213.893 27.5429 216.86 24.5332 216.86 20.9382C216.86 17.3433 213.893 14.25 210.267 14.25C206.723 14.25 203.756 17.3433 203.756 20.9382C203.756 24.5332 206.723 27.5429 210.267 27.5429ZM204.992 74.3607H215.624V32.559H204.992V74.3607Z" fill="#25395F"/>
<path d="M235.987 39.7486V32.5588H225.355V74.3605H235.987V54.3793C235.987 45.601 242.992 43.093 248.514 43.7617V31.7227C243.322 31.7227 238.13 34.0636 235.987 39.7486Z" fill="#25395F"/>
<path d="M262.186 57.8907H293.257C293.504 56.4696 293.669 55.0482 293.669 53.4597C293.669 41.1702 285.015 31.3887 272.817 31.3887C259.878 31.3887 251.06 41.0031 251.06 53.4597C251.06 65.9166 259.796 75.531 273.641 75.531C281.554 75.531 287.734 72.2706 291.608 66.5856L283.037 61.5693C281.224 63.9939 277.927 65.7495 273.806 65.7495C268.202 65.7495 263.669 63.4086 262.186 57.8907ZM262.021 49.5306C263.257 44.1798 267.131 41.0865 272.817 41.0865C277.268 41.0865 281.718 43.5111 283.037 49.5306H262.021Z" fill="#25395F"/>
<path d="M322.053 14.6682C308.949 14.6682 302.685 20.604 302.685 32.1413V32.5592H296.751V42.926H302.685V74.3609H313.317V42.926H320.157V32.5592H313.317V32.1413C313.317 26.4562 316.53 24.1154 322.053 24.1154C323.124 24.1154 324.279 24.1154 325.431 24.199V74.3609H336.063V16.4239C331.53 15.5043 327.246 14.6682 322.053 14.6682Z" fill="#25395F"/>
<path d="M372.627 32.5591L363.477 60.6499L352.764 32.5591H341.145L358.038 73.0231C356.061 78.6244 353.094 81.1327 347.244 81.049V91.0813C357.708 91.6666 364.716 86.3995 369 74.3608L384 32.5591H372.627Z" fill="#25395F"/>
</svg>
