<svg width="35" height="35" viewBox="0 0 35 35" fill="none" xmlns="http://www.w3.org/2000/svg">
<path d="M0 10C0 4.47715 4.47715 0 10 0H25C30.5228 0 35 4.47715 35 10V25C35 30.5228 30.5228 35 25 35H10C4.47715 35 0 30.5228 0 25V10Z" fill="#6E82A4"/>
<path d="M17.5001 5C10.5974 5 5 10.5014 5 17.2881C5 22.7173 8.58166 27.3234 13.5483 28.9482C14.173 29.062 14.4024 28.6817 14.4024 28.3571C14.4024 28.0641 14.3908 27.0961 14.3854 26.0693C10.9079 26.8127 10.1741 24.6195 10.1741 24.6195C9.60546 23.1992 8.78617 22.8215 8.78617 22.8215C7.65204 22.0588 8.87166 22.0745 8.87166 22.0745C10.1269 22.1612 10.7878 23.3408 10.7878 23.3408C11.9027 25.2194 13.7121 24.6763 14.4254 24.3623C14.5376 23.5681 14.8615 23.026 15.219 22.7191C12.4426 22.4084 9.52391 21.3548 9.52391 16.6463C9.52391 15.3047 10.0122 14.2085 10.8118 13.348C10.6821 13.0385 10.2542 11.7887 10.9329 10.0961C10.9329 10.0961 11.9826 9.76584 14.3714 11.3557C15.3685 11.0834 16.4378 10.9469 17.5001 10.9422C18.5624 10.9469 19.6326 11.0834 20.6315 11.3557C23.0174 9.76584 24.0656 10.0961 24.0656 10.0961C24.746 11.7887 24.3179 13.0385 24.1882 13.348C24.9897 14.2085 25.4746 15.3047 25.4746 16.6463C25.4746 21.366 22.5504 22.4052 19.7669 22.7094C20.2153 23.0907 20.6148 23.8385 20.6148 24.985C20.6148 26.6291 20.6003 27.9524 20.6003 28.3571C20.6003 28.6841 20.8253 29.0673 21.4589 28.9466C26.4229 27.32 30 22.7155 30 17.2881C30 10.5014 24.4034 5 17.5001 5ZM9.6817 22.5047C9.65416 22.5657 9.55646 22.584 9.46745 22.5421C9.37679 22.502 9.32587 22.4188 9.35526 22.3575C9.38217 22.2947 9.48008 22.2772 9.57054 22.3193C9.66141 22.3594 9.71316 22.4434 9.6817 22.5047ZM10.2966 23.044C10.2369 23.0983 10.1204 23.0731 10.0413 22.9872C9.95957 22.9016 9.94425 22.787 10.0047 22.7318C10.0662 22.6775 10.1792 22.703 10.2612 22.7886C10.3429 22.8753 10.3589 22.9891 10.2966 23.044ZM10.7184 23.734C10.6418 23.7863 10.5166 23.7373 10.4391 23.628C10.3626 23.5188 10.3626 23.3877 10.4408 23.3352C10.5184 23.2827 10.6418 23.3299 10.7202 23.4384C10.7966 23.5495 10.7966 23.6805 10.7184 23.734ZM11.4318 24.5332C11.3633 24.6075 11.2173 24.5876 11.1105 24.4862C11.0012 24.3871 10.9708 24.2465 11.0395 24.1722C11.1089 24.0978 11.2556 24.1187 11.3633 24.2193C11.4717 24.3181 11.5048 24.4598 11.4318 24.5332ZM12.3538 24.803C12.3235 24.8993 12.183 24.943 12.0414 24.9021C11.9 24.86 11.8075 24.7473 11.8361 24.65C11.8655 24.5531 12.0066 24.5076 12.1492 24.5513C12.2904 24.5932 12.3832 24.7052 12.3538 24.803ZM13.403 24.9175C13.4065 25.0188 13.2865 25.1028 13.1379 25.1047C12.9884 25.1079 12.8675 25.0259 12.8659 24.9262C12.8659 24.8239 12.9832 24.7406 13.1327 24.7382C13.2813 24.7353 13.403 24.8167 13.403 24.9175ZM14.4338 24.8786C14.4516 24.9775 14.3483 25.0791 14.2007 25.1061C14.0556 25.1322 13.9213 25.0711 13.9029 24.973C13.8848 24.8717 13.99 24.7702 14.1349 24.7439C14.2827 24.7187 14.415 24.7781 14.4338 24.8786Z" fill="white"/>
</svg>
