<svg width="1630" height="345" viewBox="0 0 1630 345" fill="none" xmlns="http://www.w3.org/2000/svg">
<path fill-rule="evenodd" clip-rule="evenodd" d="M289 172C289 236.065 237.065 288 173 288C108.935 288 57 236.065 57 172C57 107.935 108.935 56 173 56C237.065 56 289 107.935 289 172ZM205.427 110.186C207.323 110.18 209.175 109.611 210.748 108.553C212.321 107.495 213.545 105.995 214.266 104.241C214.987 102.488 215.173 100.56 214.799 98.7011C214.425 96.8425 213.508 95.1363 212.165 93.798C210.823 92.4597 209.113 91.5494 207.253 91.1819C205.393 90.8145 203.466 91.0064 201.715 91.7334C199.964 92.4605 198.468 93.69 197.415 95.2669C196.363 96.8437 195.801 98.6971 195.801 100.593C195.802 101.855 196.053 103.105 196.537 104.27C197.022 105.436 197.732 106.494 198.626 107.385C199.52 108.276 200.581 108.982 201.748 109.463C202.915 109.943 204.165 110.189 205.427 110.186ZM221.568 244.055C219.994 245.113 218.141 245.68 216.245 245.686C214.984 245.689 213.734 245.443 212.568 244.963C211.402 244.483 210.342 243.778 209.449 242.888C208.555 241.999 207.846 240.941 207.361 239.777C206.877 238.613 206.626 237.365 206.624 236.104C206.622 234.207 207.182 232.353 208.233 230.774C209.285 229.196 210.78 227.964 212.532 227.236C214.283 226.507 216.21 226.314 218.071 226.681C219.932 227.047 221.643 227.957 222.986 229.296C224.33 230.634 225.247 232.341 225.621 234.2C225.996 236.06 225.81 237.988 225.089 239.742C224.367 241.496 223.142 242.997 221.568 244.055ZM208.171 134.169C209.762 134.166 211.317 133.691 212.639 132.804C213.961 131.917 214.991 130.658 215.598 129.187C216.204 127.715 216.361 126.097 216.049 124.536C215.736 122.975 214.968 121.542 213.841 120.418C212.715 119.293 211.28 118.528 209.719 118.219C208.157 117.91 206.539 118.07 205.069 118.68C203.598 119.29 202.342 120.322 201.458 121.646C200.574 122.969 200.102 124.525 200.102 126.117C200.105 128.255 200.957 130.303 202.47 131.813C203.983 133.323 206.033 134.17 208.171 134.169ZM234.111 135.884C232.79 136.771 231.235 137.247 229.644 137.252C228.585 137.254 227.536 137.047 226.557 136.644C225.577 136.24 224.687 135.647 223.938 134.9C223.188 134.152 222.593 133.263 222.186 132.285C221.78 131.307 221.571 130.259 221.57 129.2C221.57 127.608 222.041 126.052 222.925 124.729C223.809 123.405 225.065 122.373 226.535 121.763C228.005 121.153 229.623 120.992 231.184 121.301C232.745 121.61 234.18 122.375 235.307 123.499C236.434 124.622 237.203 126.055 237.516 127.615C237.829 129.176 237.673 130.794 237.067 132.266C236.461 133.737 235.432 134.996 234.111 135.884ZM205.427 154.557C206.782 154.554 208.106 154.149 209.231 153.394C210.357 152.638 211.233 151.566 211.749 150.314C212.265 149.061 212.399 147.683 212.132 146.354C211.866 145.025 211.212 143.805 210.252 142.848C209.293 141.891 208.071 141.24 206.742 140.977C205.413 140.714 204.035 140.85 202.783 141.37C201.532 141.889 200.462 142.768 199.709 143.895C198.957 145.022 198.555 146.346 198.555 147.702C198.555 148.603 198.733 149.496 199.079 150.329C199.424 151.162 199.931 151.918 200.569 152.555C201.207 153.192 201.965 153.696 202.799 154.04C203.632 154.384 204.526 154.559 205.427 154.557ZM230.688 156.302C229.565 157.058 228.243 157.463 226.889 157.467C225.988 157.469 225.095 157.293 224.262 156.949C223.428 156.605 222.671 156.1 222.033 155.464C221.395 154.827 220.888 154.071 220.542 153.238C220.196 152.406 220.018 151.513 220.017 150.612C220.018 149.258 220.421 147.935 221.173 146.81C221.925 145.685 222.994 144.808 224.245 144.29C225.495 143.771 226.871 143.635 228.199 143.898C229.526 144.161 230.747 144.812 231.705 145.768C232.663 146.724 233.317 147.942 233.583 149.27C233.849 150.597 233.717 151.973 233.201 153.225C232.686 154.476 231.812 155.547 230.688 156.302ZM244.061 164.145C245.416 164.141 246.738 163.737 247.863 162.982C248.987 162.227 249.863 161.155 250.378 159.903C250.894 158.651 251.027 157.274 250.76 155.946C250.494 154.618 249.839 153.399 248.88 152.443C247.921 151.487 246.7 150.837 245.371 150.575C244.043 150.312 242.666 150.45 241.416 150.97C240.165 151.489 239.097 152.368 238.345 153.495C237.594 154.622 237.194 155.946 237.195 157.3C237.196 158.201 237.375 159.092 237.721 159.923C238.067 160.754 238.573 161.509 239.211 162.145C239.848 162.78 240.605 163.284 241.437 163.627C242.269 163.97 243.161 164.146 244.061 164.145ZM223.865 172.893C222.88 173.554 221.721 173.908 220.535 173.91C218.943 173.912 217.417 173.281 216.29 172.158C215.163 171.034 214.528 169.509 214.525 167.917C214.524 166.731 214.875 165.571 215.533 164.584C216.191 163.597 217.126 162.828 218.222 162.373C219.317 161.917 220.523 161.797 221.686 162.027C222.85 162.257 223.919 162.827 224.759 163.664C225.599 164.502 226.172 165.57 226.405 166.733C226.638 167.896 226.521 169.102 226.069 170.198C225.617 171.295 224.85 172.233 223.865 172.893ZM199.067 171C200.254 170.999 201.413 170.646 202.399 169.986C203.385 169.326 204.153 168.388 204.606 167.292C205.059 166.195 205.176 164.989 204.944 163.826C204.711 162.662 204.139 161.594 203.299 160.756C202.46 159.918 201.39 159.348 200.226 159.117C199.063 158.887 197.857 159.007 196.761 159.462C195.665 159.917 194.729 160.686 194.071 161.674C193.413 162.661 193.062 163.821 193.063 165.007C193.066 166.598 193.7 168.122 194.826 169.245C195.951 170.369 197.477 171 199.067 171ZM241.209 179.577C240.224 180.237 239.065 180.591 237.879 180.593C237.091 180.594 236.31 180.439 235.581 180.138C234.852 179.837 234.19 179.395 233.632 178.838C233.074 178.281 232.631 177.62 232.329 176.892C232.026 176.164 231.87 175.383 231.87 174.595C231.87 173.409 232.221 172.249 232.88 171.263C233.538 170.277 234.475 169.508 235.57 169.054C236.665 168.599 237.871 168.48 239.034 168.711C240.197 168.941 241.266 169.511 242.106 170.349C242.945 171.187 243.517 172.255 243.75 173.418C243.983 174.58 243.865 175.786 243.413 176.882C242.961 177.979 242.194 178.916 241.209 179.577ZM211.949 186.419C212.965 186.417 213.958 186.113 214.802 185.547C215.646 184.981 216.304 184.177 216.691 183.237C217.079 182.298 217.179 181.264 216.979 180.268C216.779 179.271 216.289 178.356 215.569 177.638C214.85 176.92 213.934 176.431 212.937 176.234C211.94 176.036 210.906 176.139 209.968 176.528C209.029 176.918 208.226 177.577 207.662 178.422C207.097 179.267 206.796 180.261 206.796 181.278C206.799 182.642 207.343 183.95 208.309 184.914C209.275 185.878 210.584 186.419 211.949 186.419ZM232.17 192.06C231.326 192.626 230.332 192.928 229.315 192.929C227.952 192.928 226.644 192.386 225.68 191.422C224.715 190.458 224.171 189.152 224.168 187.788C224.168 186.771 224.47 185.777 225.035 184.932C225.599 184.087 226.402 183.428 227.341 183.038C228.28 182.649 229.314 182.547 230.311 182.745C231.308 182.943 232.224 183.432 232.944 184.15C233.663 184.869 234.153 185.784 234.352 186.781C234.551 187.778 234.45 188.812 234.062 189.752C233.673 190.691 233.015 191.495 232.17 192.06ZM190.654 183.331C191.67 183.329 192.663 183.025 193.507 182.459C194.351 181.893 195.009 181.089 195.396 180.149C195.783 179.209 195.884 178.176 195.684 177.179C195.484 176.183 194.994 175.268 194.274 174.55C193.555 173.832 192.639 173.343 191.642 173.146C190.645 172.948 189.611 173.051 188.672 173.44C187.734 173.83 186.931 174.489 186.367 175.334C185.802 176.179 185.501 177.173 185.501 178.189C185.501 178.865 185.634 179.535 185.893 180.159C186.153 180.784 186.532 181.351 187.011 181.829C187.49 182.306 188.058 182.685 188.683 182.943C189.308 183.2 189.978 183.332 190.654 183.331ZM204.883 194.083C204.18 194.555 203.353 194.808 202.506 194.81C201.943 194.811 201.385 194.701 200.864 194.486C200.343 194.271 199.87 193.955 199.471 193.558C199.072 193.16 198.755 192.687 198.539 192.167C198.323 191.647 198.211 191.089 198.21 190.526C198.21 189.679 198.461 188.851 198.932 188.146C199.402 187.442 200.07 186.893 200.853 186.568C201.635 186.244 202.496 186.158 203.327 186.323C204.157 186.487 204.921 186.894 205.521 187.492C206.12 188.09 206.529 188.853 206.696 189.683C206.862 190.513 206.779 191.374 206.457 192.158C206.134 192.941 205.587 193.611 204.883 194.083ZM209.884 206.612C210.629 206.611 211.357 206.389 211.976 205.975C212.595 205.56 213.077 204.972 213.361 204.283C213.645 203.595 213.719 202.837 213.573 202.107C213.427 201.377 213.068 200.706 212.541 200.18C212.014 199.653 211.342 199.295 210.612 199.15C209.881 199.005 209.124 199.08 208.436 199.365C207.748 199.651 207.16 200.134 206.746 200.753C206.333 201.372 206.112 202.1 206.112 202.845C206.112 203.34 206.209 203.831 206.399 204.288C206.589 204.746 206.867 205.161 207.217 205.511C207.567 205.861 207.983 206.138 208.441 206.327C208.899 206.516 209.389 206.613 209.884 206.612ZM202.502 208.512C201.994 208.852 201.397 209.033 200.787 209.033C199.968 209.03 199.185 208.704 198.606 208.125C198.028 207.547 197.701 206.763 197.698 205.945C197.698 205.334 197.879 204.737 198.219 204.229C198.558 203.721 199.04 203.325 199.605 203.091C200.169 202.858 200.79 202.797 201.389 202.916C201.988 203.035 202.538 203.329 202.97 203.761C203.402 204.193 203.696 204.743 203.816 205.342C203.935 205.941 203.874 206.562 203.64 207.126C203.406 207.691 203.01 208.173 202.502 208.512ZM192.713 200.119C193.457 200.117 194.184 199.894 194.802 199.478C195.42 199.063 195.902 198.474 196.185 197.786C196.468 197.097 196.541 196.34 196.395 195.61C196.248 194.88 195.889 194.21 195.361 193.684C194.834 193.158 194.163 192.801 193.432 192.656C192.702 192.512 191.945 192.587 191.257 192.872C190.57 193.158 189.982 193.641 189.568 194.26C189.155 194.879 188.934 195.607 188.934 196.352C188.934 196.847 189.032 197.338 189.222 197.796C189.412 198.254 189.691 198.669 190.042 199.019C190.393 199.369 190.809 199.646 191.268 199.835C191.726 200.024 192.217 200.12 192.713 200.119ZM183.416 191.173C182.713 191.645 181.885 191.898 181.038 191.9C180.475 191.901 179.917 191.79 179.396 191.576C178.875 191.361 178.402 191.045 178.003 190.647C177.604 190.25 177.288 189.777 177.071 189.257C176.855 188.737 176.743 188.179 176.743 187.615C176.743 186.768 176.994 185.941 177.464 185.236C177.934 184.532 178.603 183.983 179.385 183.658C180.167 183.333 181.028 183.248 181.859 183.412C182.69 183.577 183.453 183.984 184.053 184.582C184.653 185.18 185.062 185.942 185.228 186.773C185.395 187.603 185.311 188.464 184.989 189.247C184.666 190.03 184.119 190.7 183.416 191.173ZM180.866 159.693C181.713 159.691 182.54 159.438 183.243 158.966C183.946 158.493 184.494 157.823 184.816 157.04C185.139 156.257 185.222 155.396 185.056 154.566C184.889 153.735 184.48 152.973 183.88 152.375C183.281 151.777 182.517 151.37 181.687 151.205C180.856 151.041 179.995 151.126 179.213 151.451C178.43 151.776 177.762 152.325 177.291 153.029C176.821 153.734 176.57 154.561 176.57 155.408C176.571 155.972 176.683 156.53 176.899 157.05C177.115 157.57 177.432 158.043 177.831 158.44C178.23 158.838 178.703 159.154 179.224 159.369C179.744 159.584 180.302 159.694 180.866 159.693ZM184.847 143.98C184.227 144.396 183.498 144.618 182.752 144.619C181.752 144.619 180.793 144.222 180.084 143.516C179.376 142.81 178.977 141.852 178.974 140.852C178.973 140.106 179.193 139.376 179.607 138.755C180.02 138.134 180.609 137.649 181.298 137.363C181.987 137.076 182.745 137 183.477 137.145C184.209 137.289 184.882 137.648 185.41 138.175C185.939 138.701 186.299 139.373 186.446 140.105C186.592 140.836 186.519 141.595 186.234 142.285C185.95 142.975 185.467 143.565 184.847 143.98ZM186.875 132.288C187.486 132.288 188.083 132.107 188.591 131.768C189.099 131.428 189.495 130.946 189.729 130.382C189.962 129.817 190.024 129.196 189.904 128.597C189.785 127.998 189.491 127.448 189.059 127.016C188.627 126.584 188.077 126.29 187.478 126.171C186.879 126.052 186.258 126.113 185.694 126.347C185.129 126.58 184.647 126.976 184.308 127.484C183.968 127.992 183.787 128.589 183.787 129.2C183.79 130.018 184.116 130.802 184.695 131.38C185.273 131.959 186.057 132.285 186.875 132.288ZM181.75 125.847C181.131 126.261 180.403 126.483 179.658 126.484C179.163 126.485 178.673 126.388 178.215 126.199C177.757 126.01 177.341 125.733 176.991 125.383C176.641 125.033 176.363 124.618 176.173 124.16C175.983 123.703 175.886 123.212 175.886 122.717C175.886 121.972 176.106 121.244 176.52 120.625C176.934 120.006 177.522 119.523 178.21 119.237C178.898 118.952 179.655 118.877 180.386 119.022C181.116 119.167 181.788 119.525 182.315 120.052C182.842 120.578 183.201 121.249 183.347 121.979C183.493 122.709 183.419 123.467 183.135 124.155C182.85 124.844 182.369 125.432 181.75 125.847ZM219.678 201.321C220.525 201.318 221.352 201.065 222.055 200.593C222.758 200.121 223.306 199.451 223.628 198.668C223.951 197.885 224.034 197.024 223.868 196.193C223.701 195.363 223.292 194.601 222.693 194.002C222.093 193.404 221.329 192.997 220.499 192.833C219.668 192.669 218.807 192.754 218.025 193.079C217.242 193.403 216.574 193.952 216.103 194.657C215.633 195.361 215.382 196.189 215.382 197.036C215.383 197.599 215.495 198.157 215.711 198.677C215.927 199.198 216.244 199.67 216.643 200.068C217.042 200.466 217.515 200.781 218.036 200.996C218.556 201.211 219.114 201.321 219.678 201.321ZM172.252 120.746C171.55 121.219 170.723 121.473 169.876 121.476C169.312 121.478 168.754 121.368 168.232 121.154C167.711 120.939 167.237 120.624 166.837 120.226C166.438 119.828 166.121 119.355 165.904 118.834C165.687 118.314 165.576 117.756 165.575 117.192C165.575 116.345 165.826 115.517 166.296 114.813C166.766 114.109 167.434 113.56 168.216 113.235C168.998 112.91 169.859 112.824 170.689 112.988C171.52 113.152 172.283 113.559 172.883 114.156C173.483 114.754 173.892 115.516 174.06 116.346C174.227 117.176 174.144 118.037 173.823 118.82C173.501 119.603 172.954 120.273 172.252 120.746ZM172.792 139.655C173.639 139.653 174.466 139.4 175.169 138.928C175.872 138.456 176.42 137.786 176.742 137.003C177.065 136.22 177.148 135.359 176.982 134.528C176.815 133.698 176.406 132.935 175.806 132.337C175.207 131.739 174.443 131.332 173.613 131.168C172.782 131.003 171.921 131.089 171.139 131.413C170.356 131.738 169.688 132.287 169.217 132.992C168.747 133.696 168.496 134.524 168.496 135.371C168.497 135.934 168.609 136.492 168.825 137.012C169.041 137.532 169.358 138.005 169.757 138.403C170.156 138.801 170.629 139.116 171.15 139.331C171.67 139.546 172.228 139.656 172.792 139.655ZM170.835 156.079C169.991 156.644 168.999 156.948 167.984 156.95C166.621 156.95 165.313 156.409 164.349 155.446C163.384 154.483 162.84 153.177 162.837 151.814C162.837 150.798 163.138 149.806 163.702 148.962C164.266 148.117 165.067 147.459 166.005 147.07C166.943 146.681 167.975 146.578 168.971 146.776C169.967 146.973 170.882 147.461 171.601 148.178C172.32 148.895 172.81 149.809 173.009 150.805C173.208 151.801 173.108 152.833 172.721 153.772C172.334 154.71 171.678 155.513 170.835 156.079ZM152.354 156.95C153.54 156.948 154.7 156.593 155.685 155.932C156.67 155.271 157.437 154.332 157.889 153.235C158.341 152.138 158.457 150.931 158.223 149.768C157.989 148.605 157.415 147.537 156.574 146.7C155.733 145.863 154.663 145.294 153.498 145.065C152.334 144.837 151.128 144.958 150.033 145.415C148.938 145.872 148.003 146.644 147.346 147.632C146.689 148.62 146.341 149.781 146.344 150.968C146.348 152.558 146.984 154.081 148.111 155.203C149.238 156.324 150.764 156.953 152.354 156.95ZM137.968 159.904C136.842 160.659 135.519 161.064 134.163 161.067C132.343 161.069 130.597 160.348 129.308 159.062C128.02 157.777 127.294 156.032 127.291 154.212C127.291 152.857 127.693 151.532 128.446 150.405C129.198 149.278 130.268 148.399 131.519 147.88C132.771 147.361 134.149 147.224 135.478 147.487C136.807 147.75 138.029 148.402 138.988 149.359C139.948 150.316 140.602 151.536 140.868 152.864C141.135 154.193 141.001 155.571 140.485 156.824C139.969 158.077 139.093 159.149 137.968 159.904ZM114.226 170.827C115.818 170.824 117.373 170.349 118.695 169.462C120.017 168.576 121.046 167.317 121.653 165.845C122.26 164.374 122.417 162.755 122.104 161.195C121.792 159.634 121.024 158.201 119.897 157.076C118.77 155.952 117.335 155.187 115.774 154.877C114.213 154.568 112.595 154.729 111.124 155.338C109.654 155.948 108.397 156.98 107.513 158.304C106.629 159.628 106.158 161.184 106.158 162.776C106.161 164.913 107.012 166.962 108.525 168.472C110.038 169.982 112.089 170.829 114.226 170.827ZM98.9424 185.646C97.3686 186.703 95.5168 187.271 93.6209 187.276C92.3589 187.277 91.109 187.03 89.9426 186.549C88.7761 186.067 87.7159 185.361 86.8225 184.469C85.9291 183.578 85.22 182.519 84.7358 181.354C84.2515 180.189 84.0015 178.939 84 177.677C84.0011 175.781 84.564 173.928 85.6175 172.352C86.6711 170.776 88.168 169.547 89.9194 168.821C91.6708 168.095 93.5981 167.904 95.4578 168.273C97.3176 168.641 99.0264 169.553 100.369 170.892C101.711 172.231 102.626 173.938 102.999 175.796C103.372 177.655 103.185 179.583 102.463 181.336C101.741 183.089 100.516 184.589 98.9424 185.646ZM106.158 150.784C107.749 150.78 109.304 150.304 110.625 149.417C111.946 148.529 112.975 147.27 113.581 145.798C114.187 144.327 114.343 142.709 114.03 141.148C113.716 139.588 112.948 138.155 111.821 137.031C110.694 135.907 109.259 135.143 107.698 134.834C106.137 134.525 104.519 134.686 103.049 135.296C101.579 135.906 100.323 136.938 99.4391 138.262C98.5553 139.585 98.0836 141.141 98.0836 142.733C98.0844 143.792 98.2938 144.84 98.7001 145.818C99.1064 146.796 99.7015 147.684 100.451 148.432C101.201 149.18 102.091 149.773 103.07 150.176C104.05 150.58 105.099 150.787 106.158 150.784ZM129.88 139.866C128.753 140.62 127.428 141.023 126.073 141.024C124.254 141.024 122.51 140.302 121.223 139.017C119.937 137.731 119.213 135.988 119.212 134.169C119.212 132.813 119.614 131.488 120.367 130.361C121.12 129.234 122.19 128.355 123.442 127.836C124.695 127.317 126.073 127.181 127.403 127.445C128.732 127.709 129.954 128.361 130.913 129.319C131.872 130.278 132.525 131.499 132.79 132.828C133.055 134.158 132.92 135.536 132.402 136.788C131.884 138.041 131.007 139.112 129.88 139.866ZM123.157 122.862C124.513 122.86 125.837 122.456 126.963 121.701C128.089 120.946 128.966 119.874 129.483 118.621C130 117.368 130.134 115.99 129.868 114.66C129.602 113.331 128.947 112.111 127.987 111.153C127.028 110.196 125.806 109.544 124.476 109.281C123.146 109.018 121.768 109.156 120.516 109.676C119.264 110.196 118.194 111.075 117.442 112.203C116.69 113.331 116.289 114.656 116.29 116.012C116.293 117.831 117.018 119.574 118.306 120.858C119.593 122.143 121.338 122.863 123.157 122.862ZM144.687 117.729C143.705 118.39 142.548 118.745 141.364 118.75C140.575 118.752 139.794 118.599 139.065 118.299C138.335 117.998 137.672 117.557 137.113 117.001C136.555 116.444 136.111 115.783 135.809 115.055C135.506 114.326 135.349 113.546 135.349 112.757C135.349 111.573 135.7 110.415 136.357 109.43C137.015 108.445 137.949 107.677 139.043 107.222C140.137 106.768 141.341 106.648 142.503 106.878C143.665 107.107 144.732 107.676 145.571 108.511C146.41 109.347 146.983 110.413 147.217 111.574C147.45 112.735 147.335 113.939 146.885 115.035C146.435 116.13 145.67 117.068 144.687 117.729ZM156.978 118.75C157.993 118.748 158.985 118.445 159.828 117.879C160.671 117.313 161.328 116.51 161.715 115.572C162.102 114.633 162.202 113.601 162.003 112.605C161.803 111.61 161.313 110.695 160.594 109.978C159.876 109.261 158.96 108.773 157.964 108.576C156.968 108.378 155.936 108.481 154.999 108.87C154.061 109.259 153.259 109.917 152.695 110.762C152.132 111.606 151.831 112.599 151.831 113.614C151.834 114.977 152.377 116.283 153.342 117.246C154.307 118.209 155.615 118.75 156.978 118.75ZM162.757 136.03C161.916 136.597 160.925 136.902 159.91 136.907C159.234 136.908 158.565 136.776 157.94 136.519C157.315 136.262 156.746 135.884 156.267 135.407C155.788 134.93 155.408 134.363 155.148 133.739C154.888 133.116 154.753 132.447 154.752 131.771C154.752 130.756 155.053 129.764 155.616 128.92C156.179 128.075 156.98 127.417 157.917 127.028C158.855 126.638 159.886 126.535 160.882 126.732C161.877 126.928 162.793 127.415 163.512 128.131C164.231 128.847 164.722 129.76 164.922 130.755C165.123 131.75 165.025 132.782 164.639 133.721C164.254 134.66 163.599 135.463 162.757 136.03ZM144.285 137.057C145.471 137.054 146.629 136.699 147.614 136.037C148.598 135.376 149.364 134.438 149.816 133.341C150.267 132.244 150.383 131.039 150.149 129.876C149.915 128.713 149.342 127.646 148.502 126.809C147.662 125.972 146.593 125.403 145.429 125.173C144.266 124.944 143.06 125.064 141.965 125.52C140.87 125.975 139.935 126.745 139.277 127.732C138.619 128.718 138.269 129.878 138.27 131.064C138.271 131.852 138.428 132.633 138.731 133.361C139.034 134.089 139.478 134.75 140.036 135.306C140.595 135.863 141.258 136.304 141.987 136.604C142.716 136.904 143.497 137.058 144.285 137.057ZM128.99 182.121C128.484 182.462 127.889 182.644 127.28 182.646C126.875 182.647 126.473 182.568 126.098 182.413C125.723 182.259 125.382 182.032 125.095 181.746C124.808 181.46 124.579 181.119 124.424 180.745C124.268 180.371 124.187 179.969 124.186 179.564C124.186 178.954 124.367 178.359 124.705 177.852C125.043 177.345 125.524 176.95 126.087 176.717C126.649 176.483 127.269 176.421 127.866 176.539C128.464 176.657 129.013 176.95 129.445 177.38C129.877 177.81 130.171 178.358 130.291 178.955C130.411 179.553 130.352 180.172 130.12 180.736C129.889 181.299 129.495 181.781 128.99 182.121ZM139.65 181.105C140.394 181.102 141.121 180.878 141.738 180.462C142.356 180.046 142.836 179.457 143.118 178.768C143.401 178.079 143.473 177.322 143.326 176.593C143.179 175.863 142.819 175.193 142.291 174.668C141.764 174.143 141.092 173.786 140.362 173.642C139.632 173.498 138.875 173.574 138.188 173.859C137.5 174.145 136.913 174.628 136.5 175.247C136.087 175.866 135.866 176.594 135.866 177.338C135.869 178.339 136.269 179.298 136.979 180.004C137.688 180.711 138.649 181.106 139.65 181.105ZM155.59 175.244C154.886 175.716 154.058 175.968 153.211 175.969C152.648 175.97 152.091 175.86 151.57 175.645C151.05 175.43 150.578 175.115 150.179 174.718C149.781 174.321 149.465 173.849 149.249 173.329C149.033 172.81 148.921 172.253 148.92 171.69C148.919 170.843 149.169 170.014 149.639 169.309C150.109 168.603 150.778 168.053 151.56 167.728C152.343 167.403 153.204 167.317 154.035 167.481C154.867 167.645 155.631 168.052 156.231 168.651C156.831 169.249 157.24 170.012 157.406 170.843C157.573 171.674 157.489 172.536 157.166 173.319C156.842 174.102 156.294 174.772 155.59 175.244ZM156.477 189.669C157.492 189.665 158.483 189.361 159.326 188.795C160.168 188.229 160.824 187.425 161.21 186.487C161.596 185.548 161.696 184.516 161.495 183.521C161.295 182.525 160.805 181.612 160.086 180.895C159.367 180.179 158.452 179.691 157.456 179.494C156.46 179.297 155.428 179.4 154.491 179.789C153.553 180.179 152.752 180.837 152.189 181.681C151.625 182.525 151.324 183.518 151.324 184.533C151.325 185.208 151.459 185.877 151.718 186.501C151.978 187.125 152.358 187.692 152.836 188.169C153.315 188.646 153.882 189.024 154.507 189.281C155.132 189.538 155.801 189.67 156.477 189.669ZM142.368 192.199C141.664 192.671 140.837 192.923 139.989 192.924C138.853 192.924 137.762 192.473 136.958 191.669C136.153 190.866 135.701 189.776 135.699 188.639C135.699 187.792 135.95 186.964 136.421 186.259C136.892 185.555 137.56 185.006 138.343 184.681C139.126 184.357 139.987 184.272 140.818 184.437C141.649 184.601 142.412 185.009 143.012 185.608C143.611 186.206 144.02 186.969 144.185 187.8C144.351 188.631 144.267 189.492 143.944 190.275C143.621 191.058 143.072 191.728 142.368 192.199ZM125.388 192.757C126.134 192.757 126.864 192.536 127.484 192.121C128.105 191.707 128.588 191.117 128.874 190.428C129.159 189.739 129.234 188.98 129.089 188.248C128.943 187.516 128.584 186.844 128.056 186.317C127.528 185.789 126.856 185.43 126.124 185.284C125.393 185.138 124.634 185.213 123.945 185.499C123.255 185.784 122.666 186.268 122.251 186.888C121.837 187.509 121.616 188.238 121.616 188.984C121.617 189.984 122.015 190.943 122.722 191.65C123.429 192.358 124.388 192.755 125.388 192.757ZM127.938 203.848C127.235 204.32 126.408 204.574 125.561 204.576C124.997 204.577 124.439 204.466 123.919 204.251C123.398 204.036 122.924 203.721 122.526 203.323C122.127 202.925 121.81 202.453 121.594 201.933C121.378 201.412 121.266 200.855 121.265 200.291C121.265 199.444 121.516 198.616 121.986 197.912C122.457 197.208 123.125 196.658 123.907 196.334C124.69 196.009 125.551 195.924 126.382 196.088C127.212 196.253 127.976 196.66 128.575 197.258C129.175 197.856 129.584 198.618 129.751 199.449C129.917 200.279 129.834 201.14 129.511 201.923C129.189 202.706 128.641 203.376 127.938 203.848ZM143.067 206.802C144.083 206.801 145.077 206.498 145.922 205.932C146.766 205.367 147.424 204.563 147.813 203.624C148.201 202.684 148.302 201.651 148.103 200.654C147.904 199.657 147.414 198.741 146.695 198.022C145.975 197.304 145.059 196.815 144.062 196.617C143.065 196.419 142.031 196.521 141.092 196.91C140.153 197.3 139.35 197.959 138.786 198.804C138.221 199.65 137.919 200.643 137.919 201.66C137.921 203.024 138.464 204.332 139.429 205.296C140.394 206.26 141.702 206.802 143.067 206.802ZM166.857 203.57C165.869 204.228 164.708 204.578 163.521 204.576C161.933 204.571 160.411 203.938 159.289 202.813C158.166 201.689 157.536 200.166 157.534 198.577C157.534 197.391 157.886 196.23 158.546 195.244C159.205 194.257 160.143 193.488 161.24 193.034C162.336 192.581 163.543 192.463 164.707 192.695C165.871 192.927 166.94 193.5 167.778 194.34C168.617 195.18 169.187 196.25 169.417 197.414C169.647 198.578 169.527 199.785 169.071 200.881C168.616 201.977 167.845 202.913 166.857 203.57ZM175.541 219.477C176.896 219.473 178.219 219.067 179.344 218.311C180.468 217.555 181.344 216.482 181.859 215.229C182.374 213.975 182.506 212.597 182.239 211.269C181.971 209.94 181.316 208.721 180.356 207.765C179.396 206.808 178.174 206.158 176.844 205.896C175.515 205.634 174.137 205.772 172.886 206.292C171.635 206.813 170.566 207.692 169.814 208.82C169.063 209.947 168.662 211.272 168.663 212.628C168.664 213.529 168.844 214.421 169.19 215.254C169.537 216.086 170.044 216.842 170.682 217.478C171.321 218.114 172.079 218.618 172.913 218.961C173.746 219.304 174.639 219.48 175.541 219.477ZM153.627 220.513C152.643 221.173 151.485 221.527 150.3 221.531C149.51 221.532 148.727 221.378 147.997 221.076C147.266 220.774 146.603 220.331 146.044 219.772C145.485 219.213 145.042 218.55 144.74 217.819C144.438 217.089 144.284 216.306 144.285 215.516C144.289 214.331 144.643 213.173 145.303 212.189C145.963 211.205 146.9 210.439 147.996 209.987C149.091 209.535 150.296 209.418 151.458 209.65C152.62 209.882 153.687 210.453 154.525 211.291C155.363 212.129 155.934 213.196 156.166 214.358C156.398 215.52 156.281 216.725 155.829 217.82C155.377 218.915 154.611 219.852 153.627 220.513ZM136.039 233.183C137.225 233.18 138.385 232.826 139.37 232.165C140.355 231.504 141.122 230.565 141.574 229.468C142.026 228.371 142.142 227.164 141.908 226.001C141.674 224.838 141.1 223.77 140.259 222.933C139.418 222.096 138.348 221.527 137.183 221.298C136.019 221.069 134.813 221.191 133.718 221.648C132.623 222.105 131.688 222.877 131.031 223.865C130.374 224.853 130.026 226.014 130.029 227.201C130.035 228.79 130.671 230.313 131.797 231.434C132.924 232.555 134.449 233.184 136.039 233.183ZM151.696 247.093C150.57 247.848 149.246 248.253 147.891 248.257C146.99 248.259 146.097 248.083 145.264 247.74C144.43 247.397 143.673 246.893 143.035 246.257C142.396 245.62 141.89 244.865 141.544 244.033C141.198 243.2 141.02 242.308 141.019 241.407C141.018 240.051 141.419 238.726 142.17 237.598C142.922 236.471 143.992 235.591 145.243 235.071C146.495 234.551 147.872 234.413 149.202 234.676C150.532 234.938 151.754 235.589 152.714 236.546C153.674 237.503 154.329 238.723 154.596 240.052C154.862 241.381 154.729 242.759 154.213 244.012C153.697 245.265 152.821 246.337 151.696 247.093ZM179.491 251C181.084 251.001 182.641 250.53 183.966 249.646C185.291 248.762 186.324 247.505 186.934 246.033C187.545 244.562 187.705 242.943 187.395 241.381C187.085 239.819 186.318 238.383 185.192 237.257C184.067 236.13 182.632 235.363 181.07 235.052C179.508 234.74 177.889 234.9 176.417 235.509C174.945 236.118 173.688 237.15 172.803 238.474C171.918 239.799 171.445 241.356 171.445 242.948C171.448 245.082 172.297 247.127 173.805 248.636C175.313 250.146 177.358 250.996 179.491 251ZM165.952 235.441C164.826 236.196 163.502 236.601 162.147 236.605C161.246 236.606 160.354 236.43 159.521 236.087C158.688 235.743 157.93 235.239 157.292 234.603C156.654 233.967 156.148 233.212 155.801 232.38C155.455 231.548 155.276 230.656 155.275 229.755C155.274 228.4 155.675 227.074 156.426 225.947C157.178 224.819 158.248 223.939 159.499 223.419C160.751 222.899 162.129 222.761 163.458 223.024C164.788 223.286 166.01 223.937 166.97 224.894C167.93 225.851 168.585 227.071 168.852 228.4C169.118 229.729 168.985 231.107 168.469 232.36C167.953 233.613 167.077 234.685 165.952 235.441ZM192.713 233.878C194.304 233.875 195.859 233.4 197.181 232.513C198.503 231.626 199.533 230.368 200.139 228.896C200.746 227.425 200.903 225.806 200.591 224.245C200.278 222.685 199.51 221.252 198.383 220.127C197.257 219.003 195.822 218.238 194.261 217.928C192.699 217.619 191.081 217.779 189.611 218.389C188.14 218.999 186.884 220.031 186 221.355C185.116 222.679 184.644 224.235 184.644 225.826C184.647 227.964 185.499 230.013 187.012 231.523C188.525 233.032 190.575 233.88 192.713 233.878ZM131.679 217.579C130.836 218.146 129.843 218.45 128.827 218.454C128.151 218.455 127.481 218.323 126.855 218.065C126.23 217.808 125.661 217.429 125.182 216.952C124.703 216.474 124.323 215.907 124.063 215.283C123.804 214.658 123.67 213.988 123.669 213.312C123.669 212.296 123.97 211.302 124.534 210.457C125.098 209.612 125.9 208.953 126.839 208.563C127.778 208.174 128.81 208.071 129.807 208.268C130.804 208.465 131.72 208.953 132.44 209.671C133.16 210.388 133.651 211.303 133.851 212.299C134.051 213.295 133.952 214.328 133.565 215.268C133.179 216.208 132.522 217.012 131.679 217.579Z" fill="#405985"/>
<circle cx="172.5" cy="15.4478" r="15.4478" fill="#405985"/>
<circle cx="329.552" cy="172.5" r="15.4478" transform="rotate(90 329.552 172.5)" fill="#405985"/>
<circle cx="61.4473" cy="61.4473" r="15.4478" transform="rotate(-45 61.4473 61.4473)" fill="#405985"/>
<circle cx="283.553" cy="61.4474" r="15.4478" transform="rotate(45 283.553 61.4474)" fill="#405985"/>
<circle cx="172.5" cy="329.552" r="15.4478" fill="#405985"/>
<circle cx="15.4477" cy="172.5" r="15.4478" transform="rotate(90 15.4477 172.5)" fill="#405985"/>
<circle cx="283.553" cy="283.553" r="15.4478" transform="rotate(-45 283.553 283.553)" fill="#405985"/>
<circle cx="61.4473" cy="283.553" r="15.4478" transform="rotate(45 61.4473 283.553)" fill="#405985"/>
<path d="M835.836 225.5H850.582V138.922H883.578V125.198H802.986V138.922H835.836V225.5ZM987.065 157.902C987.065 138.776 971.005 125.198 949.835 125.198H907.641V225.5H922.387V190.606H945.455L969.983 225.5H986.919L961.369 189.146C976.553 185.204 987.065 173.378 987.065 157.902ZM922.387 138.922H947.791C962.245 138.922 972.027 146.076 972.027 157.902C972.027 169.728 962.245 176.882 947.791 176.882H922.387V138.922ZM1084.91 138.922V125.198H1011.18V225.5H1084.91V211.776H1026.07V181.262H1079.22V167.538H1026.07V138.922H1084.91ZM1189.71 225.5H1206.07L1163 125.198H1146.64L1103.57 225.5H1119.93L1128.69 205.06H1180.95L1189.71 225.5ZM1134.38 191.774L1154.82 144.178L1175.26 191.774H1134.38ZM1264.02 227.106C1287.67 227.106 1300.52 214.258 1300.52 197.322C1300.52 179.364 1286.65 172.648 1266.64 167.976C1250.15 164.034 1241.53 160.822 1241.53 151.478C1241.53 143.448 1249.42 136.294 1260.66 136.294C1270.88 136.294 1280.95 140.82 1289.42 148.558L1297.89 137.462C1288.25 128.994 1276.72 123.3 1261.24 123.3C1241.09 123.3 1226.49 136.002 1226.49 152.792C1226.49 170.896 1240.07 177.028 1260.51 181.846C1277.3 185.642 1285.62 189.292 1285.62 198.782C1285.62 206.812 1278.47 214.112 1264.6 214.112C1251.02 214.112 1240.51 208.564 1231.6 200.096L1222.7 211.046C1233.36 221.266 1247.23 227.106 1264.02 227.106ZM1369.74 227.252C1394.85 227.252 1412.81 209.002 1412.81 183.306V125.198H1397.91V183.014C1397.91 200.972 1386.23 213.82 1369.74 213.82C1353.09 213.82 1341.41 200.972 1341.41 183.014V125.198H1326.67V183.306C1326.67 209.002 1344.48 227.252 1369.74 227.252ZM1522.02 157.902C1522.02 138.776 1505.96 125.198 1484.79 125.198H1442.59V225.5H1457.34V190.606H1480.41L1504.94 225.5H1521.87L1496.32 189.146C1511.51 185.204 1522.02 173.378 1522.02 157.902ZM1457.34 138.922H1482.74C1497.2 138.922 1506.98 146.076 1506.98 157.902C1506.98 169.728 1497.2 176.882 1482.74 176.882H1457.34V138.922ZM1571.96 225.5H1587.14V186.226L1627 125.198H1609.92L1579.55 172.21L1549.62 125.198H1531.81L1571.96 186.226V225.5Z" fill="#405985"/>
<path fill-rule="evenodd" clip-rule="evenodd" d="M499.5 220C522.079 220 541 200.428 541 175.5C541 150.572 522.079 131 499.5 131C476.921 131 458 150.572 458 175.5C458 200.428 476.921 220 499.5 220ZM499.5 226C525.734 226 547 203.39 547 175.5C547 147.61 525.734 125 499.5 125C473.266 125 452 147.61 452 175.5C452 203.39 473.266 226 499.5 226Z" fill="#405985"/>
<path d="M404.483 175.474V124.914H407.457H410.431V175.474V226.035H407.457H404.483V175.474Z" fill="#405985"/>
<path d="M606.415 178.395V130.755H588.725H571.034V127.834V124.914H609.698H648.362V127.834V130.755H630.854H613.346V178.395V226.035H609.881H606.415V178.395Z" fill="#405985"/>
<path fill-rule="evenodd" clip-rule="evenodd" d="M700.706 125H698.647L697.907 126.921L659.712 226H666.143L702.009 132.959L736.92 226H743.328L706.162 126.946L705.431 125H703.353H700.706Z" fill="#405985"/>
</svg>
