<svg width="272" height="58" viewBox="0 0 272 58" fill="none" xmlns="http://www.w3.org/2000/svg">
<g clip-path="url(#clip0_777_846)">
<path fill-rule="evenodd" clip-rule="evenodd" d="M48.2257 28.7221C48.2257 39.4202 39.5593 48.0928 28.8687 48.0928C18.1781 48.0928 9.5116 39.4202 9.5116 28.7221C9.5116 18.0239 18.1781 9.35137 28.8687 9.35137C39.5593 9.35137 48.2257 18.0239 48.2257 28.7221ZM35.1083 18.5895C35.4249 18.5884 35.7339 18.4935 35.9966 18.3167C36.2592 18.14 36.4636 17.8893 36.5839 17.5963C36.7043 17.3034 36.7351 16.9814 36.6727 16.6709C36.6103 16.3604 36.4575 16.0753 36.2332 15.8518C36.0091 15.6282 35.7237 15.4761 35.4132 15.4147C35.1026 15.3534 34.7809 15.3854 34.4887 15.5069C34.1963 15.6283 33.9465 15.8337 33.7708 16.0972C33.5951 16.3606 33.5013 16.6702 33.5013 16.9869C33.5015 17.1978 33.5434 17.4066 33.6243 17.6013C33.7052 17.7958 33.8237 17.9727 33.9729 18.1216C34.1221 18.2704 34.2993 18.3883 34.494 18.4686C34.689 18.5489 34.8977 18.59 35.1083 18.5895ZM37.8028 40.953C37.5399 41.1298 37.2307 41.2245 36.9142 41.2255C36.7036 41.226 36.4952 41.1849 36.3004 41.1048C36.1059 41.0246 35.9288 40.9067 35.7796 40.7581C35.6306 40.6095 35.5121 40.4328 35.4312 40.2384C35.3503 40.0439 35.3084 39.8355 35.308 39.6248C35.3077 39.308 35.4012 38.998 35.5767 38.7344C35.7523 38.4707 36.0021 38.265 36.2943 38.1432C36.5866 38.0217 36.9085 37.9893 37.2191 38.0506C37.5298 38.1118 37.8153 38.2638 38.0396 38.4874C38.264 38.711 38.417 38.996 38.4794 39.3068C38.542 39.6174 38.511 39.9395 38.3905 40.2326C38.2702 40.5255 38.0656 40.7763 37.8028 40.953ZM35.5664 22.5959C35.832 22.5954 36.0917 22.5161 36.3123 22.368C36.533 22.2199 36.7048 22.0095 36.8062 21.7636C36.9075 21.5178 36.9337 21.2475 36.8815 20.9868C36.8292 20.726 36.7011 20.4865 36.513 20.2988C36.325 20.111 36.0853 19.983 35.8247 19.9314C35.564 19.8797 35.294 19.9066 35.0486 20.0084C34.8031 20.1103 34.5933 20.2828 34.4457 20.5039C34.2981 20.725 34.2194 20.985 34.2194 21.2508C34.2199 21.608 34.3621 21.9502 34.6145 22.2025C34.8672 22.4546 35.2094 22.5962 35.5664 22.5959ZM39.8967 22.8825C39.6762 23.0308 39.4167 23.1102 39.1509 23.1109C38.9742 23.1112 38.799 23.0768 38.6356 23.0094C38.4721 22.9419 38.3236 22.8429 38.1984 22.718C38.0733 22.5931 37.9738 22.4446 37.9061 22.2813C37.8383 22.118 37.8033 21.9428 37.8031 21.7658C37.8031 21.5 37.8819 21.2401 38.0294 21.0189C38.1769 20.7978 38.3867 20.6254 38.6321 20.5236C38.8774 20.4216 39.1476 20.3947 39.4081 20.4463C39.6687 20.4979 39.9083 20.6256 40.0964 20.8135C40.2845 21.0012 40.4128 21.2405 40.4652 21.5011C40.5174 21.7618 40.4914 22.0322 40.3901 22.278C40.289 22.5239 40.1173 22.7342 39.8967 22.8825ZM35.1083 26.002C35.3346 26.0013 35.5555 25.9337 35.7434 25.8076C35.9313 25.6814 36.0775 25.5024 36.1636 25.2929C36.2499 25.0837 36.2721 24.8534 36.2277 24.6315C36.1831 24.4096 36.074 24.2059 35.9138 24.0459C35.7536 23.8861 35.5497 23.7772 35.3277 23.7333C35.106 23.6894 34.8758 23.7121 34.6669 23.7989C34.458 23.8856 34.2795 24.0324 34.1538 24.2207C34.0281 24.4089 33.9611 24.6303 33.9611 24.8566C33.9611 25.0072 33.9908 25.1565 34.0485 25.2956C34.1062 25.4347 34.1907 25.5611 34.2973 25.6675C34.4039 25.7739 34.5304 25.8582 34.6696 25.9155C34.8088 25.9729 34.9578 26.0023 35.1083 26.002ZM39.3253 26.2935C39.1379 26.4196 38.9171 26.4873 38.6912 26.4881C38.5407 26.4883 38.3917 26.4589 38.2525 26.4014C38.1135 26.344 37.987 26.2596 37.8804 26.1533C37.7739 26.0471 37.6893 25.9207 37.6316 25.7816C37.5738 25.6425 37.5441 25.4935 37.544 25.3429C37.5441 25.1168 37.6112 24.8957 37.7369 24.7077C37.8625 24.5198 38.0409 24.3732 38.2496 24.2867C38.4584 24.2 38.688 24.1773 38.9098 24.2214C39.1314 24.2653 39.3351 24.374 39.495 24.5337C39.655 24.6933 39.7642 24.8969 39.8086 25.1186C39.8531 25.3404 39.8309 25.5702 39.7448 25.7794C39.6589 25.9885 39.5129 26.1673 39.3253 26.2935ZM41.5579 27.6036C41.7838 27.6031 42.0048 27.5354 42.1925 27.4094C42.3802 27.2831 42.5262 27.1043 42.6123 26.895C42.6984 26.6858 42.7206 26.4559 42.6761 26.2339C42.6317 26.0122 42.5224 25.8084 42.3624 25.6488C42.2022 25.4892 41.9982 25.3805 41.7765 25.3367C41.5547 25.2928 41.3249 25.3158 41.1162 25.4027C40.9074 25.4895 40.729 25.6363 40.6035 25.8245C40.4782 26.0127 40.4113 26.2339 40.4115 26.4602C40.4118 26.6107 40.4417 26.7594 40.4994 26.8984C40.5571 27.0371 40.6416 27.1632 40.748 27.2694C40.8545 27.3756 40.9808 27.4598 41.1197 27.5171C41.2587 27.5743 41.4075 27.6037 41.5579 27.6036ZM38.1862 29.0651C38.0219 29.1754 37.8283 29.2346 37.6304 29.2349C37.3647 29.2352 37.1098 29.1298 36.9217 28.9422C36.7336 28.7545 36.6277 28.4996 36.6272 28.2338C36.627 28.0356 36.6854 27.8419 36.7954 27.677C36.9052 27.5121 37.0614 27.3835 37.2443 27.3075C37.4271 27.2315 37.6284 27.2113 37.8226 27.2497C38.0169 27.2881 38.1954 27.3833 38.3356 27.5233C38.4758 27.6632 38.5714 27.8415 38.6103 28.0359C38.6493 28.2301 38.6298 28.4317 38.5542 28.6149C38.4788 28.798 38.3508 28.9547 38.1862 29.0651ZM34.0467 28.7488C34.2446 28.7486 34.4381 28.6897 34.6028 28.5795C34.7674 28.4691 34.8955 28.3124 34.9711 28.1293C35.0467 27.9461 35.0664 27.7447 35.0277 27.5503C34.9888 27.3559 34.8932 27.1774 34.753 27.0375C34.6129 26.8974 34.4345 26.8022 34.2401 26.7636C34.0458 26.7252 33.8446 26.7453 33.6615 26.8212C33.4786 26.8972 33.3224 27.0258 33.2125 27.1908C33.1027 27.3556 33.0441 27.5495 33.0443 27.7477C33.0448 28.0134 33.1506 28.268 33.3385 28.4557C33.5264 28.6434 33.7812 28.7488 34.0467 28.7488ZM41.0816 30.1815C40.9173 30.2919 40.7237 30.351 40.5258 30.3514C40.3941 30.3515 40.2638 30.3257 40.1421 30.2754C40.0205 30.2251 39.91 30.1513 39.8167 30.0583C39.7236 29.9651 39.6497 29.8547 39.5991 29.733C39.5487 29.6114 39.5227 29.481 39.5225 29.3493C39.5225 29.1512 39.5813 28.9575 39.6913 28.7927C39.8012 28.628 39.9574 28.4996 40.1403 28.4237C40.3232 28.3478 40.5244 28.3278 40.7187 28.3664C40.9127 28.4048 41.0913 28.5001 41.2313 28.6401C41.3715 28.78 41.4669 28.9584 41.5058 29.1527C41.5447 29.3469 41.5252 29.5483 41.4496 29.7315C41.3741 29.9147 41.246 30.0712 41.0816 30.1815ZM36.197 31.3246C36.3667 31.3242 36.5325 31.2735 36.6734 31.179C36.8142 31.0843 36.924 30.95 36.9888 30.7931C37.0533 30.6361 37.07 30.4634 37.0368 30.2969C37.0035 30.1304 36.9215 29.9777 36.8014 29.8578C36.6814 29.7377 36.5284 29.6562 36.362 29.6231C36.1955 29.5901 36.0231 29.6073 35.8662 29.6724C35.7095 29.7374 35.5755 29.8476 35.4814 29.9887C35.3871 30.1299 35.3369 30.2959 35.3369 30.4658C35.3374 30.6937 35.4282 30.9121 35.5894 31.0731C35.7508 31.2342 35.9692 31.3246 36.197 31.3246ZM39.5728 32.2671C39.4318 32.3616 39.2659 32.412 39.0962 32.4122C38.8686 32.412 38.6503 32.3215 38.4893 32.1604C38.3281 31.9994 38.2375 31.7811 38.237 31.5534C38.237 31.3835 38.2872 31.2174 38.3815 31.0763C38.4758 30.935 38.6098 30.825 38.7666 30.7598C38.9233 30.6949 39.0959 30.6777 39.2624 30.7107C39.4288 30.7438 39.5818 30.8256 39.7019 30.9457C39.8219 31.0656 39.9037 31.2185 39.9371 31.3852C39.9703 31.5517 39.9534 31.7244 39.8885 31.8813C39.8237 32.0383 39.7138 32.1726 39.5728 32.2671ZM32.6421 30.8088C32.8118 30.8084 32.9775 30.7577 33.1184 30.6631C33.2594 30.5685 33.369 30.4342 33.4337 30.2772C33.4985 30.1203 33.5152 29.9476 33.4818 29.7811C33.4484 29.6146 33.3667 29.4617 33.2465 29.3418C33.1264 29.2219 32.9733 29.1402 32.807 29.1073C32.6406 29.0742 32.4681 29.0914 32.3114 29.1564C32.1547 29.2215 32.0207 29.3316 31.9264 29.4728C31.8321 29.6139 31.7819 29.7799 31.7819 29.9498C31.7819 30.0628 31.8041 30.1745 31.8475 30.2789C31.8907 30.3833 31.9541 30.4779 32.034 30.5578C32.1138 30.6376 32.2087 30.7009 32.313 30.7438C32.4173 30.7869 32.5291 30.8089 32.6421 30.8088ZM35.0175 32.6049C34.9002 32.6837 34.762 32.7261 34.6207 32.7265C34.5266 32.7265 34.4335 32.7081 34.3465 32.6722C34.2596 32.6363 34.1805 32.5837 34.1139 32.5172C34.0473 32.4508 33.9946 32.3718 33.9584 32.2848C33.9223 32.1979 33.9037 32.1048 33.9035 32.0106C33.9035 31.8691 33.9454 31.7309 34.024 31.6131C34.1024 31.4956 34.214 31.4037 34.3447 31.3495C34.4752 31.2954 34.619 31.281 34.7577 31.3086C34.8964 31.3359 35.0239 31.4039 35.124 31.5039C35.2241 31.6038 35.2924 31.7312 35.3201 31.8698C35.3479 32.0086 35.3341 32.1525 35.2802 32.2833C35.2263 32.414 35.135 32.5261 35.0175 32.6049ZM35.8524 34.6981C35.9767 34.6979 36.0982 34.6608 36.2015 34.5915C36.3048 34.5222 36.3854 34.4239 36.4328 34.3088C36.4801 34.1939 36.4925 34.0674 36.4681 33.9453C36.4438 33.8234 36.3839 33.7114 36.2958 33.6233C36.2078 33.5355 36.0958 33.4756 35.9739 33.4514C35.8519 33.4271 35.7254 33.4397 35.6106 33.4874C35.4958 33.535 35.3977 33.6157 35.3286 33.7192C35.2595 33.8226 35.2226 33.9443 35.2226 34.0687C35.2226 34.1514 35.239 34.2334 35.2705 34.3098C35.3022 34.3862 35.3486 34.4556 35.4072 34.5141C35.4656 34.5725 35.535 34.6188 35.6114 34.6503C35.6878 34.6819 35.7698 34.6981 35.8524 34.6981ZM34.62 35.0155C34.5353 35.0721 34.4356 35.1024 34.3337 35.1024C34.197 35.1019 34.0662 35.0474 33.9696 34.9507C33.8731 34.8541 33.8186 34.7231 33.8181 34.5865C33.8181 34.4845 33.8483 34.3846 33.905 34.2998C33.9616 34.215 34.0422 34.1489 34.1363 34.1098C34.2306 34.0709 34.3342 34.0605 34.4341 34.0806C34.5343 34.1004 34.626 34.1495 34.6981 34.2217C34.7702 34.2938 34.8194 34.3858 34.8393 34.4858C34.8592 34.5859 34.849 34.6896 34.8099 34.7839C34.7709 34.8783 34.7048 34.9588 34.62 35.0155ZM32.9857 33.6132C33.11 33.6128 33.2315 33.5756 33.3346 33.5063C33.4378 33.4368 33.5182 33.3385 33.5654 33.2234C33.6128 33.1084 33.625 32.9819 33.6005 32.86C33.5761 32.738 33.516 32.6261 33.4279 32.5383C33.34 32.4504 33.2278 32.3906 33.1058 32.3666C32.984 32.3424 32.8577 32.3549 32.7429 32.4027C32.6281 32.4504 32.53 32.5311 32.4609 32.6344C32.3918 32.738 32.3551 32.8595 32.3551 32.9839C32.3551 33.0668 32.3714 33.1488 32.4032 33.2252C32.4349 33.3016 32.4812 33.371 32.5398 33.4295C32.5986 33.4881 32.668 33.5343 32.7446 33.5659C32.821 33.5973 32.9031 33.6135 32.9857 33.6132ZM31.4338 32.1188C31.3165 32.1976 31.1783 32.2398 31.037 32.2402C30.9429 32.2403 30.8497 32.222 30.7628 32.1861C30.6759 32.1502 30.5968 32.0974 30.5302 32.0309C30.4636 31.9645 30.4107 31.8857 30.3747 31.7987C30.3386 31.7118 30.3199 31.6186 30.3198 31.5245C30.3198 31.383 30.3616 31.2448 30.4402 31.127C30.5187 31.0093 30.6303 30.9176 30.761 30.8634C30.8915 30.8091 31.0351 30.7949 31.174 30.8223C31.3126 30.8498 31.4401 30.9178 31.5401 31.0177C31.6402 31.1177 31.7085 31.2449 31.7363 31.3837C31.7642 31.5225 31.7502 31.6662 31.6965 31.7972C31.6426 31.9279 31.5511 32.0398 31.4338 32.1188ZM31.0081 26.86C31.1494 26.8595 31.2876 26.8172 31.4049 26.7384C31.5224 26.6594 31.6137 26.5475 31.6676 26.4168C31.7215 26.2859 31.7353 26.1421 31.7075 26.0033C31.6798 25.8646 31.6115 25.7373 31.5114 25.6373C31.4113 25.5374 31.2838 25.4695 31.1451 25.4419C31.0064 25.4145 30.8628 25.4287 30.7321 25.483C30.6014 25.5373 30.49 25.6289 30.4114 25.7467C30.3329 25.8644 30.2911 26.0027 30.2911 26.1441C30.2911 26.2383 30.3098 26.3315 30.3458 26.4183C30.382 26.5053 30.4349 26.5841 30.5015 26.6506C30.5681 26.717 30.647 26.7698 30.7339 26.8057C30.8209 26.8416 30.914 26.86 31.0081 26.86ZM31.6728 24.2349C31.5693 24.3044 31.4476 24.3414 31.323 24.3416C31.1561 24.3416 30.9959 24.2755 30.8776 24.1574C30.7595 24.0395 30.6927 23.8794 30.6922 23.7124C30.6921 23.5877 30.7289 23.4658 30.7979 23.3621C30.8669 23.2584 30.9652 23.1774 31.0802 23.1294C31.1952 23.0817 31.3218 23.069 31.444 23.093C31.5663 23.1173 31.6786 23.1772 31.7667 23.2652C31.855 23.3532 31.9151 23.4654 31.9396 23.5875C31.9641 23.7097 31.9518 23.8365 31.9044 23.9517C31.8568 24.0669 31.7762 24.1656 31.6728 24.2349ZM32.0113 22.2818C32.1133 22.2818 32.2129 22.2516 32.2977 22.1948C32.3826 22.1382 32.4487 22.0575 32.4876 21.9634C32.5266 21.869 32.5368 21.7653 32.517 21.6651C32.4971 21.5651 32.448 21.4732 32.376 21.4011C32.3039 21.329 32.2119 21.2797 32.112 21.2598C32.0118 21.24 31.9082 21.2502 31.8141 21.2892C31.7198 21.3283 31.6394 21.3944 31.5826 21.4793C31.5261 21.5641 31.4959 21.6638 31.4959 21.7658C31.4962 21.9026 31.5508 22.0335 31.6474 22.1302C31.7438 22.2267 31.8748 22.2813 32.0113 22.2818ZM31.1556 21.2057C31.0523 21.275 30.9308 21.3121 30.8065 21.3123C30.7239 21.3123 30.642 21.2961 30.5656 21.2645C30.4891 21.233 30.4197 21.1867 30.3613 21.1283C30.3027 21.0698 30.2564 21.0003 30.2246 20.924C30.1931 20.8475 30.1768 20.7656 30.1768 20.6829C30.1768 20.5585 30.2136 20.4369 30.2827 20.3334C30.3516 20.2299 30.4499 20.1492 30.5647 20.1016C30.6795 20.0538 30.806 20.0413 30.928 20.0655C31.05 20.0897 31.162 20.1497 31.2499 20.2375C31.338 20.3255 31.3979 20.4376 31.4223 20.5595C31.4466 20.6816 31.4343 20.8081 31.3869 20.923C31.3393 21.0381 31.2589 21.1364 31.1556 21.2057ZM37.4874 33.814C37.6287 33.8137 37.7667 33.7713 37.8842 33.6925C38.0015 33.6137 38.093 33.5016 38.1469 33.3709C38.2006 33.2401 38.2146 33.0962 38.1867 32.9574C38.1589 32.8188 38.0906 32.6914 37.9905 32.5915C37.8904 32.4915 37.7631 32.4235 37.6244 32.3961C37.4855 32.3686 37.3419 32.383 37.2114 32.4371C37.0807 32.4913 36.9691 32.5832 36.8907 32.7007C36.8121 32.8185 36.7702 32.9567 36.7702 33.0982C36.7703 33.1923 36.789 33.2855 36.8251 33.3724C36.8611 33.4594 36.914 33.5384 36.9806 33.6048C37.0472 33.6713 37.1263 33.7239 37.2132 33.7598C37.3002 33.7957 37.3933 33.814 37.4874 33.814ZM29.5702 20.3536C29.4529 20.4326 29.3149 20.475 29.1735 20.4757C29.0794 20.4758 28.9861 20.4575 28.899 20.4217C28.8121 20.3858 28.7328 20.3332 28.6662 20.2668C28.5995 20.2001 28.5466 20.1211 28.5104 20.0343C28.4742 19.9473 28.4556 19.854 28.4555 19.7598C28.4555 19.6183 28.4974 19.4801 28.5758 19.3625C28.6542 19.2448 28.7659 19.1531 28.8964 19.0988C29.0268 19.0446 29.1705 19.0302 29.3092 19.0576C29.4479 19.085 29.5754 19.1529 29.6755 19.2528C29.7756 19.3525 29.844 19.4799 29.8719 19.6185C29.8997 19.7571 29.8861 19.9011 29.8323 20.0318C29.7786 20.1627 29.6873 20.2746 29.5702 20.3536ZM29.6603 23.5125C29.8016 23.5122 29.9398 23.4699 30.0571 23.3909C30.1746 23.3121 30.2659 23.2002 30.3198 23.0693C30.3737 22.9386 30.3875 22.7946 30.3596 22.656C30.3319 22.5173 30.2637 22.3898 30.1636 22.29C30.0634 22.19 29.936 22.122 29.7973 22.0946C29.6586 22.0671 29.5148 22.0814 29.3843 22.1357C29.2536 22.1898 29.142 22.2816 29.0636 22.3992C28.985 22.5169 28.9431 22.6552 28.9431 22.7968C28.9432 22.8908 28.9619 22.984 28.998 23.071C29.0342 23.1578 29.0869 23.2368 29.1535 23.3033C29.2201 23.3697 29.2992 23.4223 29.3861 23.4582C29.4731 23.4941 29.5662 23.5127 29.6603 23.5125ZM29.3336 26.2561C29.1927 26.3507 29.0272 26.4013 28.8576 26.4016C28.63 26.4016 28.4118 26.3112 28.2507 26.1504C28.0897 25.9896 27.9989 25.7714 27.9984 25.5436C27.9984 25.3739 28.0486 25.2081 28.1428 25.0672C28.2369 24.9261 28.3707 24.8162 28.5272 24.7511C28.6838 24.6861 28.8561 24.6691 29.0223 24.702C29.1887 24.7349 29.3414 24.8165 29.4614 24.9363C29.5814 25.0562 29.6633 25.2088 29.6965 25.3751C29.7299 25.5414 29.713 25.7139 29.6484 25.8707C29.5839 26.0275 29.4742 26.1616 29.3336 26.2561ZM26.2483 26.4016C26.4465 26.4013 26.6399 26.3421 26.8045 26.2316C26.969 26.1212 27.097 25.9644 27.1724 25.7811C27.2478 25.5977 27.2672 25.3961 27.2281 25.2019C27.1891 25.0076 27.0933 24.8292 26.953 24.6893C26.8125 24.5495 26.6337 24.4545 26.4395 24.4163C26.2451 24.378 26.0437 24.3984 25.861 24.4747C25.6781 24.551 25.5221 24.6799 25.4124 24.8451C25.3028 25.0101 25.2445 25.2041 25.245 25.4023C25.2459 25.668 25.352 25.9223 25.5401 26.1097C25.7281 26.2971 25.9829 26.4021 26.2483 26.4016ZM23.8468 26.8952C23.6589 27.0213 23.438 27.0889 23.2117 27.0894C22.9078 27.0897 22.6163 26.9692 22.4012 26.7544C22.1861 26.5397 22.065 26.2483 22.0645 25.9442C22.0645 25.7179 22.1316 25.4965 22.2572 25.3083C22.3829 25.12 22.5614 24.9732 22.7703 24.8865C22.9793 24.7997 23.2092 24.777 23.4312 24.8209C23.6531 24.8648 23.857 24.9737 24.0172 25.1335C24.1774 25.2934 24.2865 25.4972 24.3311 25.7191C24.3755 25.941 24.3533 26.1713 24.267 26.3805C24.1809 26.59 24.0346 26.769 23.8468 26.8952ZM19.8835 28.7199C20.1491 28.7194 20.4088 28.6401 20.6294 28.492C20.8502 28.3438 21.0219 28.1336 21.1233 27.8876C21.2246 27.6418 21.2508 27.3715 21.1986 27.1108C21.1464 26.85 21.0182 26.6107 20.8301 26.4228C20.6421 26.2349 20.4024 26.1072 20.1418 26.0554C19.8811 26.0038 19.611 26.0305 19.3657 26.1324C19.1202 26.2343 18.9104 26.4068 18.7628 26.6279C18.6153 26.849 18.5365 27.109 18.5365 27.3748C18.537 27.732 18.6792 28.0741 18.9316 28.3265C19.1843 28.5786 19.5265 28.7202 19.8835 28.7199ZM17.332 31.1955C17.0692 31.3722 16.7601 31.4669 16.4436 31.4679C16.233 31.468 16.0243 31.4268 15.8296 31.3463C15.6349 31.2658 15.4579 31.1477 15.3087 30.999C15.1596 30.85 15.0412 30.6732 14.9604 30.4785C14.8795 30.2837 14.8378 30.075 14.8375 29.8643C14.8377 29.5475 14.9317 29.2381 15.1076 28.9747C15.2834 28.7114 15.5333 28.5061 15.8257 28.3847C16.1181 28.2635 16.4398 28.2316 16.7503 28.2932C17.0607 28.3547 17.346 28.507 17.5701 28.7307C17.7941 28.9543 17.9469 29.2396 18.0092 29.55C18.0714 29.8606 18.0404 30.1825 17.9197 30.4754C17.7993 30.7683 17.5947 31.0188 17.332 31.1955ZM18.5365 25.3716C18.8021 25.3709 19.0616 25.2914 19.2822 25.1432C19.5028 24.9949 19.6746 24.7846 19.7757 24.5387C19.8768 24.2929 19.9028 24.0225 19.8506 23.7618C19.7984 23.5012 19.67 23.2619 19.482 23.0742C19.2938 22.8865 19.0543 22.7587 18.7936 22.7071C18.533 22.6555 18.263 22.6822 18.0175 22.7843C17.7722 22.8861 17.5625 23.0585 17.4149 23.2797C17.2674 23.5008 17.1887 23.7607 17.1887 24.0265C17.1887 24.2035 17.2237 24.3787 17.2915 24.542C17.3594 24.7055 17.4587 24.8538 17.5838 24.9787C17.7091 25.1036 17.8577 25.2026 18.021 25.2701C18.1846 25.3375 18.3598 25.3719 18.5365 25.3716ZM22.4967 23.5478C22.3086 23.6737 22.0873 23.741 21.8611 23.7411C21.5575 23.7411 21.2663 23.6206 21.0516 23.4058C20.8368 23.1911 20.716 22.8998 20.7157 22.5959C20.7157 22.3695 20.7827 22.1481 20.9086 21.9599C21.0342 21.7715 21.2129 21.6247 21.422 21.538C21.6311 21.4512 21.8611 21.4285 22.083 21.4726C22.3051 21.5168 22.509 21.6257 22.6691 21.7859C22.8291 21.9458 22.9382 22.1499 22.9824 22.372C23.0267 22.5941 23.0041 22.8244 22.9177 23.0336C22.8313 23.2428 22.6847 23.4218 22.4967 23.5478ZM21.3743 20.7071C21.6006 20.7068 21.8217 20.6391 22.0097 20.5131C22.1976 20.387 22.3442 20.208 22.4304 19.9986C22.5167 19.7892 22.5391 19.5591 22.4947 19.337C22.4501 19.1149 22.341 18.911 22.1808 18.751C22.0204 18.5912 21.8165 18.4823 21.5944 18.4384C21.3725 18.3945 21.1425 18.4174 20.9334 18.5042C20.7245 18.591 20.546 18.738 20.4203 18.9265C20.2948 19.1149 20.2279 19.3363 20.2281 19.5627C20.2286 19.8667 20.3495 20.1577 20.5645 20.3723C20.7794 20.5869 21.0708 20.7073 21.3743 20.7071ZM24.9685 19.8496C24.8045 19.96 24.6114 20.0194 24.4137 20.0201C24.282 20.0204 24.1517 19.9949 24.0299 19.9448C23.9081 19.8945 23.7974 19.8209 23.7042 19.7279C23.6109 19.6349 23.537 19.5245 23.4864 19.4028C23.4358 19.2812 23.4096 19.1508 23.4096 19.019C23.4096 18.8211 23.4682 18.6278 23.578 18.4631C23.6876 18.2986 23.8437 18.1702 24.0264 18.0944C24.2089 18.0186 24.4099 17.9984 24.6038 18.0368C24.7978 18.0752 24.976 18.17 25.1161 18.3098C25.2562 18.4494 25.3518 18.6274 25.3907 18.8213C25.4298 19.0153 25.4106 19.2166 25.3353 19.3996C25.2602 19.5824 25.1326 19.7391 24.9685 19.8496ZM27.0202 20.0201C27.1898 20.0198 27.3553 19.9692 27.4961 19.8747C27.6368 19.7802 27.7464 19.6461 27.811 19.4893C27.8756 19.3323 27.8925 19.16 27.8591 18.9936C27.8259 18.8273 27.7439 18.6745 27.624 18.5548C27.504 18.4349 27.3513 18.3534 27.1849 18.3205C27.0187 18.2876 26.8465 18.3046 26.6898 18.3696C26.5333 18.4346 26.3995 18.5446 26.3053 18.6857C26.2112 18.8266 26.161 18.9925 26.161 19.1621C26.1615 19.3899 26.2523 19.6082 26.4133 19.769C26.5745 19.9298 26.7928 20.0201 27.0202 20.0201ZM27.9851 22.9068C27.8446 23.0017 27.6792 23.0526 27.5098 23.0533C27.397 23.0535 27.2852 23.0316 27.1809 22.9885C27.0765 22.9456 26.9817 22.8825 26.9017 22.8028C26.8218 22.7232 26.7582 22.6285 26.7148 22.5243C26.6715 22.4199 26.6489 22.3082 26.6488 22.1953C26.6488 22.0258 26.6988 21.86 26.7929 21.7191C26.8871 21.578 27.0207 21.4681 27.1771 21.4029C27.3336 21.338 27.5058 21.3208 27.672 21.3535C27.8382 21.3864 27.9911 21.4677 28.1111 21.5873C28.231 21.7069 28.3131 21.8595 28.3465 22.0256C28.3801 22.1918 28.3635 22.3643 28.2993 22.5211C28.235 22.6779 28.1256 22.8122 27.9851 22.9068ZM24.9015 23.0783C25.0994 23.0778 25.2928 23.0186 25.4571 22.9082C25.6213 22.7976 25.7493 22.6408 25.8246 22.4576C25.9 22.2745 25.9194 22.0731 25.8803 21.8789C25.8413 21.6845 25.7457 21.5063 25.6053 21.3664C25.4651 21.2266 25.2866 21.1316 25.0924 21.0932C24.8981 21.0548 24.6969 21.075 24.5141 21.1511C24.3313 21.2271 24.1752 21.3557 24.0654 21.5205C23.9556 21.6855 23.8971 21.8792 23.8972 22.0772C23.8976 22.209 23.9236 22.3394 23.9743 22.461C24.0249 22.5826 24.099 22.6929 24.1921 22.7859C24.2854 22.879 24.396 22.9526 24.5177 23.0027C24.6395 23.053 24.7698 23.0787 24.9015 23.0783ZM22.348 30.6067C22.2637 30.6635 22.1644 30.694 22.0626 30.6944C21.9949 30.6945 21.9278 30.6813 21.8652 30.6555C21.8027 30.6296 21.7458 30.5917 21.6979 30.5439C21.6498 30.4962 21.6118 30.4394 21.5857 30.3768C21.5597 30.3141 21.5463 30.2472 21.5462 30.1794C21.5462 30.0777 21.5764 29.9782 21.6328 29.8935C21.6892 29.8088 21.7695 29.7429 21.8634 29.7038C21.9574 29.6647 22.0608 29.6545 22.1604 29.6742C22.2602 29.6939 22.352 29.7427 22.4241 29.8147C22.496 29.8865 22.5452 29.978 22.5653 30.0778C22.5853 30.1775 22.5754 30.2811 22.5367 30.3753C22.4982 30.4693 22.4324 30.5499 22.348 30.6067ZM24.1277 30.4369C24.2518 30.4364 24.3731 30.399 24.4763 30.3295C24.5792 30.26 24.6595 30.1615 24.7067 30.0465C24.7538 29.9314 24.766 29.805 24.7413 29.6831C24.7167 29.5612 24.6567 29.4493 24.5686 29.3616C24.4804 29.2738 24.3685 29.2142 24.2465 29.1901C24.1247 29.1661 23.9984 29.1788 23.8835 29.2264C23.7687 29.2741 23.6708 29.3548 23.6017 29.4581C23.5328 29.5617 23.4959 29.6832 23.4959 29.8075C23.4964 29.9748 23.5633 30.135 23.6816 30.253C23.8001 30.3709 23.9605 30.4372 24.1277 30.4369ZM26.7886 29.4578C26.6711 29.5365 26.5328 29.5787 26.3915 29.5789C26.2975 29.579 26.2044 29.5607 26.1176 29.5248C26.0308 29.4889 25.9519 29.4363 25.8853 29.37C25.8189 29.3035 25.766 29.2247 25.73 29.1379C25.6939 29.051 25.6754 28.958 25.6752 28.864C25.6751 28.7226 25.7168 28.584 25.7952 28.4662C25.8736 28.3483 25.9853 28.2565 26.1159 28.2022C26.2464 28.1478 26.3903 28.1334 26.5291 28.161C26.668 28.1884 26.7954 28.2563 26.8956 28.3564C26.9957 28.4564 27.0641 28.5838 27.0918 28.7226C27.1195 28.8613 27.1057 29.0053 27.0516 29.1362C26.9977 29.2671 26.9061 29.379 26.7886 29.4578ZM26.9366 31.8675C27.1062 31.867 27.2717 31.8162 27.4122 31.7215C27.5529 31.627 27.6623 31.4927 27.7268 31.3359C27.7913 31.1791 27.8079 31.0066 27.7745 30.8405C27.7411 30.6742 27.6592 30.5215 27.5392 30.4018C27.4192 30.2821 27.2664 30.2007 27.1002 30.1679C26.9339 30.135 26.7616 30.152 26.6052 30.2171C26.4487 30.2821 26.3149 30.3921 26.2207 30.5331C26.1268 30.6742 26.0766 30.84 26.0766 31.0095C26.0766 31.1224 26.0989 31.2341 26.1423 31.3383C26.1855 31.4426 26.2489 31.5372 26.3289 31.617C26.4088 31.6966 26.5036 31.7598 26.6079 31.8027C26.7122 31.8458 26.8238 31.8678 26.9366 31.8675ZM24.5814 32.2903C24.4639 32.3689 24.3258 32.4112 24.1842 32.4113C23.9945 32.4113 23.8125 32.3359 23.6781 32.2018C23.544 32.0675 23.4684 31.8855 23.468 31.6955C23.468 31.554 23.5101 31.4156 23.5885 31.298C23.6671 31.1803 23.7787 31.0885 23.9094 31.0344C24.0401 30.9801 24.1839 30.9659 24.3226 30.9934C24.4613 31.021 24.5887 31.0891 24.6889 31.189C24.7888 31.289 24.8571 31.4166 24.8848 31.5554C24.9125 31.6941 24.8985 31.8379 24.8444 31.9688C24.7905 32.0996 24.6989 32.2115 24.5814 32.2903ZM21.7468 32.3835C21.8714 32.3835 21.9932 32.3464 22.0967 32.2773C22.2003 32.208 22.2811 32.1094 22.3286 31.9944C22.3764 31.8792 22.3889 31.7524 22.3645 31.6302C22.3402 31.5079 22.2802 31.3957 22.1921 31.3075C22.104 31.2194 21.9919 31.1593 21.8697 31.135C21.7476 31.1107 21.6209 31.1232 21.5058 31.171C21.3907 31.2185 21.2924 31.2994 21.2231 31.4031C21.154 31.5066 21.117 31.6285 21.117 31.7531C21.1173 31.9202 21.1837 32.0804 21.3017 32.1986C21.4199 32.3167 21.5799 32.3831 21.7468 32.3835ZM22.1724 34.2362C22.0551 34.3152 21.917 34.3574 21.7756 34.3578C21.6815 34.3579 21.5884 34.3396 21.5015 34.3037C21.4145 34.2678 21.3356 34.215 21.2688 34.1485C21.2023 34.0821 21.1495 34.0031 21.1133 33.9162C21.0773 33.8294 21.0586 33.7362 21.0584 33.6421C21.0584 33.5006 21.1005 33.3622 21.1789 33.2446C21.2575 33.1269 21.369 33.0352 21.4996 32.9809C21.6301 32.9267 21.774 32.9125 21.9126 32.9399C22.0513 32.9674 22.1788 33.0354 22.2789 33.1352C22.379 33.2351 22.4473 33.3625 22.475 33.5013C22.5029 33.64 22.489 33.7838 22.4351 33.9147C22.3812 34.0455 22.2899 34.1574 22.1724 34.2362ZM24.698 34.7296C24.8678 34.7295 25.0336 34.6789 25.1746 34.5844C25.3156 34.49 25.4254 34.3558 25.4903 34.1988C25.5551 34.0418 25.5719 33.8692 25.5387 33.7025C25.5055 33.536 25.4238 33.3831 25.3036 33.263C25.1836 33.1431 25.0306 33.0613 24.8642 33.0282C24.6977 32.9951 24.5252 33.0122 24.3683 33.0773C24.2116 33.1423 24.0776 33.2525 23.9833 33.3936C23.8891 33.5348 23.8387 33.7008 23.8387 33.8707C23.839 34.0986 23.9296 34.317 24.0908 34.4782C24.2518 34.6391 24.4703 34.7296 24.698 34.7296ZM28.6696 34.1898C28.5045 34.2997 28.3108 34.3581 28.1127 34.3578C27.8476 34.3571 27.5934 34.2512 27.406 34.0634C27.2188 33.8755 27.1133 33.6212 27.1132 33.3557C27.1132 33.1575 27.1719 32.9636 27.282 32.7988C27.3922 32.6339 27.5487 32.5055 27.7318 32.4297C27.9148 32.3539 28.1162 32.3342 28.3106 32.3731C28.5049 32.4118 28.6833 32.5075 28.8233 32.6478C28.9633 32.7881 29.0586 32.9669 29.0969 33.1615C29.1353 33.3558 29.1153 33.5574 29.0392 33.7406C28.9631 33.9236 28.8344 34.0799 28.6696 34.1898ZM30.1192 36.8472C30.3453 36.8464 30.5662 36.7786 30.754 36.6524C30.9417 36.5259 31.0879 36.3468 31.1738 36.1374C31.2599 35.9281 31.2819 35.6979 31.2374 35.4759C31.1927 35.254 31.0834 35.0503 30.923 34.8905C30.7628 34.7308 30.5587 34.6221 30.3368 34.5784C30.1148 34.5346 29.8849 34.5577 29.676 34.6445C29.4671 34.7315 29.2887 34.8784 29.1632 35.0668C29.0377 35.2552 28.9708 35.4766 28.9709 35.7029C28.9713 35.8535 29.0011 36.0026 29.0591 36.1415C29.1168 36.2806 29.2016 36.4069 29.3082 36.5131C29.4147 36.6195 29.5413 36.7036 29.6805 36.7609C29.8197 36.8182 29.9687 36.8476 30.1192 36.8472ZM26.4609 37.0202C26.2967 37.1304 26.1034 37.1897 25.9055 37.1902C25.7737 37.1904 25.643 37.1647 25.521 37.1142C25.3991 37.0638 25.2883 36.9898 25.195 36.8965C25.1017 36.8031 25.0278 36.6923 24.9774 36.5702C24.927 36.4481 24.9011 36.3174 24.9015 36.1853C24.902 35.9874 24.961 35.794 25.0713 35.6297C25.1816 35.4652 25.338 35.3373 25.5209 35.2618C25.7038 35.1864 25.9049 35.1667 26.0988 35.2054C26.2928 35.2441 26.471 35.3397 26.6109 35.4796C26.7507 35.6195 26.846 35.7979 26.8847 35.9919C26.9234 36.1861 26.9039 36.3873 26.8285 36.5704C26.7531 36.7534 26.6251 36.9099 26.4609 37.0202ZM23.5248 39.1368C23.7228 39.1363 23.9164 39.0772 24.081 38.9668C24.2453 38.8563 24.3735 38.6995 24.4489 38.5161C24.5243 38.3329 24.5437 38.1314 24.5046 37.937C24.4656 37.7426 24.3698 37.5643 24.2293 37.4245C24.089 37.2846 23.9102 37.1896 23.7158 37.1513C23.5214 37.1131 23.3202 37.1335 23.1373 37.2098C22.9546 37.2862 22.7984 37.415 22.6887 37.5801C22.5793 37.7453 22.521 37.9392 22.5215 38.1374C22.5225 38.4029 22.6287 38.6572 22.8167 38.8446C23.0048 39.0319 23.2594 39.137 23.5248 39.1368ZM26.1385 41.4605C25.9506 41.5867 25.7296 41.6543 25.5034 41.655C25.3528 41.6553 25.2038 41.6259 25.0648 41.5687C24.9257 41.5114 24.7992 41.4271 24.6927 41.3209C24.5861 41.2145 24.5015 41.0882 24.4437 40.9493C24.386 40.8102 24.3563 40.6613 24.3561 40.5106C24.356 40.2842 24.4229 40.0628 24.5484 39.8744C24.6738 39.686 24.8524 39.5391 25.0613 39.4523C25.2702 39.3653 25.5002 39.3424 25.7223 39.3861C25.9442 39.43 26.1482 39.5388 26.3085 39.6986C26.4687 39.8584 26.578 40.0623 26.6226 40.2842C26.6671 40.5063 26.6449 40.7364 26.5588 40.9458C26.4726 41.1552 26.3264 41.3342 26.1385 41.4605ZM30.7787 42.1132C31.0445 42.1134 31.3045 42.0347 31.5257 41.887C31.7468 41.7393 31.9192 41.5293 32.0212 41.2835C32.123 41.0378 32.1498 40.7673 32.0981 40.5063C32.0462 40.2453 31.9184 40.0055 31.7303 39.8173C31.5424 39.6291 31.303 39.5009 31.0421 39.4489C30.7813 39.397 30.5112 39.4235 30.2654 39.5254C30.0197 39.6271 29.8098 39.7996 29.6621 40.0207C29.5143 40.2419 29.4355 40.5021 29.4355 40.7681C29.436 41.1245 29.5775 41.4663 29.8293 41.7183C30.0811 41.9704 30.4226 42.1126 30.7787 42.1132ZM28.5184 39.514C28.3305 39.6403 28.1096 39.7079 27.8833 39.7084C27.7328 39.7086 27.5839 39.6792 27.4447 39.6219C27.3057 39.5645 27.1794 39.4803 27.0728 39.3741C26.9663 39.2677 26.8817 39.1415 26.824 39.0026C26.7661 38.8636 26.7362 38.7147 26.736 38.564C26.7359 38.3376 26.8028 38.1163 26.9283 37.9278C27.0538 37.7395 27.2323 37.5925 27.4412 37.5057C27.6502 37.4188 27.8801 37.3958 28.102 37.4397C28.3242 37.4835 28.5281 37.5922 28.6884 37.7521C28.8486 37.912 28.9579 38.1157 29.0025 38.3378C29.047 38.5597 29.0248 38.79 28.9386 38.9994C28.8525 39.2086 28.7063 39.3878 28.5184 39.514ZM32.9857 39.2529C33.2515 39.2524 33.5112 39.1731 33.7318 39.0249C33.9524 38.8768 34.1243 38.6664 34.2256 38.4206C34.3268 38.1748 34.3532 37.9044 34.301 37.6438C34.2487 37.3829 34.1206 37.1436 33.9325 36.9558C33.7443 36.7679 33.5048 36.64 33.2442 36.5884C32.9835 36.5368 32.7134 36.5635 32.4679 36.6654C32.2226 36.7672 32.0128 36.9397 31.8652 37.1608C31.7176 37.3819 31.6389 37.6419 31.6389 37.9078C31.6394 38.265 31.7816 38.6071 32.034 38.8594C32.2867 39.1116 32.6289 39.2532 32.9857 39.2529ZM22.797 36.5301C22.6562 36.6248 22.4905 36.6756 22.321 36.6762C22.208 36.6764 22.0962 36.6544 21.9917 36.6113C21.8873 36.5684 21.7925 36.5051 21.7124 36.4253C21.6325 36.3456 21.569 36.2508 21.5257 36.1464C21.4823 36.042 21.4599 35.9303 21.4597 35.8172C21.4597 35.6474 21.5101 35.4816 21.6042 35.3403C21.6984 35.1992 21.8324 35.089 21.9891 35.0239C22.1457 34.9589 22.3181 34.9417 22.4845 34.9746C22.651 35.0075 22.8039 35.089 22.924 35.2089C23.0442 35.3288 23.1261 35.4816 23.1597 35.6479C23.193 35.8144 23.1763 35.9871 23.1119 36.144C23.0474 36.301 22.9377 36.4353 22.797 36.5301Z" fill="#405985"/>
<path d="M28.7852 5.15922C30.2089 5.15922 31.363 4.00429 31.363 2.57961C31.363 1.15493 30.2089 0 28.7852 0C27.3615 0 26.2074 1.15493 26.2074 2.57961C26.2074 4.00429 27.3615 5.15922 28.7852 5.15922Z" fill="#405985"/>
<path d="M52.415 28.8056C52.415 30.2302 53.5691 31.3852 54.9928 31.3852C56.4164 31.3852 57.5706 30.2302 57.5706 28.8056C57.5706 27.3809 56.4164 26.2259 54.9928 26.2259C53.5691 26.2259 52.415 27.3809 52.415 28.8056Z" fill="#405985"/>
<path d="M12.0766 12.0851C13.0833 11.0777 13.0833 9.44435 12.0766 8.43695C11.0699 7.42955 9.43774 7.42955 8.43105 8.43695C7.42436 9.44435 7.42436 11.0777 8.43105 12.0851C9.43774 13.0925 11.0699 13.0925 12.0766 12.0851Z" fill="#405985"/>
<path d="M45.4941 12.0851C46.5008 13.0925 48.133 13.0925 49.1397 12.0851C50.1464 11.0777 50.1464 9.44437 49.1397 8.43697C48.133 7.42957 46.5008 7.42957 45.4941 8.43697C44.4874 9.44437 44.4874 11.0777 45.4941 12.0851Z" fill="#405985"/>
<path d="M28.7852 57.6111C30.2089 57.6111 31.363 56.4561 31.363 55.0315C31.363 53.6068 30.2089 52.4519 28.7852 52.4519C27.3615 52.4519 26.2074 53.6068 26.2074 55.0315C26.2074 56.4561 27.3615 57.6111 28.7852 57.6111Z" fill="#405985"/>
<path d="M-6.77109e-05 28.8056C-6.77109e-05 30.2302 1.15405 31.3852 2.57772 31.3852C4.0014 31.3852 5.15552 30.2302 5.15552 28.8056C5.15552 27.3809 4.0014 26.2259 2.57772 26.2259C1.15405 26.2259 -6.77109e-05 27.3809 -6.77109e-05 28.8056Z" fill="#405985"/>
<path d="M49.1396 49.1742C50.1463 48.1668 50.1463 46.5335 49.1396 45.5261C48.1329 44.5187 46.5007 44.5187 45.494 45.5261C44.4873 46.5335 44.4873 48.1668 45.494 49.1742C46.5007 50.1816 48.1329 50.1816 49.1396 49.1742Z" fill="#405985"/>
<path d="M8.43101 49.1742C9.4377 50.1816 11.0699 50.1816 12.0766 49.1742C13.0832 48.1668 13.0832 46.5335 12.0766 45.5261C11.0699 44.5187 9.4377 44.5187 8.43101 45.5261C7.42432 46.5335 7.42432 48.1668 8.43101 49.1742Z" fill="#405985"/>
<path d="M139.477 37.656H141.938V23.1984H147.444V20.9067H133.995V23.1984H139.477V37.656ZM164.713 26.3679C164.713 23.174 162.033 20.9067 158.5 20.9067H151.459V37.656H153.92V31.8291H157.769L161.862 37.656H164.688L160.425 31.5853C162.958 30.927 164.713 28.9522 164.713 26.3679ZM153.92 23.1984H158.159C160.571 23.1984 162.203 24.393 162.203 26.3679C162.203 28.3427 160.571 29.5373 158.159 29.5373H153.92V23.1984ZM181.04 23.1984V20.9067H168.737V37.656H181.04V35.3642H171.221V30.2687H180.091V27.977H171.221V23.1984H181.04ZM198.528 37.656H201.258L194.071 20.9067H191.341L184.154 37.656H186.884L188.346 34.2427H197.066L198.528 37.656ZM189.295 32.0241L192.706 24.0761L196.117 32.0241H189.295ZM210.928 37.9242C214.875 37.9242 217.019 35.7787 217.019 32.9506C217.019 29.9518 214.705 28.8303 211.366 28.0501C208.614 27.3918 207.175 26.8555 207.175 25.2951C207.175 23.9542 208.492 22.7596 210.368 22.7596C212.073 22.7596 213.754 23.5154 215.167 24.8075L216.58 22.9546C214.972 21.5405 213.048 20.5897 210.465 20.5897C207.102 20.5897 204.666 22.7108 204.666 25.5145C204.666 28.5377 206.932 29.5617 210.343 30.3662C213.144 31.0001 214.533 31.6096 214.533 33.1944C214.533 34.5353 213.34 35.7543 211.025 35.7543C208.759 35.7543 207.005 34.8278 205.518 33.4138L204.033 35.2423C205.812 36.9489 208.127 37.9242 210.928 37.9242ZM228.57 37.9485C232.76 37.9485 235.757 34.901 235.757 30.61V20.9067H233.271V30.5613C233.271 33.5601 231.322 35.7055 228.57 35.7055C225.792 35.7055 223.843 33.5601 223.843 30.5613V20.9067H221.383V30.61C221.383 34.901 224.355 37.9485 228.57 37.9485ZM253.981 26.3679C253.981 23.174 251.301 20.9067 247.769 20.9067H240.727V37.656H243.188V31.8291H247.038L251.131 37.656H253.956L249.693 31.5853C252.227 30.927 253.981 28.9522 253.981 26.3679ZM243.188 23.1984H247.427C249.839 23.1984 251.471 24.393 251.471 26.3679C251.471 28.3427 249.839 29.5373 247.427 29.5373H243.188V23.1984ZM262.315 37.656H264.848V31.0977L271.499 20.9067H268.649L263.581 28.7571L258.587 20.9067H255.615L262.315 31.0977V37.656Z" fill="#405985"/>
<path fill-rule="evenodd" clip-rule="evenodd" d="M83.3522 36.7375C87.12 36.7375 90.2773 33.4692 90.2773 29.3065C90.2773 25.1438 87.12 21.8755 83.3522 21.8755C79.5844 21.8755 76.427 25.1438 76.427 29.3065C76.427 33.4692 79.5844 36.7375 83.3522 36.7375ZM83.3522 37.7395C87.7299 37.7395 91.2786 33.9638 91.2786 29.3065C91.2786 24.6492 87.7299 20.8736 83.3522 20.8736C78.9745 20.8736 75.4258 24.6492 75.4258 29.3065C75.4258 33.9638 78.9745 37.7395 83.3522 37.7395Z" fill="#405985"/>
<path d="M67.4966 29.3022V20.8592H67.9929H68.4891V29.3022V37.7453H67.9929H67.4966V29.3022Z" fill="#405985"/>
<path d="M101.193 29.79V21.8346H98.2412H95.2891V21.3468V20.8592H101.741H108.193V21.3468V21.8346H105.271H102.35V29.79V37.7453H101.772H101.193V29.79Z" fill="#405985"/>
<path fill-rule="evenodd" clip-rule="evenodd" d="M116.928 20.8736H116.584L116.461 21.1944L110.087 37.7395H111.16L117.145 22.2027L122.971 37.7395H124.04L117.838 21.1985L117.716 20.8736H117.369H116.928Z" fill="#405985"/>
</g>
<defs>
<clipPath id="clip0_777_846">
<rect width="272" height="57.6111" fill="white"/>
</clipPath>
</defs>
</svg>
