<svg width="154" height="71" viewBox="0 0 154 71" fill="none" xmlns="http://www.w3.org/2000/svg">
<path d="M150.631 13.2512C141.686 35.6045 112.092 76.4271 65.279 60.8904C31.6558 49.7312 14.7954 47.437 7.4789 48.055C5.86004 48.6617 4.30898 49.2336 2.83887 49.7671C3.20744 48.9878 4.60888 48.2974 7.4789 48.055C35.4588 37.5687 83.6955 16.7031 84.3774 4.90381C133.789 11.8357 149.135 13.357 150.631 13.2512Z" fill="#D8E3F5"/>
<path d="M150 13C139.5 34.6667 107.1 73.3 61.5 54.5C28.7477 40.9969 12.0911 37.5191 4.74925 37.6194C3.09162 38.1104 1.50408 38.5716 0 39C0.422623 38.2487 1.86927 37.6588 4.74925 37.6194C33.3991 29.1329 82.9875 11.7218 84.5 0C133.3 10.4 148.5 13 150 13Z" fill="#108CFF"/>
</svg>
