<svg width="178" height="178" viewBox="0 0 178 178" fill="none" xmlns="http://www.w3.org/2000/svg">
<path d="M58.8623 46.0668C59.4576 38.3918 68.138 34.2395 74.4871 38.5925L141.25 84.3664C147.599 88.7194 146.855 98.3131 139.911 101.635L66.8877 136.566C59.9433 139.888 52.007 134.447 52.6024 126.772L58.8623 46.0668Z" fill="#FF8AC2"/>
<path d="M39.0636 123.525L32.729 147.808C34.8405 147.808 42.5477 146.436 56.4839 138.834C44.6592 140.523 39.9434 129.156 39.0636 123.525ZM39.0636 123.525L132.499 30.0896" stroke="#163965" stroke-width="3" stroke-linecap="round" stroke-linejoin="round"/>
<path d="M56.4839 138.306L150.448 44.3427M150.448 44.3427C145.697 49.0936 127.196 39.296 132.499 30.6177C138.306 21.1157 158.366 40.6475 150.448 44.3427Z" stroke="#163965" stroke-width="4" stroke-linecap="round" stroke-linejoin="round"/>
<path d="M58.0675 162.061L73.3762 156.254C56.1319 155.902 21.0099 154.037 18.4761 149.392" stroke="#163965" stroke-width="3" stroke-linecap="round" stroke-linejoin="round"/>
</svg>
