<svg width="207" height="149" viewBox="0 0 207 149" fill="none" xmlns="http://www.w3.org/2000/svg">
<circle cx="69.5357" cy="71.5357" r="69.5357" fill="#61E897"/>
<path d="M32 63.8571C36.9657 46.7143 39.4093 24 69.7455 24C100.082 24 110.389 51.8571 115.355 69L205 47.1429" stroke="#163965" stroke-width="3" stroke-linejoin="round"/>
<path d="M139 8.42863C143.714 3.28571 157.857 2 161 2C191.311 2 200.038 29.8571 205 47" stroke="#163965" stroke-width="3" stroke-linejoin="round"/>
<path d="M122 59C112.512 38.439 98.2792 23.0184 85.628 20.448C75.9251 18.4767 57.6899 23.4466 54 26.8735" stroke="#163965" stroke-width="3" stroke-linejoin="round"/>
<path d="M120 60C177.306 46.6286 196.408 42.4286 198 42" stroke="#163965" stroke-width="3" stroke-linejoin="round"/>
<path d="M32 64V65.2764M32 65.2764V143.137L116 147V69.1392L32 65.2764Z" stroke="#163965" stroke-width="3" stroke-linejoin="round"/>
<path d="M155 5C170.769 5 189.692 15.4621 196 42" stroke="#163965" stroke-width="3" stroke-linejoin="round"/>
<path d="M41 74.4872V75.7821M41 75.7821V134.051L105.654 136.641V78.3718L41 75.7821ZM115.115 147L205 118.513V46M125.279 77.0769L162.423 68.0128L164 123.692L125.279 135.346V77.0769ZM201.248 57.6538L171.885 65.4231L173.623 121.103L201.248 112.038V57.6538Z" stroke="#163965" stroke-width="3" stroke-linejoin="round"/>
<path d="M199 58V112" stroke="#163965" stroke-width="3"/>
<path d="M104 61L41 58.3333C46.25 45 48.58 32 70 32C91.42 32 98.225 47.6667 104 61Z" stroke="#163965" stroke-width="3" stroke-linejoin="round"/>
<path d="M85 20L156 5" stroke="#163965" stroke-width="3" stroke-linejoin="round"/>
<path d="M160 69L161 124" stroke="#163965" stroke-width="3"/>
</svg>
