<svg width="35" height="35" viewBox="0 0 35 35" fill="none" xmlns="http://www.w3.org/2000/svg">
<path d="M0 10C0 4.47715 4.47715 0 10 0H25C30.5228 0 35 4.47715 35 10V25C35 30.5228 30.5228 35 25 35H10C4.47715 35 0 30.5228 0 25V10Z" fill="#6E82A4"/>
<path d="M27.3738 12.2931C27.3889 12.517 27.3889 12.741 27.3889 12.967C27.3889 19.8535 22.2679 27.7957 12.904 27.7957V27.7915C10.1379 27.7957 7.42922 26.9845 5.10059 25.4551C5.5028 25.5046 5.90704 25.5294 6.31228 25.5304C8.60462 25.5325 10.8314 24.7451 12.6349 23.2952C10.4564 23.2528 8.54615 21.7988 7.87881 19.676C8.64192 19.8266 9.42821 19.7957 10.1772 19.5862C7.8022 19.0949 6.09353 16.9587 6.09353 14.4778C6.09353 14.4551 6.09353 14.4334 6.09353 14.4118C6.80119 14.8153 7.59353 15.0392 8.40401 15.064C6.16712 13.5335 5.4776 10.4871 6.82841 8.10526C9.41309 11.3612 13.2266 13.3406 17.3203 13.5501C16.9101 11.7399 17.4705 9.84314 18.7931 8.57069C20.8435 6.59752 24.0683 6.69866 25.9957 8.7967C27.1359 8.56657 28.2286 8.13829 29.2286 7.53148C28.8486 8.73788 28.0532 9.76264 26.9907 10.4138C27.9998 10.2921 28.9857 10.0155 29.9141 9.5934C29.2306 10.6419 28.3697 11.5552 27.3738 12.2931Z" fill="white"/>
</svg>
